<svg height='300px' width='300px'  fill="#000000" xmlns:dc="http://purl.org/dc/elements/1.1/" xmlns:cc="http://creativecommons.org/ns#" xmlns:rdf="http://www.w3.org/1999/02/22-rdf-syntax-ns#" xmlns:svg="http://www.w3.org/2000/svg" xmlns="http://www.w3.org/2000/svg" xmlns:sodipodi="http://sodipodi.sourceforge.net/DTD/sodipodi-0.dtd" xmlns:inkscape="http://www.inkscape.org/namespaces/inkscape" viewBox="0 0 12.7 12.7" version="1.1" x="0px" y="0px"><g transform="translate(0,-284.29998)"><path style="" d="m 1.9859374,294.8673 a 0.31139107,0.31139107 0 0 0 -0.3116136,0.31161 v 0.98028 a 0.31139107,0.31139107 0 0 0 0.3116136,0.31162 h 2.4814978 a 0.31139107,0.31139107 0 0 0 0.3116137,-0.31162 v -0.98028 A 0.31139107,0.31139107 0 0 0 4.4674352,294.8673 Z m 0.2357567,0.56565 a 0.23213129,0.23213129 0 0 1 0.2357567,0.23576 0.23237486,0.23237486 0 1 1 -0.4647497,0 0.23213129,0.23213129 0 0 1 0.228993,-0.23576 z" fill="#000000" stroke="none"></path><path style="" d="m 1.986843,290.08053 a 0.02913911,0.02913911 0 0 0 0.038017,0.038 l 0.3660157,-0.14373 a 0.8741718,0.8741718 0 0 1 0.6447224,0.003 l 0.365098,0.14628 a 0.02913911,0.02913911 0 0 0 0.038017,-0.0378 l -0.1436795,-0.36607 a 0.8741718,0.8741718 0 0 1 0,-0.64464 l 0.1461703,-0.36506 a 0.02913911,0.02913911 0 0 0 -0.038017,-0.038 l -0.3661467,0.14373 a 0.8741718,0.8741718 0 0 1 -0.6447225,-0.003 l -0.3649669,-0.14627 a 0.02913911,0.02913911 0 0 0 -0.038017,0.0376 l 0.1436795,0.36607 a 0.8741718,0.8741718 0 0 1 0,0.64464 z" fill="#000000" stroke="none"></path><path style="" d="m 10.035386,287.38848 0.156003,-0.36103 a 0.8741718,0.8741718 0 0 1 0.455815,-0.45583 l 0.361034,-0.15596 a 0.02913911,0.02913911 0 0 0 0,-0.0535 l -0.361034,-0.15598 a 0.8741718,0.8741718 0 0 1 -0.455815,-0.45581 l -0.156003,-0.36105 a 0.02913911,0.02913911 0 0 0 -0.053749,0 l -0.1560024,0.36105 a 0.8741718,0.8741718 0 0 1 -0.4558153,0.45581 l -0.3610341,0.15598 a 0.02913911,0.02913911 0 0 0 0,0.0535 l 0.3610341,0.15596 a 0.8741718,0.8741718 0 0 1 0.4558153,0.45583 l 0.1560024,0.36103 a 0.02913911,0.02913911 0 0 0 0.053749,0 z" fill="#000000" stroke="none"></path><path style="" d="m 8.9040411,288.57524 -0.7873532,-0.81427 a 2.517615,2.517615 0 0 1 -0.7075167,-1.71644 l -0.015731,-1.13255 a 0.08392054,0.08392054 0 0 0 -0.1422375,-0.0593 L 6.4368441,285.64 a 2.517615,2.517615 0 0 1 -1.7164195,0.70747 l -1.1325249,0.0151 a 0.08392054,0.08392054 0 0 0 -0.058993,0.14224 l 0.7872221,0.81426 a 2.517615,2.517615 0 0 1 0.7075167,1.71646 l 0.01442,1.13254 a 0.08392054,0.08392054 0 0 0 0.1422375,0.0593 l 0.8142275,-0.78732 a 2.517615,2.517615 0 0 1 1.7165506,-0.70748 l 1.1325249,-0.0151 a 0.08392054,0.08392054 0 0 0 0.058993,-0.14225 z" fill="#000000" stroke="none"></path><path style="" d="m 1.8714799,294.29308 0.6913921,-1.77462 a 1.8683464,1.8683464 0 0 1 1.7409341,-1.19006 h 2.5605366 a 0.48550952,0.48550952 0 0 1 0,0.97101 H 5.6434602 a 0.160665,0.160665 0 0 0 0,0.32133 h 1.942033 a 1.5569553,1.5569553 0 0 0 0.8851497,-0.27609 l 1.4645871,-1.0121 a 0.52532627,0.52532627 0 0 1 0.641707,0.83004 l -1.8038592,1.5552 a 1.2455643,1.2455643 0 0 1 -0.8133099,0.30222 H 5.5300635 a 1.087655,1.087655 0 0 0 -0.8654855,0.4853 H 2.0164703 a 0.15569553,0.15569553 0 0 1 -0.1449904,-0.21223 z" fill="currentColor" stroke="none"></path></g></svg>