<svg id="svg" xmlns="http://www.w3.org/2000/svg" xmlns:xlink="http://www.w3.org/1999/xlink" width="400" height="400" viewBox="0, 0, 400,400"><g id="svgg"><path id="path0" d="M280.000 56.822 L 280.000 82.243 251.028 82.243 L 222.056 82.243 222.056 94.206 L 222.056 106.168 251.028 106.168 L 280.000 106.168 280.000 181.308 L 280.000 256.449 293.832 256.449 L 307.664 256.449 307.664 181.308 L 307.664 106.168 337.944 106.168 L 368.224 106.168 368.224 94.206 L 368.224 82.243 337.944 82.243 L 307.664 82.243 307.664 56.822 L 307.664 31.402 293.832 31.402 L 280.000 31.402 280.000 56.822 M108.972 153.142 C 59.009 170.944,18.006 185.622,17.854 185.761 C 17.701 185.899,25.542 189.229,35.277 193.161 L 52.976 200.309 66.956 197.928 C 74.644 196.619,102.551 191.916,128.972 187.477 C 155.393 183.038,178.061 179.228,179.346 179.010 C 181.633 178.623,181.682 178.590,181.684 177.438 C 181.694 168.384,209.295 166.595,213.981 175.345 C 217.832 182.536,200.369 187.978,187.839 183.492 C 186.475 183.004,62.771 204.042,63.758 204.594 C 64.062 204.764,94.932 217.258,132.358 232.359 L 200.406 259.816 234.315 246.124 C 252.965 238.593,268.435 232.350,268.692 232.250 C 269.534 231.924,269.358 145.203,268.514 144.879 C 263.707 143.034,200.716 120.751,200.336 120.761 C 200.048 120.769,158.935 135.340,108.972 153.142 M317.009 187.434 L 317.009 212.704 318.598 212.076 C 335.736 205.300,382.612 186.184,382.694 185.937 C 382.755 185.753,368.212 180.404,350.375 174.050 C 332.538 167.697,317.734 162.423,317.477 162.331 C 317.106 162.198,317.009 167.377,317.009 187.434 M51.963 230.280 L 51.963 251.963 56.636 251.963 L 61.308 251.963 61.308 230.280 L 61.308 208.598 56.636 208.598 L 51.963 208.598 51.963 230.280 M107.002 274.112 L 107.103 301.121 108.519 303.957 C 123.344 333.646,194.943 347.954,249.546 332.140 C 272.493 325.494,287.627 315.129,293.473 302.056 L 294.393 300.000 294.500 282.150 L 294.607 264.299 281.883 264.299 L 269.159 264.299 269.159 260.517 C 269.159 257.098,269.096 256.752,268.505 256.909 C 268.145 257.004,252.775 262.827,234.349 269.849 C 215.923 276.872,200.717 282.617,200.557 282.617 C 200.397 282.617,179.358 274.626,153.802 264.860 C 128.247 255.093,107.240 247.103,107.120 247.103 C 107.000 247.103,106.947 259.257,107.002 274.112 M51.373 277.944 C 53.178 282.345,51.299 286.609,41.955 299.310 C 29.992 315.574,27.482 322.510,27.503 339.252 C 27.519 351.503,29.988 362.910,33.537 367.128 C 35.263 369.179,42.227 368.352,52.857 364.831 C 65.854 360.527,75.452 354.077,78.836 347.373 C 80.520 344.038,80.567 344.174,76.217 339.813 C 60.415 323.975,52.947 295.279,61.104 281.737 C 62.060 280.150,62.243 279.626,61.772 279.827 C 59.089 280.971,54.654 280.208,52.247 278.188 C 51.241 277.343,51.111 277.307,51.373 277.944 M294.122 309.063 C 292.085 318.193,279.867 329.191,264.299 335.908 C 210.370 359.175,123.968 346.068,108.096 312.212 L 107.103 310.093 106.812 317.757 C 106.333 330.345,106.300 329.727,107.602 332.509 C 123.633 366.766,243.389 373.025,284.265 341.742 C 293.358 334.783,294.630 331.822,294.492 317.922 C 294.437 312.383,294.271 308.396,294.122 309.063 " stroke="none" fill="currentColor" fill-rule="evenodd"></path></g></svg>