<svg id="svg" xmlns="http://www.w3.org/2000/svg" xmlns:xlink="http://www.w3.org/1999/xlink" width="400" height="307.8125" viewBox="0, 0, 400,307.8125"><g id="svgg"><path id="path0" d="M182.092 36.833 C 159.949 44.385,156.917 46.279,158.581 51.524 L 159.672 54.958 162.741 51.663 C 164.430 49.851,166.447 48.761,167.224 49.241 C 168.000 49.721,167.201 51.549,165.447 53.303 C 163.693 55.057,162.648 57.506,163.123 58.746 C 163.781 60.459,174.972 77.828,177.455 80.990 C 177.680 81.276,179.355 80.020,181.177 78.198 C 182.998 76.377,185.218 75.337,186.109 75.887 C 187.077 76.486,186.425 77.803,184.490 79.158 C 177.062 84.360,185.289 99.493,194.595 97.747 C 197.512 97.200,200.185 97.473,200.742 98.374 C 201.387 99.417,202.453 99.299,203.825 98.031 C 204.978 96.966,205.699 95.722,205.427 95.268 C 205.154 94.814,212.786 91.714,222.387 88.379 C 242.563 81.371,241.549 81.909,239.435 79.335 C 238.535 78.240,237.428 75.586,236.974 73.438 C 236.465 71.029,236.283 71.740,236.499 75.292 L 236.850 81.053 221.063 86.620 C 203.926 92.663,202.102 93.024,201.272 90.536 C 200.969 89.627,199.549 89.334,198.116 89.884 C 196.682 90.434,195.857 91.789,196.282 92.896 C 197.431 95.890,192.006 97.363,189.406 94.763 C 184.191 89.549,188.294 86.597,213.723 77.270 C 227.230 72.316,238.541 68.054,238.858 67.799 C 239.598 67.205,204.355 29.648,203.206 29.807 C 202.732 29.873,193.230 33.035,182.092 36.833 M194.927 46.838 C 196.428 49.242,197.982 49.736,201.943 49.070 C 206.538 48.296,206.766 48.430,204.297 50.451 C 200.663 53.424,200.874 54.515,206.312 60.876 C 210.410 65.671,210.640 66.448,208.341 67.735 C 206.374 68.836,205.044 68.220,202.832 65.183 C 195.202 54.709,194.507 54.172,191.006 56.046 C 188.669 57.297,187.385 57.327,186.656 56.149 C 186.086 55.226,187.092 54.093,188.905 53.619 C 192.783 52.605,193.055 51.103,189.844 48.438 C 186.702 45.830,186.882 43.750,190.249 43.750 C 191.761 43.750,193.866 45.140,194.927 46.838 M115.625 78.166 C 98.245 87.353,79.688 102.317,79.688 107.145 C 79.688 112.951,86.083 115.412,91.087 111.533 C 93.172 109.916,98.667 105.663,103.298 102.082 C 107.929 98.500,117.168 92.638,123.828 89.055 C 136.234 82.381,138.823 78.510,134.063 73.750 C 131.131 70.818,128.199 71.520,115.625 78.166 M261.820 74.888 C 257.828 79.299,259.906 83.253,268.367 87.348 C 281.182 93.550,297.220 105.011,309.549 116.776 C 321.204 127.899,325.617 130.008,329.375 126.250 C 335.917 119.708,305.777 91.231,276.998 76.762 C 265.557 71.010,265.352 70.985,261.820 74.888 M77.438 125.205 C 71.587 129.807,69.809 135.146,71.958 141.658 C 75.098 151.173,89.226 154.484,95.758 147.235 C 107.306 134.419,90.863 114.645,77.438 125.205 M186.260 129.060 C 186.691 134.347,186.331 134.836,180.205 137.263 C 159.600 145.428,153.212 155.173,153.159 178.516 C 153.130 191.639,152.692 194.183,150.000 196.875 C 144.295 202.580,146.153 208.775,160.100 230.549 C 179.119 260.243,195.362 268.806,214.809 259.392 C 233.534 250.327,261.946 200.162,250.781 195.878 C 248.916 195.162,248.438 191.814,248.438 179.470 C 248.438 169.953,247.621 162.020,246.323 158.934 C 237.824 138.721,184.903 112.399,186.260 129.060 M34.868 131.261 C 27.368 134.283,25.444 146.163,31.423 152.528 C 36.118 157.526,45.054 157.627,49.588 152.734 C 59.673 141.851,48.616 125.722,34.868 131.261 M356.808 140.626 C 348.019 144.135,346.352 152.842,353.164 159.655 C 360.886 167.376,371.875 162.624,371.875 151.563 C 371.875 143.107,364.324 137.626,356.808 140.626 M69.531 156.092 C 67.813 156.835,65.134 158.858,63.580 160.587 C 60.960 163.501,60.411 163.560,56.073 161.396 C 52.699 159.713,47.679 159.214,38.090 159.609 L 24.788 160.156 16.338 169.531 C 4.781 182.352,7.014 189.910,19.537 180.358 C 22.588 178.031,25.539 176.581,26.094 177.136 C 27.020 178.062,22.526 207.424,20.749 212.054 C 20.154 213.604,23.401 214.063,34.989 214.063 L 50.000 214.063 50.000 209.700 C 50.000 206.594,47.975 203.351,42.969 198.437 C 31.078 186.768,35.165 179.703,48.014 189.714 C 60.031 199.076,64.969 199.076,76.986 189.714 C 89.835 179.703,93.922 186.768,82.031 198.438 C 77.025 203.351,75.000 206.594,75.000 209.700 L 75.000 214.063 87.500 214.063 L 100.000 214.063 100.000 192.969 C 100.000 169.229,99.616 169.903,108.833 177.456 C 123.630 189.581,126.065 180.537,111.926 165.971 L 101.730 155.469 87.193 155.104 C 79.198 154.904,71.250 155.348,69.531 156.092 M332.203 157.082 C 328.023 161.262,309.375 195.440,309.375 198.920 C 309.375 200.922,313.268 206.188,319.095 212.067 L 328.816 221.875 314.720 221.875 C 298.036 221.875,291.528 226.841,298.750 234.063 C 302.321 237.633,351.096 236.603,353.070 232.915 C 355.551 228.280,355.413 227.987,343.774 213.140 C 332.666 198.970,331.179 195.488,334.911 192.391 C 336.540 191.039,337.407 191.522,338.784 194.543 C 341.852 201.277,357.279 195.075,373.047 180.770 C 385.617 169.365,371.076 164.620,356.009 175.210 C 350.326 179.204,350.364 179.237,349.125 169.326 C 347.514 156.431,339.009 150.277,332.203 157.082 M70.667 173.047 C 79.259 182.832,71.194 196.271,58.622 193.116 C 53.749 191.892,49.591 184.203,50.927 178.883 C 52.912 170.973,65.561 167.233,70.667 173.047 M205.191 179.107 C 214.797 181.366,227.096 183.300,232.522 183.404 L 242.388 183.594 241.415 188.783 C 240.880 191.637,240.056 194.977,239.585 196.205 C 238.984 197.771,239.887 198.438,242.610 198.438 C 252.266 198.438,251.331 204.296,238.192 226.101 C 220.561 255.362,206.063 263.802,188.086 255.271 C 178.208 250.584,153.898 216.914,152.016 205.312 C 151.143 199.937,156.978 195.209,161.236 197.841 C 162.202 198.438,162.499 197.669,161.985 195.899 C 155.934 175.032,167.970 170.354,205.191 179.107 M24.931 228.254 C 18.537 240.201,35.621 305.469,45.142 305.469 C 52.396 305.469,52.638 301.557,46.510 283.313 C 40.935 266.716,37.500 248.432,37.500 235.356 C 37.500 225.372,29.033 220.589,24.931 228.254 M358.067 249.609 C 357.287 251.113,356.142 255.859,355.522 260.156 C 354.901 264.453,351.965 275.239,348.997 284.125 C 343.219 301.421,343.503 304.688,350.781 304.688 C 358.806 304.688,374.500 256.147,368.724 249.188 C 366.099 246.024,359.797 246.274,358.067 249.609 M232.813 266.151 C 232.813 270.397,223.050 281.159,216.182 284.483 C 198.946 292.827,180.553 286.818,168.750 268.986 L 166.406 265.445 159.069 268.696 C 155.033 270.484,143.191 274.059,132.753 276.640 C 106.241 283.197,99.405 287.158,93.111 299.609 L 90.545 304.688 199.960 304.688 C 265.713 304.688,309.375 304.112,309.375 303.246 C 309.375 301.003,299.661 288.894,295.313 285.719 C 293.164 284.149,280.538 280.025,267.255 276.553 C 253.972 273.081,240.789 268.874,237.959 267.204 C 234.353 265.077,232.813 264.762,232.813 266.151 " stroke="none" fill="currentColor" fill-rule="evenodd"></path></g></svg>