<svg height='300px' width='300px'  fill="currentColor" xmlns="http://www.w3.org/2000/svg" xmlns:xlink="http://www.w3.org/1999/xlink" version="1.1" x="0px" y="0px" viewBox="0 0 100 100" enable-background="new 0 0 100 100" xml:space="preserve"><g><polygon points="53.458,27.859 46.642,27.859 46.642,42.174 31.166,42.174 31.166,48.991 46.642,48.991 46.642,78.304    53.458,78.304 53.458,48.991 68.934,48.991 68.934,42.174 53.458,42.174  "></polygon><path d="M74.532,32.644c2.708,4.181,4.287,9.157,4.287,14.499c0,4.123-0.939,8.031-2.612,11.522l4.17,2.329   c2.055-4.184,3.214-8.884,3.214-13.851c0-6.574-2.025-12.682-5.481-17.74L74.532,32.644z"></path><path d="M86.62,21.696l-3.559,3.223c4.504,6.264,7.167,13.936,7.167,22.223c0,6.141-1.467,11.944-4.055,17.089l4.167,2.327   C93.312,60.723,95,54.128,95,47.143C95,37.624,91.882,28.823,86.62,21.696z"></path><path d="M21.89,29.403c-3.456,5.057-5.481,11.166-5.481,17.74c0,4.967,1.159,9.668,3.214,13.851l4.17-2.329   c-1.673-3.492-2.612-7.399-2.612-11.522c0-5.342,1.58-10.318,4.288-14.499L21.89,29.403z"></path><path d="M16.939,24.92l-3.559-3.223C8.118,28.823,5,37.624,5,47.143c0,6.986,1.688,13.58,4.66,19.416l4.167-2.327   c-2.588-5.145-4.055-10.947-4.055-17.089C9.772,38.856,12.435,31.184,16.939,24.92z"></path></g></svg>