<svg id="svg" xmlns="http://www.w3.org/2000/svg" xmlns:xlink="http://www.w3.org/1999/xlink" width="400" height="400" viewBox="0, 0, 400,400"><g id="svgg"><path id="path0" d="M114.844 1.626 C 106.139 5.566,101.864 16.319,105.401 25.373 C 105.785 26.355,105.467 28.135,104.528 30.257 C 103.716 32.093,102.836 35.441,102.572 37.696 C 102.172 41.125,101.605 42.259,99.112 44.618 C 94.087 49.373,91.406 57.729,91.406 68.637 C 91.406 73.934,91.153 75.035,89.391 77.387 C 84.614 83.763,82.229 89.538,76.017 109.766 C 70.854 126.575,70.320 129.386,71.122 135.526 C 72.044 142.588,76.265 161.067,77.748 164.534 C 79.728 169.163,80.948 173.838,82.416 182.422 C 84.238 193.078,92.419 226.553,95.815 237.247 L 98.587 245.979 93.524 252.200 C 70.611 280.350,67.388 324.858,87.324 337.822 C 88.588 338.644,90.031 340.447,90.530 341.829 C 97.160 360.162,122.340 370.621,140.234 362.473 C 141.094 362.082,143.578 361.079,145.756 360.245 C 157.394 355.787,179.302 340.549,187.319 331.334 C 189.445 328.891,190.594 329.946,190.613 334.357 C 190.620 335.851,191.199 339.743,191.900 343.005 L 193.174 348.936 190.218 352.788 C 183.555 361.472,179.065 383.884,182.393 391.849 C 186.866 402.553,207.269 402.642,234.759 392.078 C 252.202 385.375,266.291 374.047,278.329 357.049 C 280.922 353.387,283.259 350.215,283.523 350.000 C 283.787 349.785,288.372 344.160,293.712 337.500 C 299.053 330.840,305.608 323.105,308.279 320.313 C 336.245 291.072,337.739 280.197,316.016 263.983 C 299.971 252.008,287.216 248.170,272.840 250.993 L 267.164 252.107 265.144 250.087 C 261.716 246.659,260.089 242.450,259.320 235.025 C 258.922 231.171,257.860 225.030,256.961 221.378 C 256.042 217.647,255.546 213.862,255.828 212.739 C 262.389 186.595,260.374 168.116,248.222 143.000 C 235.553 116.818,232.328 105.899,233.034 91.578 C 233.525 81.608,232.956 79.121,229.446 75.886 C 225.680 72.414,215.772 72.940,210.547 76.889 C 209.182 77.920,206.559 78.851,204.266 79.118 L 200.328 79.575 198.406 75.932 C 193.209 66.080,174.852 43.524,155.591 23.321 C 148.334 15.708,144.267 13.595,138.585 14.485 C 135.571 14.957,135.526 14.925,132.943 10.570 C 126.795 0.204,122.583 -1.878,114.844 1.626 M125.631 12.317 L 129.039 17.212 126.263 18.371 C 121.959 20.170,121.277 19.868,117.921 14.675 L 114.782 9.819 116.571 8.422 C 119.689 5.988,121.878 6.929,125.631 12.317 M118.199 20.508 C 119.732 22.914,122.516 23.327,125.781 21.633 C 130.154 19.363,130.053 19.308,135.229 26.817 C 137.946 30.759,143.728 38.906,148.078 44.922 C 157.993 58.635,159.820 61.534,160.501 64.634 C 160.817 66.073,161.675 67.316,162.542 67.591 C 164.031 68.064,167.953 72.555,170.653 76.879 C 172.162 79.296,172.305 79.247,168.359 77.651 C 166.724 76.989,166.893 78.358,169.028 83.058 C 170.040 85.286,171.296 88.516,171.819 90.234 C 173.644 96.226,174.474 97.792,176.164 98.434 C 177.099 98.790,177.904 99.551,177.953 100.126 C 178.286 104.084,185.625 122.613,186.722 122.265 C 188.219 121.789,190.266 126.285,188.785 126.796 C 186.638 127.537,192.020 139.063,194.513 139.063 C 195.588 139.063,197.301 141.205,200.464 146.506 C 207.025 157.501,207.820 157.494,203.484 146.479 C 201.963 142.615,199.671 136.289,198.392 132.422 C 197.112 128.555,195.734 124.688,195.329 123.828 C 194.925 122.969,192.801 117.871,190.610 112.500 C 181.970 91.319,180.000 87.045,173.498 75.391 C 170.054 69.217,158.111 51.295,153.516 45.404 C 145.956 35.713,145.786 35.206,148.974 31.879 C 151.922 28.802,152.310 28.962,158.376 35.742 C 165.453 43.653,165.506 43.759,162.127 43.211 C 159.080 42.716,158.990 42.832,160.259 45.617 C 161.062 47.379,161.477 47.520,164.752 47.147 C 167.864 46.793,168.500 46.970,169.385 48.437 C 170.970 51.062,183.843 67.545,184.539 67.839 C 185.598 68.285,185.214 70.339,183.984 70.811 C 182.739 71.289,182.381 75.455,183.441 77.124 C 183.850 77.767,184.523 77.190,185.516 75.346 C 186.325 73.844,187.351 72.737,187.797 72.885 C 189.715 73.525,195.076 84.000,198.476 93.750 C 200.499 99.551,203.232 106.582,204.551 109.375 C 205.869 112.168,207.331 116.176,207.800 118.282 C 208.269 120.388,209.431 123.041,210.381 124.177 C 211.637 125.679,212.642 129.061,214.061 136.559 C 215.134 142.233,216.289 146.875,216.627 146.875 C 217.879 146.875,216.691 110.887,215.396 109.593 C 213.495 107.692,212.504 109.145,212.449 113.913 L 212.399 118.359 210.826 114.063 C 209.961 111.699,208.457 108.008,207.484 105.859 C 204.650 99.602,208.547 85.670,214.248 81.677 C 216.954 79.782,217.034 79.974,217.314 89.037 C 217.616 98.823,218.157 99.860,223.330 100.553 C 226.551 100.985,226.563 100.999,226.563 104.347 C 226.563 107.910,226.538 107.931,221.282 108.990 C 217.409 109.769,219.141 111.174,223.464 110.758 L 227.194 110.400 230.031 118.286 C 234.619 131.038,235.954 134.205,241.428 145.313 C 244.286 151.113,247.240 157.617,247.991 159.766 C 248.742 161.914,249.662 164.258,250.035 164.974 C 252.510 169.727,252.878 188.946,250.742 201.953 C 249.132 211.759,248.994 217.588,250.248 222.732 C 250.919 225.483,251.868 231.250,252.358 235.547 C 253.426 244.919,256.243 251.525,261.007 255.829 L 264.187 258.702 261.591 258.453 C 259.659 258.267,258.733 257.654,257.971 256.055 C 257.405 254.868,256.307 253.906,255.518 253.906 C 252.613 253.906,240.695 244.374,239.890 241.406 C 237.993 234.409,237.993 234.375,239.812 234.375 C 241.219 234.375,241.415 234.073,240.953 232.617 C 240.646 231.650,239.366 227.168,238.109 222.656 C 236.851 218.145,235.621 213.799,235.375 212.999 C 234.981 211.714,235.229 211.611,237.504 212.110 L 240.080 212.676 239.595 209.136 C 239.328 207.190,237.195 200.734,234.854 194.791 C 230.766 184.410,229.282 180.055,227.379 172.852 C 226.437 169.285,226.017 168.994,223.992 170.508 C 222.583 171.562,223.314 184.144,225.094 189.453 C 226.486 193.604,228.098 204.921,228.099 210.547 L 228.100 216.016 225.769 213.371 L 223.438 210.726 223.430 212.980 C 223.399 221.693,226.925 234.947,229.664 236.419 C 232.635 238.015,234.094 241.112,231.517 240.351 C 221.611 237.430,222.111 238.987,235.032 251.298 L 245.824 261.581 240.119 267.570 C 235.053 272.888,232.838 276.654,232.817 279.982 C 232.814 280.359,234.322 279.305,236.168 277.639 C 245.636 269.091,256.455 262.230,263.052 260.593 C 265.541 259.975,268.984 258.936,270.703 258.284 C 278.800 255.215,291.192 257.244,302.623 263.511 C 310.241 267.688,310.245 267.623,302.173 271.788 C 295.580 275.189,295.502 275.207,292.100 274.131 C 288.668 273.046,288.479 272.815,285.140 265.625 C 283.785 262.708,282.433 264.888,279.322 275.000 C 277.235 281.785,275.049 287.136,273.195 290.002 C 269.791 295.262,269.664 296.094,272.266 296.094 C 274.752 296.094,274.738 296.199,271.568 301.460 C 270.110 303.880,266.202 311.133,262.883 317.578 C 246.267 349.848,243.017 355.729,237.363 363.750 C 230.313 373.751,229.610 375.776,234.076 373.215 C 238.584 370.629,246.273 362.059,249.456 356.074 C 250.518 354.075,252.084 351.451,252.935 350.243 C 253.786 349.035,254.746 347.168,255.068 346.094 C 255.390 345.020,256.109 343.613,256.667 342.969 C 257.224 342.324,261.094 334.941,265.266 326.563 C 279.644 297.690,283.161 293.175,302.734 278.470 C 314.300 269.780,314.206 269.806,318.717 274.098 C 322.846 278.025,322.740 278.384,317.138 279.449 C 306.629 281.446,294.099 291.431,282.035 307.422 C 276.806 314.352,274.997 317.457,261.312 342.969 C 257.509 350.059,252.530 358.696,250.246 362.163 C 245.873 368.800,245.550 369.531,246.983 369.531 C 248.758 369.531,256.713 361.334,267.074 348.828 C 267.786 347.969,272.291 342.520,277.085 336.719 C 281.879 330.918,287.062 324.960,288.603 323.480 C 294.055 318.243,292.066 317.383,284.764 321.819 L 279.713 324.887 281.373 321.623 C 287.001 310.554,304.708 293.242,320.576 283.296 C 323.182 281.662,323.367 281.774,323.943 285.322 C 324.698 289.973,318.261 299.607,305.783 312.500 C 299.496 318.996,278.827 344.245,273.612 351.801 C 258.365 373.890,240.945 384.984,211.365 391.442 C 193.537 395.334,186.611 392.349,188.620 381.641 L 189.133 378.906 194.250 378.906 C 201.008 378.906,213.080 375.319,211.531 373.771 C 210.786 373.026,205.089 373.236,200.089 374.194 C 192.088 375.726,189.844 375.373,189.844 372.581 C 189.844 368.503,192.178 361.852,194.828 358.379 L 197.347 355.078 214.103 354.912 C 230.526 354.749,238.678 353.748,238.179 351.953 C 238.059 351.523,233.665 349.532,228.415 347.528 C 215.599 342.636,212.915 340.410,211.378 333.398 C 210.175 327.905,209.191 331.537,209.474 340.430 L 209.766 349.609 207.854 349.879 C 206.435 350.079,200.000 348.635,200.000 348.116 C 200.000 348.076,199.297 344.354,198.437 339.844 C 195.153 322.604,196.099 317.642,204.136 309.959 L 209.766 304.578 205.294 305.028 C 201.039 305.456,200.760 305.374,199.514 303.325 C 197.662 300.278,193.526 294.215,192.983 293.750 C 192.732 293.535,191.159 291.426,189.487 289.063 C 187.816 286.699,183.202 281.602,179.235 277.734 C 173.946 272.580,170.261 267.993,165.426 260.547 C 158.666 250.137,151.563 238.512,151.563 237.860 C 151.563 237.659,148.430 232.135,144.601 225.583 C 134.279 207.923,132.696 202.068,131.241 176.172 C 130.782 168.008,130.077 159.922,129.675 158.203 C 129.273 156.484,128.931 152.441,128.915 149.219 C 128.897 145.364,128.204 140.953,126.890 136.328 C 125.792 132.461,123.669 124.902,122.171 119.531 C 120.674 114.160,118.566 106.777,117.486 103.125 C 116.406 99.473,114.798 94.023,113.913 91.016 C 113.027 88.008,111.468 82.953,110.448 79.783 C 108.409 73.444,108.118 69.536,109.495 66.963 C 110.334 65.395,110.468 65.527,111.447 68.884 C 113.062 74.423,116.361 77.516,120.321 77.204 L 123.506 76.953 127.386 85.938 C 129.521 90.879,131.784 95.977,132.416 97.266 C 133.478 99.432,133.447 99.690,132.017 100.681 C 130.069 102.030,130.007 103.906,131.910 103.906 C 134.024 103.906,135.959 106.388,135.429 108.418 C 135.127 109.572,135.388 110.294,136.223 110.615 C 137.767 111.207,143.360 122.758,148.543 136.058 C 150.838 141.947,152.792 145.909,153.259 145.620 C 154.700 144.730,152.226 132.766,149.230 126.141 C 148.445 124.405,146.224 119.308,144.295 114.813 C 142.366 110.318,138.073 100.488,134.755 92.969 C 131.438 85.449,127.917 76.765,126.932 73.670 C 123.751 63.673,119.872 58.903,115.431 59.522 C 112.019 59.998,108.112 41.758,110.221 35.197 C 111.657 30.731,113.039 30.311,113.734 34.130 C 115.260 42.506,119.615 47.680,123.464 45.690 C 125.606 44.582,125.800 44.615,126.890 46.281 C 128.824 49.238,130.477 53.757,130.041 54.894 C 129.814 55.485,130.784 57.195,132.197 58.694 C 136.362 63.114,142.188 74.724,142.188 78.605 C 142.188 83.306,142.780 84.452,144.928 83.913 C 146.779 83.448,152.344 91.590,152.344 94.763 C 152.344 95.452,152.846 96.297,153.460 96.641 C 154.893 97.443,157.813 104.229,157.813 106.757 C 157.812 108.927,158.899 111.338,160.930 113.672 C 163.194 116.275,165.029 122.653,163.637 123.085 C 163.012 123.279,161.973 123.602,161.328 123.804 C 159.603 124.343,159.902 125.722,161.914 126.499 C 164.629 127.548,166.912 130.448,168.728 135.156 C 171.428 142.155,173.643 146.547,173.984 145.577 C 174.542 143.990,172.851 135.025,170.472 126.953 C 168.278 119.510,167.228 116.909,161.326 104.297 C 156.023 92.964,153.125 86.567,153.125 86.196 C 153.125 85.984,151.933 83.994,150.476 81.773 C 149.019 79.552,147.144 76.328,146.309 74.609 C 143.903 69.657,138.921 60.764,137.116 58.203 C 136.208 56.914,134.820 53.926,134.031 51.563 C 129.412 37.724,121.981 28.314,114.574 26.924 C 111.195 26.290,109.839 22.861,110.854 17.518 C 112.000 11.491,112.615 11.742,118.199 20.508 M147.070 24.820 L 150.000 27.660 147.503 30.236 C 144.367 33.471,144.117 33.455,142.251 29.883 C 141.409 28.271,139.792 25.900,138.659 24.613 L 136.598 22.272 138.416 21.746 C 141.379 20.887,143.959 21.804,147.070 24.820 M122.108 36.568 C 124.632 41.205,124.786 42.969,122.666 42.969 C 120.621 42.969,115.625 34.891,115.625 31.584 C 115.625 29.254,119.928 32.562,122.108 36.568 M108.429 54.391 L 110.218 60.719 107.453 63.485 C 103.914 67.024,103.933 72.210,107.529 83.887 C 107.810 84.799,107.670 85.161,107.160 84.845 C 106.709 84.567,106.106 82.775,105.819 80.863 C 105.199 76.729,102.463 73.438,99.647 73.438 C 97.312 73.438,97.227 72.730,98.484 63.696 C 100.738 47.490,105.278 43.242,108.429 54.391 M118.536 65.039 C 120.990 67.700,122.871 73.747,121.352 74.093 C 117.768 74.908,113.281 70.290,113.281 65.786 C 113.281 62.755,116.065 62.359,118.536 65.039 M100.625 78.793 C 104.664 81.355,104.573 98.502,100.497 103.008 C 99.615 103.983,99.437 105.466,99.766 109.093 C 100.297 114.946,98.267 127.906,95.631 135.488 C 93.353 142.039,93.356 141.570,95.595 141.276 C 99.491 140.766,104.150 150.028,105.695 161.357 C 106.518 167.394,106.716 167.867,108.588 168.241 C 111.339 168.791,112.904 172.393,114.464 181.759 C 117.082 197.483,121.125 207.264,128.086 214.714 C 130.910 217.736,131.256 218.533,131.307 222.136 C 131.438 231.410,132.281 234.172,136.192 238.143 C 140.307 242.321,140.702 244.380,138.673 251.067 C 137.211 255.889,137.635 256.524,141.889 255.886 C 144.223 255.536,145.313 255.655,145.313 256.259 C 145.313 256.747,146.719 258.408,148.438 259.951 C 152.799 263.866,152.242 265.483,142.013 278.620 C 139.960 281.256,138.281 283.618,138.281 283.870 C 138.281 284.122,142.764 282.757,148.242 280.836 C 159.008 277.062,163.577 276.402,163.138 278.685 C 162.323 282.914,138.624 292.686,125.419 294.238 C 117.551 295.163,121.446 297.762,133.028 299.316 C 141.763 300.488,141.839 300.570,137.040 303.598 L 133.455 305.859 138.385 306.417 C 146.886 307.378,159.800 302.080,172.521 292.413 C 174.380 291.000,176.589 289.844,177.431 289.844 C 179.236 289.844,194.066 304.334,194.877 306.891 C 196.503 312.014,183.327 327.729,167.852 339.123 C 165.855 340.594,163.270 342.500,162.107 343.359 C 144.994 356.013,124.467 361.214,113.672 355.631 C 106.527 351.935,105.082 350.754,100.818 345.121 C 96.151 338.957,96.057 338.633,99.530 340.682 C 101.684 341.953,114.565 346.047,116.527 346.084 C 116.809 346.089,116.857 344.738,116.635 343.081 C 116.306 340.630,116.566 339.756,118.028 338.393 L 119.826 336.719 117.140 336.672 C 115.662 336.646,110.869 336.665,106.489 336.714 C 77.099 337.046,71.626 294.706,96.539 259.737 C 102.186 251.811,102.772 251.523,103.876 256.126 C 105.903 264.573,105.390 267.485,100.066 277.734 C 94.991 287.506,94.749 288.702,96.491 295.426 C 96.929 297.117,96.515 298.034,94.216 300.472 C 82.432 312.965,103.266 327.817,123.201 321.135 C 129.173 319.133,129.488 318.561,125.533 316.904 C 121.732 315.311,111.191 306.611,109.075 303.319 C 107.426 300.754,107.084 284.558,108.548 278.320 C 108.713 277.615,110.983 278.401,113.295 279.965 C 117.004 282.473,126.563 287.678,126.563 287.189 C 126.563 286.972,124.967 284.511,123.016 281.720 C 121.065 278.930,118.050 273.552,116.316 269.769 C 114.581 265.986,112.175 260.781,110.968 258.203 C 107.283 250.328,101.842 233.918,98.146 219.531 C 96.214 212.012,93.775 202.520,92.725 198.438 C 91.676 194.355,90.583 189.258,90.296 187.109 C 89.176 178.711,85.603 163.693,84.348 162.109 C 83.747 161.351,82.047 154.629,79.210 141.797 C 77.056 132.054,77.546 127.236,82.031 114.063 C 82.397 112.988,83.458 109.473,84.389 106.250 C 89.772 87.618,96.527 76.194,100.625 78.793 M225.258 81.104 C 227.081 83.118,226.235 97.663,224.296 97.644 C 221.801 97.620,221.226 96.361,220.730 89.841 C 220.453 86.190,220.063 82.412,219.864 81.445 C 219.397 79.182,223.296 78.936,225.258 81.104 M205.327 90.039 C 204.425 92.725,203.524 95.449,203.325 96.094 C 203.013 97.106,200.912 90.880,200.816 88.658 C 200.777 87.755,204.587 85.209,206.023 85.177 C 206.686 85.162,206.478 86.615,205.327 90.039 M188.281 87.063 C 188.281 87.682,188.582 88.375,188.949 88.602 C 189.316 88.829,190.382 91.114,191.318 93.680 C 192.560 97.085,193.857 99.010,196.119 100.801 C 199.586 103.547,200.154 102.733,197.394 98.971 C 196.390 97.603,194.978 94.874,194.255 92.906 C 192.376 87.791,188.281 83.786,188.281 87.063 M109.519 125.000 C 109.437 131.551,110.096 134.498,113.270 141.797 C 114.017 143.516,115.056 146.240,115.578 147.852 C 116.665 151.206,118.218 151.587,120.357 149.023 C 121.821 147.269,121.823 147.274,121.801 152.344 C 121.767 160.200,120.083 168.059,118.900 165.881 C 118.394 164.948,117.533 163.717,116.987 163.147 C 114.876 160.938,113.156 157.570,111.651 152.698 C 110.789 149.909,108.880 144.814,107.409 141.376 C 104.940 135.608,104.792 134.817,105.492 131.128 C 105.909 128.929,106.254 125.333,106.259 123.136 C 106.263 120.938,106.500 117.734,106.785 116.016 L 107.303 112.891 108.452 115.625 C 109.189 117.378,109.571 120.743,109.519 125.000 M135.156 124.180 C 135.156 126.485,136.805 133.897,137.478 134.621 C 138.084 135.273,139.844 129.403,139.844 126.728 C 139.844 125.124,137.558 122.656,136.071 122.656 C 135.568 122.656,135.156 123.342,135.156 124.180 M141.112 130.890 C 140.096 133.537,140.651 135.775,142.646 137.082 C 145.345 138.850,145.608 138.351,144.314 133.913 C 143.158 129.950,141.921 128.782,141.112 130.890 M223.530 139.258 C 223.684 147.385,224.208 148.768,227.302 149.219 C 231.010 149.759,232.980 153.560,240.664 175.000 C 243.120 181.850,243.076 181.780,243.779 179.953 C 244.501 178.078,242.730 168.494,239.326 155.859 C 237.291 148.306,237.057 147.883,232.282 143.092 C 229.566 140.366,227.344 137.792,227.344 137.372 C 227.344 136.349,225.322 134.375,224.275 134.375 C 223.759 134.375,223.473 136.249,223.530 139.258 M192.599 167.092 C 192.322 168.353,192.564 170.465,193.150 171.900 L 194.194 174.459 195.563 172.369 C 196.846 170.412,196.851 170.107,195.643 167.562 C 194.074 164.255,193.250 164.128,192.599 167.092 M201.253 174.088 C 200.857 174.728,201.473 181.448,203.127 194.531 C 204.634 206.454,204.193 214.297,201.559 222.400 C 198.033 233.246,198.694 235.283,204.178 230.469 C 207.457 227.590,207.156 227.565,208.930 230.859 C 211.759 236.113,211.940 234.738,212.068 207.031 C 212.114 197.035,213.018 195.577,215.820 200.977 C 218.103 205.376,218.750 204.578,218.750 197.363 C 218.750 186.837,217.364 182.956,215.508 188.281 C 215.059 189.570,214.286 190.630,213.791 190.636 C 213.296 190.642,212.171 190.840,211.291 191.076 C 210.144 191.384,209.439 190.995,208.795 189.698 C 206.851 185.782,204.871 180.685,203.920 177.148 C 202.969 173.613,202.136 172.658,201.253 174.088 M190.262 179.634 C 189.429 181.244,189.223 183.042,189.566 185.689 C 190.251 190.960,191.131 192.412,191.843 189.442 C 192.151 188.159,192.680 186.754,193.018 186.319 C 193.710 185.429,194.052 182.691,193.872 179.492 C 193.710 176.631,191.776 176.707,190.262 179.634 M195.559 191.321 C 194.302 192.370,193.711 194.000,193.314 197.510 C 192.675 203.158,193.247 205.628,194.748 203.701 C 195.273 203.027,196.406 202.355,197.266 202.208 C 199.074 201.898,199.653 198.585,198.843 193.185 C 198.283 189.451,197.994 189.287,195.559 191.321 M188.363 217.842 C 184.897 223.243,185.114 225.070,189.474 227.188 C 193.743 229.262,195.778 228.214,193.040 225.352 C 192.614 224.906,192.621 222.794,193.058 220.072 C 194.223 212.810,192.206 211.852,188.363 217.842 M209.037 249.414 C 208.041 255.597,207.035 266.426,207.033 270.986 L 207.031 275.957 209.897 271.767 C 211.473 269.463,213.663 266.795,214.762 265.838 C 216.634 264.209,216.696 263.933,215.734 261.541 C 215.169 260.135,214.369 257.578,213.958 255.859 C 212.167 248.370,211.600 246.875,210.552 246.875 C 209.909 246.875,209.275 247.937,209.037 249.414 M168.906 308.102 C 163.851 313.366,163.060 315.181,165.537 315.828 C 167.086 316.234,167.017 316.613,163.860 325.000 C 162.498 328.618,161.869 331.250,162.366 331.250 C 163.275 331.250,173.175 320.839,173.696 319.336 C 174.019 318.404,174.994 317.969,176.761 317.969 C 178.820 317.969,180.147 317.178,183.230 314.113 C 187.335 310.034,188.146 308.047,185.547 308.439 C 184.688 308.569,182.283 308.880,180.204 309.131 L 176.425 309.587 176.689 306.551 C 177.121 301.580,174.707 302.061,168.906 308.102 M135.938 334.199 C 123.748 338.308,124.386 337.968,125.619 339.686 C 127.465 342.259,127.492 342.987,125.863 346.113 C 123.399 350.840,123.750 351.009,129.492 347.858 C 136.546 343.987,142.705 338.668,146.810 332.904 C 149.007 329.819,148.892 329.833,135.938 334.199 " stroke="none" fill="#000000" fill-rule="evenodd"></path></g></svg>