<svg id="svg" xmlns="http://www.w3.org/2000/svg" xmlns:xlink="http://www.w3.org/1999/xlink" width="400" height="400" viewBox="0, 0, 400,400"><g id="svgg"><path id="path0" d="M38.282 25.484 C 36.933 28.440,34.231 34.727,32.277 39.453 C 30.323 44.180,26.640 52.923,24.092 58.883 C 18.633 71.653,18.462 70.954,26.220 67.582 L 32.422 64.885 32.619 216.036 L 32.816 367.188 183.986 367.188 C 267.130 367.188,335.156 367.314,335.156 367.468 C 335.156 367.622,333.900 370.468,332.365 373.791 C 328.930 381.224,328.818 381.125,336.804 377.690 C 340.410 376.140,346.280 373.669,349.849 372.201 C 353.418 370.732,361.153 367.478,367.037 364.969 C 372.920 362.461,378.408 360.164,379.232 359.866 C 381.292 359.120,380.321 358.443,373.047 355.552 C 369.609 354.186,364.863 352.210,362.500 351.162 C 350.773 345.961,330.241 337.468,329.993 337.716 C 329.838 337.870,330.925 340.873,332.408 344.389 L 335.104 350.781 192.161 350.781 L 49.219 350.781 49.219 207.888 L 49.219 64.994 53.248 66.525 C 55.464 67.367,58.309 68.590,59.571 69.242 C 60.832 69.894,61.997 70.295,62.159 70.133 C 62.438 69.854,59.172 61.406,56.696 56.000 C 56.070 54.633,52.557 46.333,48.889 37.555 C 40.794 18.184,41.332 18.796,38.282 25.484 M180.815 56.167 C 124.588 71.445,134.107 153.432,192.188 154.114 C 232.708 154.589,256.544 110.055,233.816 76.337 C 222.471 59.507,199.999 50.955,180.815 56.167 M195.000 70.910 C 196.357 71.816,197.656 74.717,197.656 76.840 C 197.656 78.378,198.162 78.893,200.087 79.316 C 204.144 80.207,210.156 86.630,210.156 90.073 C 210.156 95.538,204.266 96.780,201.908 91.812 C 200.444 88.727,197.960 87.500,193.178 87.500 C 183.576 87.500,183.493 97.562,193.074 99.966 C 210.294 104.286,214.877 121.066,200.942 128.769 C 198.340 130.208,197.656 131.025,197.656 132.697 C 197.656 135.786,195.612 138.281,193.081 138.281 C 190.168 138.281,189.063 136.956,189.063 133.468 C 189.063 130.717,188.869 130.477,186.043 129.716 C 182.104 128.655,175.781 122.077,175.781 119.040 C 175.781 113.553,180.965 112.404,184.004 117.218 C 188.430 124.230,200.000 123.368,200.000 116.027 C 200.000 112.539,197.664 110.467,191.725 108.685 C 175.305 103.759,171.686 85.591,185.949 79.683 C 187.609 78.995,188.210 78.101,188.584 75.767 C 189.218 71.797,192.551 69.275,195.000 70.910 M303.516 106.597 C 290.606 110.438,278.802 113.870,268.359 116.820 C 250.229 121.942,251.280 120.464,259.766 128.906 C 263.418 132.540,266.406 135.801,266.406 136.153 C 266.406 136.795,252.341 151.656,216.322 189.071 L 197.098 209.041 189.205 200.810 C 184.864 196.282,175.188 186.250,167.702 178.516 L 154.092 164.453 148.842 164.453 L 143.591 164.453 136.054 172.284 C 131.908 176.591,120.430 188.713,110.547 199.221 C 100.664 209.730,88.634 222.462,83.813 227.515 C 78.992 232.569,74.471 237.820,73.765 239.184 C 70.787 244.944,74.359 252.440,80.771 253.886 C 86.801 255.246,87.341 254.811,113.048 227.901 C 126.271 214.059,139.758 199.968,143.019 196.586 L 148.949 190.438 159.494 201.274 C 165.293 207.233,174.952 217.164,180.957 223.342 C 191.834 234.532,191.891 234.576,195.907 234.962 C 201.975 235.545,196.064 241.131,264.731 169.922 C 274.261 160.039,282.357 151.852,282.722 151.727 C 283.087 151.603,286.484 154.503,290.271 158.173 C 294.058 161.842,297.359 164.844,297.607 164.844 C 297.855 164.844,299.722 158.076,301.756 149.805 C 303.790 141.533,307.050 128.267,308.999 120.324 C 313.421 102.305,313.901 103.507,303.516 106.597 M300.735 177.583 L 293.359 186.377 293.563 255.298 L 293.767 324.219 300.736 324.219 L 307.704 324.219 307.954 246.680 C 308.091 204.033,308.182 169.061,308.157 168.964 C 308.131 168.867,304.792 172.745,300.735 177.583 M262.109 209.375 C 257.829 213.672,253.956 217.188,253.504 217.188 C 253.051 217.188,250.847 219.044,248.606 221.314 L 244.531 225.440 244.531 274.829 L 244.531 324.219 257.422 324.219 L 270.313 324.219 270.313 262.891 C 270.313 229.160,270.218 201.563,270.103 201.563 C 269.987 201.563,266.390 205.078,262.109 209.375 M140.400 231.863 L 136.719 235.601 136.719 279.910 L 136.719 324.219 151.172 324.219 L 165.625 324.219 165.625 281.541 L 165.625 238.863 161.645 233.494 L 157.665 228.125 150.873 228.125 L 144.082 228.125 140.400 231.863 M210.163 251.220 C 206.085 253.986,202.501 256.250,202.197 256.250 C 201.894 256.250,199.547 257.480,196.981 258.984 C 194.415 260.488,191.408 261.719,190.298 261.719 L 188.281 261.719 188.281 292.969 L 188.281 324.219 203.516 324.219 L 218.750 324.219 218.750 285.156 C 218.750 263.672,218.486 246.115,218.164 246.142 C 217.842 246.168,214.241 248.453,210.163 251.220 M101.953 258.488 C 95.051 265.225,89.769 267.474,81.877 267.039 C 75.298 266.676,75.861 263.847,75.896 297.070 L 75.924 324.219 91.868 324.219 L 107.813 324.219 107.813 288.672 C 107.813 269.121,107.725 253.131,107.617 253.138 C 107.510 253.145,104.961 255.553,101.953 258.488 " stroke="none" fill="currentColor" fill-rule="evenodd"></path></g></svg>