<?xml version="1.0" standalone="no"?>
<!DOCTYPE svg PUBLIC "-//W3C//DTD SVG 20010904//EN"
 "http://www.w3.org/TR/2001/REC-SVG-20010904/DTD/svg10.dtd">
<svg version="1.0" xmlns="http://www.w3.org/2000/svg"
 width="769.000000pt" height="769.000000pt" viewBox="0 0 769.000000 769.000000"
 preserveAspectRatio="xMidYMid meet">

<g transform="translate(0.000000,769.000000) scale(0.100000,-0.100000)"
fill="currentColor" stroke="none">
<path d="M3595 7664 c-198 -19 -279 -29 -400 -49 -580 -99 -1145 -342 -1632
-701 -217 -160 -518 -449 -684 -654 -469 -581 -745 -1236 -841 -1990 -21 -167
-18 -730 5 -900 151 -1119 739 -2078 1652 -2699 507 -344 1049 -550 1675 -637
183 -25 646 -30 850 -9 917 94 1728 484 2366 1137 601 616 954 1352 1071 2233
25 188 25 695 0 890 -59 461 -191 896 -390 1285 -583 1143 -1696 1922 -2967
2075 -127 16 -607 28 -705 19z m685 -389 c1119 -153 2055 -786 2601 -1760 543
-971 578 -2165 93 -3173 -179 -372 -390 -669 -683 -962 -588 -586 -1328 -927
-2171 -1001 -168 -15 -529 -7 -700 16 -669 86 -1291 358 -1800 786 -134 113
-345 325 -452 455 -364 441 -623 994 -728 1551 -54 288 -73 639 -51 918 20
252 82 567 149 770 l27 79 420 83 c231 45 428 82 438 83 10 0 44 -22 75 -49
120 -103 274 -190 412 -233 108 -33 293 -31 476 6 138 28 391 97 510 140 l71
26 459 0 c285 0 473 4 496 10 56 16 119 69 147 125 21 39 26 63 25 115 -1 103
-49 176 -144 219 -43 20 -64 21 -482 21 l-438 0 0 50 0 50 695 0 695 0 0 -345
0 -345 -690 0 -690 0 0 -105 c0 -148 27 -206 115 -246 38 -18 81 -19 760 -19
677 0 722 2 760 19 51 23 91 70 105 121 7 26 10 228 8 597 l-3 558 -27 47
c-19 32 -41 52 -71 67 -40 19 -60 21 -264 21 l-220 0 -379 245 c-209 135 -397
259 -419 275 -57 42 -152 64 -239 55 -103 -10 -204 -45 -366 -130 -80 -41
-323 -166 -540 -277 l-395 -203 -185 1 c-169 0 -487 26 -534 43 -16 6 -12 15
35 72 89 108 318 336 439 438 225 189 449 333 725 467 397 192 748 287 1250
338 94 9 575 -4 685 -19z"/>
<path d="M2445 4086 c-37 -17 -80 -62 -94 -99 -7 -19 -11 -187 -11 -488 l0
-459 -275 0 c-251 0 -279 -2 -313 -19 -46 -23 -67 -46 -87 -94 -13 -31 -15
-116 -15 -604 0 -546 1 -568 20 -608 22 -45 57 -75 109 -93 26 -9 552 -12
2125 -12 2007 0 2093 1 2131 19 51 23 91 70 105 121 7 26 10 229 8 603 l-3
563 -27 41 c-16 24 -44 49 -70 62 -42 20 -60 21 -316 21 l-272 0 0 455 c0 387
-2 461 -15 492 -20 48 -41 71 -87 94 -36 18 -83 19 -1460 19 -1167 -1 -1428
-3 -1453 -14z m1265 -701 l0 -345 -500 0 -500 0 0 345 0 345 500 0 500 0 0
-345z m1380 0 l0 -345 -505 0 -505 0 0 345 0 345 505 0 505 0 0 -345z m-2060
-1060 l0 -345 -505 0 -505 0 0 345 0 345 505 0 505 0 0 -345z m1370 0 l0 -345
-502 2 -503 3 -3 343 -2 342 505 0 505 0 0 -345z m1380 0 l0 -345 -505 0 -505
0 0 345 0 345 505 0 505 0 0 -345z"/>
</g>
</svg>
