<svg id="svg" version="1.1" xmlns="http://www.w3.org/2000/svg" xmlns:xlink="http://www.w3.org/1999/xlink" width="400" height="400" viewBox="0, 0, 400,400"><g id="svgg"><path id="path0" d="M249.239 51.660 C 247.316 52.513,245.558 53.504,245.332 53.864 C 244.753 54.786,14.651 187.673,13.549 187.721 C 12.993 187.745,13.199 188.536,14.083 189.779 C 14.874 190.889,35.604 226.602,60.149 269.141 C 84.695 311.680,105.200 346.450,105.717 346.407 C 106.747 346.322,337.730 213.173,344.274 208.891 C 347.321 206.898,348.450 205.625,348.867 203.710 C 349.172 202.314,351.117 195.096,353.190 187.671 C 359.671 164.457,359.350 162.611,346.600 149.750 C 337.425 140.495,331.339 138.005,326.433 141.498 C 322.233 144.489,313.691 144.154,306.725 140.725 C 286.030 130.537,292.300 99.854,315.334 98.598 C 322.384 98.213,331.989 102.025,333.758 105.909 C 334.361 107.231,335.473 107.757,338.525 108.162 C 344.879 109.005,354.780 114.421,364.621 122.436 C 366.965 124.346,369.004 125.787,369.152 125.640 C 369.572 125.220,380.466 84.112,380.222 83.868 C 380.102 83.748,354.533 76.758,323.401 68.335 C 292.269 59.911,264.343 52.340,261.344 51.510 C 254.718 49.675,253.687 49.688,249.239 51.660 M315.463 112.115 C 315.337 112.227,313.379 112.538,311.111 112.807 C 304.126 113.635,302.567 115.429,303.489 121.576 C 304.387 127.569,306.584 129.272,311.971 128.154 C 355.236 119.172,390.059 186.439,365.057 230.696 C 358.986 241.443,347.232 252.282,340.402 253.431 C 339.880 253.519,338.750 253.978,337.891 254.452 C 330.447 258.557,315.704 257.216,304.607 251.425 L 298.622 248.302 292.475 251.556 C 285.881 255.046,283.117 256.845,283.651 257.299 C 287.559 260.620,299.381 267.430,303.569 268.772 C 316.284 272.846,339.390 271.291,346.680 265.871 C 348.076 264.832,349.219 264.191,349.219 264.446 C 349.219 265.101,356.043 261.080,359.750 258.241 C 367.456 252.338,374.716 243.461,378.948 234.766 C 380.411 231.758,381.812 229.121,382.060 228.906 C 383.261 227.865,387.500 212.627,387.500 209.350 C 387.500 208.453,387.764 207.879,388.086 208.073 C 390.015 209.234,389.520 181.206,387.494 174.609 C 387.099 173.320,386.605 171.387,386.396 170.313 C 386.068 168.617,385.763 167.290,384.873 163.672 C 384.767 163.242,384.084 161.766,383.356 160.390 C 382.627 159.015,382.031 157.541,382.031 157.114 C 382.031 151.998,363.920 129.946,354.688 123.821 C 352.754 122.538,350.996 121.273,350.781 121.010 C 347.518 117.007,318.259 109.638,315.463 112.115 M258.812 121.680 C 262.669 127.656,263.223 126.858,249.999 134.375 C 239.619 140.275,235.954 142.969,238.306 142.969 C 238.722 142.969,239.063 143.496,239.063 144.141 C 239.063 144.785,239.435 145.313,239.890 145.313 C 240.345 145.313,240.500 145.664,240.234 146.094 C 239.969 146.523,240.145 146.875,240.625 146.875 C 241.105 146.875,241.314 147.173,241.089 147.538 C 240.724 148.128,243.322 151.563,244.133 151.563 C 244.311 151.563,248.604 149.155,253.673 146.212 C 258.743 143.269,263.653 140.460,264.585 139.969 C 266.723 138.842,273.013 148.787,270.989 150.095 C 270.402 150.474,265.450 153.332,259.984 156.447 C 249.957 162.160,249.073 163.023,251.135 165.086 C 251.759 165.710,252.052 166.438,251.786 166.704 C 251.520 166.970,251.733 167.188,252.260 167.188 C 252.786 167.188,253.033 167.486,252.807 167.850 C 252.582 168.215,253.068 169.232,253.886 170.111 C 254.705 170.990,255.161 171.922,254.901 172.182 C 254.640 172.443,254.799 172.656,255.254 172.656 C 255.709 172.656,256.291 173.496,256.549 174.523 C 257.300 177.513,259.043 177.481,264.068 174.386 C 272.561 169.156,274.582 167.999,276.758 167.120 C 277.939 166.644,278.906 165.993,278.906 165.674 C 278.906 165.355,279.773 164.700,280.831 164.217 C 282.892 163.278,282.812 163.221,285.143 167.319 C 285.795 168.466,286.940 170.463,287.687 171.757 L 289.047 174.110 282.219 178.003 C 278.463 180.144,273.809 182.741,271.875 183.775 C 268.185 185.747,262.655 188.971,255.498 193.322 C 251.657 195.657,248.980 196.200,249.439 194.551 C 249.688 193.655,245.103 185.938,244.321 185.938 C 243.956 185.938,243.875 185.586,244.141 185.156 C 244.406 184.727,244.251 184.375,243.796 184.375 C 243.341 184.375,243.040 184.111,243.127 183.789 C 243.400 182.776,239.852 176.563,239.001 176.563 C 238.554 176.563,238.406 176.211,238.672 175.781 C 238.937 175.352,238.782 175.000,238.327 175.000 C 237.872 175.000,237.588 174.690,237.695 174.312 C 237.964 173.367,233.425 165.625,232.602 165.625 C 232.237 165.625,232.156 165.273,232.422 164.844 C 232.687 164.414,232.532 164.063,232.077 164.063 C 231.622 164.063,231.321 163.799,231.408 163.477 C 231.681 162.464,228.133 156.250,227.282 156.250 C 226.835 156.250,226.688 155.898,226.953 155.469 C 227.219 155.039,227.064 154.688,226.609 154.688 C 226.154 154.688,225.869 154.378,225.977 154.000 C 226.245 153.055,221.706 145.313,220.884 145.313 C 220.519 145.313,220.438 144.961,220.703 144.531 C 220.969 144.102,220.814 143.750,220.359 143.750 C 219.904 143.750,219.606 143.486,219.697 143.164 C 219.789 142.842,219.387 141.716,218.804 140.662 C 218.221 139.609,218.059 138.634,218.443 138.497 C 218.827 138.359,227.227 133.531,237.109 127.766 C 258.352 115.376,255.296 116.232,258.812 121.680 M210.407 150.186 C 213.732 156.106,214.591 154.878,202.163 161.961 C 187.628 170.245,188.595 169.101,191.802 174.219 C 193.282 176.582,194.617 178.859,194.767 179.278 C 194.917 179.697,200.071 177.138,206.221 173.591 C 212.371 170.044,217.478 167.240,217.569 167.360 C 218.462 168.533,223.448 177.582,223.275 177.716 C 223.149 177.813,218.301 180.626,212.500 183.967 C 200.043 191.141,201.034 190.377,202.053 192.028 C 202.505 192.760,203.758 194.941,204.837 196.875 C 209.638 205.478,209.650 205.490,211.760 204.271 C 212.812 203.664,214.777 202.641,216.127 201.998 C 219.915 200.196,228.395 195.138,229.548 193.994 C 230.116 193.430,231.083 192.969,231.696 192.969 C 232.310 192.969,232.813 192.617,232.813 192.188 C 232.813 190.141,234.560 191.873,237.128 196.466 C 240.433 202.376,240.419 202.421,234.123 205.586 C 231.469 206.920,227.539 209.151,225.391 210.543 C 223.242 211.936,217.175 215.571,211.908 218.622 L 202.332 224.169 200.531 221.264 C 197.290 216.038,170.412 169.171,169.966 167.969 C 169.594 166.965,205.005 145.409,207.155 145.331 C 207.438 145.321,208.902 147.505,210.407 150.186 M155.713 182.493 C 159.752 183.869,164.192 187.833,165.445 191.183 C 165.893 192.380,166.522 194.063,166.842 194.922 C 168.793 200.161,168.512 204.011,165.733 210.148 C 163.769 214.487,161.477 213.092,185.789 222.350 C 197.305 226.735,197.262 226.536,187.953 232.216 L 180.608 236.698 177.526 235.611 C 175.831 235.013,172.449 233.611,170.011 232.496 C 167.573 231.381,165.410 230.469,165.203 230.469 C 164.996 230.469,163.336 229.788,161.515 228.956 C 151.876 224.553,151.905 224.559,148.677 226.527 L 146.182 228.049 151.985 238.048 C 158.815 249.815,158.685 249.118,154.486 251.452 C 152.663 252.466,149.837 254.195,148.206 255.295 C 145.668 257.006,145.094 257.134,144.226 256.186 C 143.503 255.396,114.718 205.813,111.999 200.674 C 111.650 200.015,140.221 183.594,141.717 183.594 C 142.355 183.594,143.109 183.218,143.392 182.759 C 143.676 182.300,144.312 182.076,144.806 182.261 C 145.299 182.445,146.406 182.318,147.266 181.978 C 149.691 181.019,151.756 181.144,155.713 182.493 M139.063 198.087 C 137.129 199.119,135.122 200.324,134.603 200.763 C 134.084 201.203,133.293 201.563,132.845 201.563 C 131.360 201.563,131.993 203.319,136.129 210.670 C 140.734 218.855,140.560 218.793,146.956 214.545 C 149.257 213.017,151.277 210.828,152.379 208.670 L 154.134 205.231 152.263 201.798 C 148.960 195.741,145.355 194.727,139.063 198.087 M106.603 209.417 C 108.128 212.018,109.375 214.452,109.375 214.827 C 109.375 215.201,104.365 218.403,98.242 221.942 C 84.850 229.683,85.417 228.924,88.685 234.723 C 92.107 240.796,91.182 240.841,103.222 234.017 C 115.291 227.176,114.245 227.226,117.674 233.331 L 120.350 238.094 109.844 244.110 C 104.065 247.419,99.176 250.548,98.978 251.063 C 98.780 251.578,101.713 257.331,105.495 263.848 C 110.440 272.367,112.116 275.896,111.459 276.408 C 110.958 276.799,107.946 278.622,104.768 280.458 L 98.988 283.797 97.602 281.960 C 96.840 280.949,96.385 279.848,96.592 279.514 C 96.798 279.180,96.574 278.906,96.094 278.906 C 95.613 278.906,95.438 278.555,95.703 278.125 C 95.969 277.695,95.878 277.344,95.502 277.344 C 94.714 277.344,90.959 270.996,91.227 270.117 C 91.326 269.795,91.034 269.531,90.579 269.531 C 90.124 269.531,89.969 269.180,90.234 268.750 C 90.500 268.320,90.401 267.969,90.014 267.969 C 89.221 267.969,84.706 260.087,84.980 259.180 C 85.077 258.857,84.784 258.594,84.329 258.594 C 83.874 258.594,83.719 258.242,83.984 257.813 C 84.250 257.383,84.102 257.031,83.656 257.031 C 82.805 257.031,79.257 250.817,79.530 249.805 C 79.616 249.482,79.277 249.219,78.776 249.219 C 78.275 249.219,78.078 249.006,78.338 248.745 C 78.599 248.484,78.128 247.537,77.292 246.640 C 76.456 245.743,75.352 243.846,74.839 242.426 C 74.325 241.006,73.603 239.844,73.234 239.844 C 72.866 239.844,72.781 239.492,73.047 239.063 C 73.312 238.633,73.213 238.281,72.827 238.281 C 72.034 238.281,67.518 230.399,67.792 229.492 C 67.889 229.170,67.596 228.906,67.141 228.906 C 66.686 228.906,66.513 228.585,66.756 228.192 C 66.999 227.799,66.804 227.346,66.323 227.186 C 65.718 226.984,101.538 205.458,103.674 204.741 C 103.760 204.711,105.079 206.816,106.603 209.417 " stroke="none" fill="currentColor" fill-rule="evenodd"></path></g></svg>