<svg id="svg" xmlns="http://www.w3.org/2000/svg" xmlns:xlink="http://www.w3.org/1999/xlink" width="400" height="366.301600673968" viewBox="0, 0, 400,366.301600673968"><g id="svgg"><path id="path0" d="M111.710 0.663 C 100.902 3.001,94.835 16.701,100.930 25.009 C 105.816 31.670,112.669 33.328,122.153 30.143 C 127.445 28.366,128.199 28.381,130.778 30.319 C 133.264 32.186,135.841 35.648,138.293 40.412 C 144.821 53.096,144.026 62.089,134.223 86.436 C 132.283 91.255,126.833 105.586,122.112 118.281 C 114.481 138.803,113.412 141.458,112.480 142.207 C 107.604 146.125,106.329 148.354,104.962 155.350 C 101.521 172.952,93.495 183.377,82.730 184.228 C 71.654 185.103,62.515 174.185,57.767 154.406 C 56.547 149.323,55.866 147.641,54.302 145.839 C 50.299 141.228,48.447 136.704,36.022 101.180 C 21.719 60.288,20.525 55.229,23.120 46.484 C 24.975 40.231,31.536 31.770,36.364 29.405 L 38.186 28.512 40.070 29.227 C 41.107 29.621,42.934 30.351,44.131 30.851 C 57.026 36.236,71.356 23.875,67.047 11.083 C 63.881 1.685,54.825 -1.186,42.841 3.410 C 40.871 4.165,37.057 5.507,34.367 6.392 C 13.858 13.137,1.286 30.438,0.445 53.075 C 0.010 64.767,-0.093 64.389,20.103 125.129 C 28.159 149.358,28.365 150.044,28.004 151.479 C 26.611 157.010,29.925 169.918,35.876 182.140 C 43.506 197.809,54.495 208.295,67.188 212.019 C 70.358 212.949,70.234 212.723,70.753 218.534 C 78.815 308.791,164.118 376.465,255.265 364.915 C 378.083 349.350,441.058 208.964,370.851 107.247 C 368.778 104.243,369.111 104.190,366.590 107.919 C 363.697 112.197,356.372 119.487,352.148 122.293 C 350.388 123.462,348.893 124.469,348.827 124.531 C 348.761 124.593,349.998 126.752,351.575 129.330 C 385.679 185.061,377.029 254.266,330.288 299.652 C 272.991 355.287,180.209 350.221,129.309 288.678 C 111.710 267.399,99.828 239.064,98.597 215.437 L 98.383 211.329 101.273 209.975 C 115.810 203.163,126.854 188.980,132.267 170.175 C 134.243 163.309,135.159 158.288,135.122 154.527 L 135.089 151.137 137.932 142.713 C 139.496 138.079,144.114 124.810,148.194 113.227 C 164.818 66.034,164.612 66.785,164.608 53.412 C 164.600 30.102,155.684 18.961,124.478 3.266 C 119.788 0.907,115.050 -0.059,111.710 0.663 M311.542 32.221 C 277.673 38.296,264.160 79.820,288.022 104.491 C 313.778 131.121,358.672 115.189,361.930 78.262 C 364.398 50.285,339.198 27.260,311.542 32.221 M199.170 144.798 C 197.973 144.876,196.836 145.066,196.643 145.220 C 196.451 145.375,195.345 145.610,194.187 145.741 C 193.029 145.873,192.081 146.100,192.081 146.246 C 192.081 146.392,191.398 146.614,190.564 146.739 C 189.730 146.864,189.048 147.109,189.048 147.283 C 189.048 147.457,188.783 147.604,188.458 147.610 C 188.134 147.617,187.262 147.915,186.521 148.273 C 185.779 148.631,185.073 148.929,184.952 148.935 C 184.599 148.954,178.816 152.403,178.325 152.888 C 178.080 153.130,177.777 153.328,177.651 153.329 C 177.525 153.330,176.436 154.235,175.232 155.342 C 174.027 156.448,172.844 157.284,172.603 157.198 C 172.361 157.112,172.257 157.193,172.371 157.378 C 172.485 157.562,171.578 158.887,170.355 160.322 C 167.710 163.426,167.838 163.258,166.814 164.954 C 166.366 165.695,165.916 166.377,165.814 166.470 C 165.711 166.563,165.309 167.321,164.920 168.155 C 164.531 168.989,163.886 170.370,163.488 171.225 C 163.089 172.079,162.763 173.027,162.763 173.331 C 162.763 173.635,162.626 173.884,162.458 173.884 C 162.290 173.884,162.048 174.642,161.921 175.569 C 161.793 176.495,161.571 177.254,161.428 177.254 C 160.960 177.254,160.404 183.084,160.404 187.995 C 160.404 192.837,160.983 199.158,161.426 199.158 C 161.558 199.158,161.760 199.744,161.875 200.461 C 161.989 201.178,162.311 202.201,162.590 202.736 C 162.868 203.270,163.097 203.963,163.098 204.277 C 163.099 204.590,163.240 204.933,163.411 205.039 C 163.582 205.144,163.822 205.684,163.944 206.238 C 164.065 206.792,164.304 207.245,164.475 207.245 C 164.646 207.245,164.761 207.359,164.732 207.498 C 164.416 208.988,163.540 208.939,190.349 208.923 L 215.501 208.907 216.007 211.699 C 216.285 213.234,216.615 214.647,216.740 214.839 C 216.865 215.031,217.074 216.130,217.205 217.282 C 217.335 218.434,217.574 219.377,217.735 219.377 C 217.897 219.377,218.029 219.907,218.029 220.556 C 218.029 221.205,218.150 221.735,218.298 221.735 C 218.886 221.735,219.377 220.871,219.377 219.835 C 219.377 219.234,219.510 218.660,219.674 218.559 C 219.837 218.458,220.077 217.387,220.206 216.180 C 220.335 214.973,220.565 213.985,220.717 213.985 C 220.869 213.985,221.100 212.923,221.230 211.626 C 221.360 210.329,221.585 209.267,221.730 209.267 C 221.875 209.267,222.102 208.243,222.235 206.992 C 222.367 205.741,222.594 204.566,222.740 204.381 C 222.885 204.195,223.191 202.679,223.420 201.011 C 223.650 199.343,223.954 197.826,224.097 197.641 C 224.239 197.456,224.464 196.356,224.595 195.197 C 224.727 194.039,224.959 193.013,225.112 192.919 C 225.265 192.825,225.495 191.764,225.624 190.561 C 225.752 189.358,225.979 188.374,226.127 188.374 C 226.275 188.374,226.502 187.237,226.633 185.847 C 226.763 184.457,226.985 183.319,227.127 183.319 C 227.268 183.319,227.492 181.879,227.624 180.118 C 227.756 178.357,227.987 176.917,228.138 176.917 C 228.289 176.917,228.520 175.476,228.652 173.715 C 228.784 171.955,229.015 170.514,229.166 170.514 C 229.316 170.514,229.505 170.173,229.585 169.756 C 229.713 169.092,229.737 169.110,229.777 169.904 C 229.802 170.403,229.958 170.894,230.123 170.996 C 230.288 171.098,230.619 172.169,230.859 173.375 C 231.098 174.582,231.404 175.569,231.538 175.569 C 231.672 175.569,231.886 176.327,232.013 177.254 C 232.141 178.180,232.373 178.939,232.530 178.939 C 232.687 178.939,232.917 179.621,233.042 180.455 C 233.167 181.289,233.390 181.971,233.537 181.971 C 233.683 181.971,233.908 182.730,234.035 183.656 C 234.163 184.583,234.387 185.341,234.534 185.341 C 234.681 185.341,234.903 186.020,235.028 186.850 C 235.152 187.679,235.388 188.441,235.552 188.543 C 235.716 188.644,235.952 189.407,236.077 190.239 C 236.201 191.071,236.429 191.830,236.582 191.924 C 236.735 192.019,236.963 192.777,237.088 193.609 C 237.212 194.441,237.432 195.195,237.575 195.283 C 237.719 195.372,238.033 196.432,238.272 197.638 C 238.512 198.844,238.818 199.832,238.952 199.832 C 239.086 199.832,239.300 200.590,239.427 201.516 C 239.555 202.443,239.787 203.201,239.944 203.201 C 240.100 203.201,240.331 203.884,240.456 204.718 C 240.581 205.552,240.803 206.234,240.950 206.234 C 241.097 206.234,241.322 206.992,241.449 207.919 C 241.576 208.846,241.801 209.604,241.948 209.604 C 242.095 209.604,242.317 210.283,242.441 211.113 C 242.566 211.942,242.797 212.701,242.956 212.799 C 243.114 212.897,243.350 213.621,243.480 214.408 C 243.609 215.195,243.833 215.990,243.976 216.175 C 244.119 216.361,244.341 217.005,244.470 217.607 C 244.700 218.684,245.661 219.176,245.661 218.218 C 245.661 217.951,246.191 216.700,246.839 215.437 C 247.487 214.175,248.018 212.953,248.019 212.721 C 248.019 212.489,248.172 212.300,248.357 212.300 C 248.543 212.300,248.694 212.072,248.694 211.793 C 248.694 211.515,248.997 210.721,249.368 210.029 C 249.739 209.337,250.042 208.580,250.042 208.345 C 250.042 208.111,250.182 207.919,250.352 207.919 C 250.523 207.919,250.762 207.464,250.885 206.908 C 251.007 206.352,251.246 205.897,251.417 205.897 C 251.587 205.897,251.727 205.755,251.727 205.582 C 251.727 205.409,251.904 204.840,252.120 204.318 C 252.336 203.797,252.530 203.294,252.550 203.201 C 252.571 203.109,253.000 202.170,253.505 201.116 C 254.010 200.062,254.423 199.038,254.423 198.841 C 254.423 198.645,254.575 198.484,254.760 198.484 C 254.945 198.484,255.100 198.294,255.103 198.062 C 255.106 197.831,255.700 196.428,256.422 194.945 C 257.699 192.324,258.467 192.132,258.467 194.434 C 258.467 194.591,258.580 194.771,258.719 194.833 C 258.858 194.895,259.409 195.820,259.943 196.890 C 260.477 197.960,261.034 198.909,261.180 199.000 C 261.327 199.091,261.547 199.618,261.669 200.172 C 261.791 200.726,262.018 201.179,262.174 201.179 C 262.329 201.179,262.557 201.634,262.679 202.190 C 262.801 202.746,263.030 203.201,263.189 203.201 C 263.347 203.201,263.583 203.543,263.713 203.960 C 263.843 204.377,264.044 204.794,264.160 204.886 C 264.276 204.979,264.804 205.927,265.334 206.992 L 266.298 208.930 285.093 208.930 C 305.009 208.930,304.659 208.956,304.350 207.498 C 304.321 207.359,304.436 207.245,304.607 207.245 C 304.777 207.245,305.017 206.792,305.138 206.238 C 305.260 205.684,305.499 205.144,305.670 205.039 C 305.841 204.933,305.982 204.590,305.984 204.277 C 305.985 203.963,306.214 203.270,306.492 202.736 C 306.771 202.201,307.092 201.178,307.207 200.461 C 307.322 199.744,307.523 199.158,307.655 199.158 C 308.099 199.158,308.677 192.837,308.677 187.995 C 308.677 183.084,308.122 177.254,307.654 177.254 C 307.510 177.254,307.288 176.495,307.161 175.569 C 307.033 174.642,306.808 173.884,306.660 173.884 C 306.512 173.884,306.294 173.467,306.175 172.957 C 306.056 172.447,305.750 171.575,305.495 171.019 C 304.121 168.022,303.435 166.621,303.268 166.470 C 303.165 166.377,302.715 165.695,302.268 164.954 C 301.243 163.258,301.372 163.426,298.727 160.322 C 297.504 158.887,296.597 157.562,296.711 157.378 C 296.825 157.193,296.720 157.112,296.479 157.198 C 296.238 157.284,295.055 156.448,293.850 155.342 C 292.645 154.235,291.557 153.330,291.431 153.329 C 291.305 153.328,291.002 153.130,290.757 152.888 C 290.266 152.403,284.483 148.954,284.130 148.935 C 284.008 148.929,283.302 148.631,282.561 148.273 C 281.820 147.915,280.948 147.617,280.623 147.610 C 280.299 147.604,280.034 147.457,280.034 147.283 C 280.034 147.109,279.351 146.864,278.517 146.739 C 277.683 146.614,277.001 146.389,277.001 146.240 C 277.001 146.090,275.977 145.860,274.726 145.728 C 273.475 145.596,272.348 145.326,272.222 145.128 C 271.908 144.637,258.496 144.650,258.186 145.141 C 258.062 145.336,257.013 145.605,255.855 145.738 C 254.697 145.871,253.749 146.098,253.749 146.241 C 253.749 146.385,253.162 146.596,252.446 146.710 C 251.729 146.825,250.705 147.147,250.171 147.425 C 249.637 147.704,248.934 147.933,248.610 147.934 C 248.286 147.935,248.020 148.088,248.020 148.273 C 248.020 148.458,247.859 148.610,247.662 148.610 C 247.466 148.610,246.518 149.002,245.556 149.481 C 242.496 151.007,241.306 151.723,240.421 152.570 C 240.179 152.801,239.826 152.991,239.636 152.991 C 239.447 152.991,239.171 153.194,239.023 153.442 C 238.874 153.690,238.492 154.035,238.173 154.208 C 237.855 154.381,236.904 155.180,236.062 155.982 L 234.531 157.442 232.935 155.888 C 232.058 155.033,231.074 154.249,230.750 154.145 C 230.425 154.041,230.160 153.827,230.160 153.669 C 230.160 153.512,229.591 153.037,228.896 152.615 C 228.201 152.192,227.554 151.735,227.457 151.597 C 227.361 151.460,226.906 151.181,226.446 150.976 C 225.987 150.772,224.777 150.159,223.757 149.613 C 222.738 149.068,221.714 148.619,221.483 148.616 C 221.251 148.612,221.061 148.458,221.061 148.273 C 221.061 148.088,220.796 147.935,220.472 147.934 C 220.147 147.933,219.445 147.704,218.911 147.425 C 218.377 147.147,217.353 146.825,216.636 146.710 C 215.919 146.596,215.333 146.385,215.333 146.241 C 215.333 146.098,214.385 145.871,213.227 145.738 C 212.068 145.605,211.045 145.378,210.952 145.235 C 210.748 144.918,202.210 144.602,199.170 144.798 M230.497 199.643 C 230.497 200.281,230.363 200.885,230.200 200.986 C 230.036 201.087,229.797 202.156,229.668 203.362 C 229.539 204.567,229.311 205.628,229.162 205.720 C 229.014 205.813,228.786 206.874,228.657 208.079 C 228.528 209.285,228.300 210.346,228.151 210.438 C 228.003 210.530,227.775 211.593,227.646 212.801 C 227.516 214.008,227.286 214.996,227.135 214.996 C 226.983 214.996,226.752 216.057,226.622 217.355 C 226.491 218.652,226.264 219.714,226.116 219.714 C 225.969 219.714,225.741 220.775,225.611 222.072 C 225.480 223.370,225.255 224.431,225.110 224.431 C 224.965 224.431,224.738 225.455,224.604 226.706 C 224.471 227.957,224.256 229.056,224.127 229.149 C 223.915 229.301,223.424 231.806,222.330 238.332 C 222.120 239.583,221.839 240.607,221.706 240.607 C 221.573 240.607,221.359 241.517,221.230 242.629 C 221.101 243.741,220.873 244.727,220.725 244.819 C 220.576 244.911,220.348 245.896,220.219 247.009 C 220.090 248.121,219.865 249.031,219.719 249.031 C 219.574 249.031,219.346 249.899,219.213 250.960 C 218.890 253.550,218.029 254.897,218.029 252.813 C 218.029 252.030,217.897 251.390,217.735 251.390 C 217.574 251.390,217.335 250.450,217.205 249.300 C 217.075 248.151,216.834 246.958,216.668 246.649 C 216.503 246.340,216.184 244.703,215.958 243.010 C 215.733 241.318,215.439 239.933,215.306 239.933 C 215.173 239.933,214.958 238.871,214.827 237.574 C 214.697 236.276,214.470 235.215,214.322 235.215 C 214.174 235.215,213.947 234.153,213.816 232.856 C 213.686 231.559,213.459 230.497,213.311 230.497 C 213.163 230.497,212.936 229.436,212.805 228.138 C 212.675 226.841,212.444 225.779,212.293 225.779 C 212.141 225.779,211.911 224.791,211.782 223.584 C 211.652 222.377,211.425 221.314,211.276 221.222 C 211.127 221.130,210.903 220.106,210.779 218.947 C 210.395 215.361,212.504 215.698,189.828 215.593 C 170.630 215.504,169.953 215.523,170.110 216.124 C 170.200 216.467,172.008 218.547,174.128 220.746 C 176.536 223.244,177.889 224.894,177.734 225.145 C 177.571 225.410,177.631 225.457,177.912 225.284 C 178.434 224.960,185.427 231.809,185.194 232.416 C 185.109 232.639,185.221 232.751,185.445 232.666 C 185.966 232.466,191.896 238.402,191.621 238.848 C 191.507 239.032,191.678 239.162,192.000 239.136 C 192.356 239.108,192.570 239.311,192.544 239.653 C 192.521 239.963,192.673 240.150,192.883 240.070 C 193.415 239.866,200.307 246.849,200.025 247.306 C 199.891 247.523,199.979 247.606,200.237 247.507 C 200.812 247.286,207.742 254.228,207.438 254.720 C 207.305 254.936,207.392 255.019,207.651 254.920 C 208.284 254.677,215.154 261.645,214.817 262.189 C 214.639 262.479,214.691 262.531,214.980 262.352 C 215.524 262.016,222.492 268.886,222.249 269.519 C 222.150 269.777,222.233 269.865,222.449 269.731 C 222.920 269.440,229.887 276.349,229.676 276.898 C 229.590 277.122,229.711 277.230,229.946 277.140 C 230.180 277.050,231.245 277.892,232.312 279.011 C 234.634 281.445,234.509 281.429,236.275 279.514 C 237.051 278.672,237.870 278.053,238.094 278.139 C 238.320 278.226,238.482 278.045,238.459 277.732 C 238.434 277.407,238.646 277.186,238.961 277.209 C 239.268 277.231,239.489 277.010,239.466 276.703 C 239.444 276.388,239.665 276.176,239.990 276.201 C 240.300 276.224,240.487 276.071,240.406 275.860 C 240.213 275.356,245.156 270.455,245.589 270.722 C 245.772 270.835,245.901 270.664,245.876 270.342 C 245.849 269.994,246.051 269.772,246.375 269.795 C 246.682 269.817,246.902 269.597,246.880 269.290 C 246.857 268.975,247.079 268.763,247.404 268.787 C 247.714 268.810,247.901 268.657,247.820 268.447 C 247.627 267.943,252.570 263.041,253.002 263.308 C 253.186 263.421,253.315 263.250,253.290 262.928 C 253.262 262.580,253.465 262.358,253.788 262.381 C 254.096 262.404,254.316 262.183,254.294 261.876 C 254.270 261.552,254.493 261.350,254.841 261.377 C 255.163 261.403,255.334 261.273,255.220 261.090 C 254.953 260.658,259.855 255.714,260.359 255.908 C 260.570 255.988,260.723 255.801,260.699 255.491 C 260.675 255.166,260.887 254.945,261.202 254.968 C 261.509 254.990,261.730 254.770,261.707 254.462 C 261.685 254.148,261.906 253.935,262.231 253.960 C 262.541 253.983,262.728 253.830,262.647 253.619 C 262.454 253.115,267.397 248.214,267.830 248.481 C 268.013 248.594,268.142 248.423,268.117 248.101 C 268.090 247.753,268.292 247.531,268.616 247.554 C 268.923 247.576,269.143 247.356,269.121 247.049 C 269.098 246.725,269.320 246.523,269.668 246.550 C 269.990 246.575,270.161 246.446,270.048 246.263 C 269.781 245.830,274.682 240.887,275.186 241.080 C 275.397 241.161,275.550 240.974,275.527 240.664 C 275.501 240.322,275.715 240.119,276.071 240.147 C 276.393 240.173,276.564 240.043,276.450 239.859 C 276.183 239.427,282.097 233.474,282.601 233.667 C 282.811 233.748,282.964 233.560,282.940 233.251 C 282.916 232.925,283.128 232.704,283.443 232.727 C 283.750 232.749,283.971 232.529,283.948 232.221 C 283.926 231.907,284.147 231.694,284.472 231.719 C 284.782 231.742,284.969 231.589,284.888 231.378 C 284.695 230.874,289.638 225.973,290.070 226.240 C 290.254 226.353,290.383 226.182,290.358 225.860 C 290.330 225.512,290.533 225.290,290.857 225.313 C 291.164 225.335,291.384 225.115,291.362 224.808 C 291.339 224.484,291.561 224.282,291.909 224.309 C 292.231 224.334,292.409 224.216,292.304 224.046 C 292.199 223.876,293.621 222.158,295.465 220.227 C 300.504 214.949,302.225 215.501,280.738 215.501 L 262.342 215.501 261.331 213.479 C 260.775 212.367,260.205 211.407,260.065 211.344 C 259.925 211.282,259.896 211.093,260.001 210.923 C 260.106 210.754,260.047 210.615,259.871 210.615 C 259.695 210.615,259.451 210.218,259.329 209.732 C 258.884 207.957,257.609 207.360,257.257 208.762 C 257.141 209.225,256.927 209.604,256.783 209.604 C 256.638 209.604,256.420 210.135,256.299 210.783 C 256.177 211.432,255.945 211.963,255.782 211.963 C 255.620 211.963,255.387 212.418,255.265 212.974 C 255.143 213.530,254.904 213.985,254.733 213.985 C 254.563 213.985,254.423 214.164,254.423 214.384 C 254.423 214.806,253.759 216.331,251.869 220.250 C 251.235 221.564,250.716 222.815,250.716 223.030 C 250.716 223.245,250.564 223.420,250.379 223.420 C 250.194 223.420,250.037 223.610,250.031 223.842 C 250.024 224.073,249.726 224.869,249.368 225.611 C 249.010 226.352,248.712 227.148,248.706 227.380 C 248.699 227.612,248.555 227.801,248.384 227.801 C 248.213 227.801,247.974 228.256,247.852 228.812 C 247.730 229.368,247.514 229.823,247.373 229.823 C 247.232 229.823,246.937 230.392,246.718 231.087 C 246.499 231.782,245.732 233.564,245.012 235.046 L 243.704 237.742 243.460 236.310 C 243.326 235.522,243.093 234.878,242.943 234.878 C 242.793 234.878,242.567 234.195,242.442 233.361 C 242.317 232.527,242.094 231.845,241.946 231.845 C 241.798 231.845,241.574 231.239,241.449 230.499 C 241.324 229.758,241.101 229.078,240.953 228.987 C 240.805 228.895,240.582 228.140,240.457 227.308 C 240.333 226.476,240.101 225.715,239.942 225.617 C 239.784 225.519,239.548 224.795,239.418 224.008 C 239.289 223.222,239.068 222.426,238.928 222.241 C 238.788 222.056,238.482 221.070,238.248 220.051 C 238.014 219.031,237.697 218.038,237.544 217.843 C 237.391 217.649,237.164 216.853,237.040 216.074 C 236.915 215.296,236.699 214.659,236.558 214.659 C 236.417 214.659,236.201 213.980,236.076 213.150 C 235.952 212.321,235.716 211.559,235.552 211.457 C 235.388 211.356,235.152 210.594,235.028 209.765 C 234.903 208.935,234.676 208.256,234.523 208.256 C 234.370 208.256,234.143 207.572,234.017 206.736 C 233.892 205.899,233.668 205.140,233.520 205.049 C 233.373 204.957,233.149 204.278,233.024 203.538 C 232.900 202.799,232.663 202.111,232.499 202.010 C 232.336 201.909,232.102 201.074,231.980 200.155 C 231.701 198.053,230.497 197.638,230.497 199.643 " stroke="none" fill="currentColor" fill-rule="evenodd"></path></g></svg>