<svg id="svg" xmlns="http://www.w3.org/2000/svg" xmlns:xlink="http://www.w3.org/1999/xlink" width="400" height="400" viewBox="0, 0, 400,400"><g id="svgg"><path id="path0" d="M193.526 12.274 C 193.331 12.613,193.214 31.135,193.266 53.433 L 193.359 93.976 196.484 94.146 C 198.203 94.239,201.227 94.150,203.205 93.948 L 206.801 93.579 206.721 52.844 L 206.641 12.109 200.260 11.884 C 196.751 11.759,193.721 11.935,193.526 12.274 M75.630 21.649 C 73.342 21.998,67.188 27.641,67.188 29.389 C 67.188 30.735,65.895 30.808,65.352 29.492 C 65.131 28.955,65.153 29.698,65.403 31.144 C 65.828 33.609,65.740 33.743,63.983 33.300 C 62.952 33.040,62.549 33.029,63.086 33.275 C 63.623 33.522,64.061 34.837,64.058 36.198 L 64.054 38.672 60.452 34.868 C 57.736 31.999,57.107 30.905,57.894 30.418 C 58.469 30.063,58.667 29.500,58.333 29.167 C 58.000 28.833,57.368 29.078,56.929 29.710 C 56.325 30.580,56.035 30.622,55.735 29.883 C 55.517 29.346,54.302 28.906,53.035 28.906 C 51.709 28.906,50.542 28.409,50.283 27.734 C 49.600 25.957,29.852 26.006,29.169 27.787 C 28.910 28.460,29.097 29.410,29.584 29.896 C 30.701 31.013,30.741 33.594,29.641 33.594 C 29.186 33.594,29.055 33.983,29.348 34.458 C 29.725 35.067,30.067 35.024,30.507 34.313 C 31.267 33.084,33.594 34.667,33.594 36.413 C 33.594 36.999,34.912 38.710,36.523 40.214 C 38.969 42.498,39.260 43.080,38.281 43.739 C 37.429 44.313,37.803 44.396,39.648 44.042 C 42.130 43.566,43.301 44.723,41.211 45.585 C 40.674 45.807,41.334 45.801,42.679 45.572 C 44.064 45.335,45.353 45.528,45.654 46.015 C 45.958 46.506,48.488 46.875,51.544 46.875 C 55.018 46.875,57.011 47.205,57.214 47.813 C 57.457 48.543,57.655 48.543,58.106 47.813 C 58.425 47.297,58.314 46.875,57.859 46.875 C 57.404 46.875,57.031 46.523,57.031 46.094 C 57.031 45.664,57.697 45.313,58.510 45.313 C 59.324 45.313,60.200 44.763,60.458 44.091 C 61.489 41.405,62.500 44.160,62.500 49.655 C 62.500 54.302,62.265 55.469,61.328 55.469 C 60.684 55.469,60.156 55.117,60.156 54.688 C 60.156 54.258,58.750 53.906,57.031 53.906 C 55.313 53.906,53.906 53.555,53.906 53.125 C 53.906 52.665,51.172 52.344,47.266 52.344 C 43.359 52.344,40.625 52.665,40.625 53.125 C 40.625 53.555,39.570 53.906,38.281 53.906 C 36.992 53.906,35.938 54.258,35.938 54.688 C 35.938 55.820,32.244 55.649,31.713 54.492 C 31.466 53.955,31.461 54.307,31.700 55.273 C 31.948 56.271,31.776 57.031,31.303 57.031 C 30.844 57.031,30.469 56.659,30.469 56.204 C 30.469 55.749,30.080 55.617,29.604 55.911 C 29.001 56.284,29.057 56.641,29.790 57.095 C 30.600 57.595,30.261 58.343,28.311 60.355 C 26.920 61.790,25.781 63.564,25.781 64.295 C 25.781 65.027,25.213 65.625,24.518 65.625 C 23.640 65.625,23.380 66.101,23.664 67.188 C 24.102 68.865,22.246 69.473,21.699 67.831 C 21.531 67.326,21.542 69.260,21.725 72.128 C 21.949 75.646,21.773 77.344,21.185 77.344 C 20.639 77.344,20.313 79.101,20.313 82.031 C 20.313 84.961,20.639 86.719,21.185 86.719 C 21.773 86.719,21.949 88.417,21.725 91.934 C 21.542 94.803,21.531 96.736,21.699 96.231 C 21.867 95.726,22.495 95.312,23.093 95.313 C 23.945 95.313,24.011 95.758,23.396 97.374 C 22.965 98.508,22.798 99.621,23.025 99.848 C 23.252 100.075,23.437 99.850,23.437 99.349 C 23.437 98.848,23.965 98.438,24.609 98.438 C 25.260 98.438,25.781 99.132,25.781 100.000 C 25.781 100.859,26.133 101.563,26.563 101.563 C 27.695 101.563,27.524 105.256,26.367 105.787 C 25.830 106.034,26.182 106.039,27.148 105.800 C 28.378 105.495,28.906 105.712,28.906 106.523 C 28.906 107.161,29.346 107.841,29.883 108.036 C 30.663 108.318,30.662 108.724,29.876 110.054 C 29.335 110.970,29.218 111.719,29.616 111.719 C 30.013 111.719,30.484 111.282,30.662 110.749 C 31.024 109.661,33.594 111.777,33.594 113.164 C 33.594 113.590,35.234 115.580,37.240 117.585 C 40.059 120.405,40.640 121.383,39.801 121.901 C 39.205 122.270,38.990 122.844,39.323 123.177 C 39.656 123.510,40.232 123.293,40.602 122.694 C 41.128 121.842,41.897 122.246,44.134 124.550 C 46.091 126.565,47.469 127.371,48.496 127.102 C 50.187 126.660,51.450 128.010,50.116 128.834 C 49.641 129.128,51.617 129.222,54.509 129.043 C 57.663 128.848,59.999 128.316,60.350 127.713 C 60.681 127.144,61.647 126.894,62.578 127.138 C 63.542 127.390,64.508 127.118,64.912 126.479 C 65.458 125.616,65.604 125.605,65.613 126.426 C 65.621 127.112,66.428 127.377,68.000 127.212 C 69.307 127.075,70.625 127.353,70.930 127.830 C 71.235 128.307,73.594 128.865,76.172 129.070 C 78.750 129.275,80.420 129.293,79.883 129.110 C 77.983 128.461,78.838 126.766,80.869 127.154 C 82.326 127.433,83.247 127.002,84.441 125.484 C 85.327 124.358,86.699 123.437,87.492 123.437 C 88.284 123.438,89.111 122.998,89.329 122.461 C 89.628 121.724,89.944 121.772,90.617 122.656 C 91.344 123.611,91.417 123.503,91.014 122.070 C 90.723 121.036,90.863 120.313,91.354 120.313 C 91.812 120.313,92.188 120.685,92.188 121.140 C 92.187 121.595,92.610 121.706,93.126 121.387 C 93.856 120.936,93.856 120.738,93.126 120.495 C 91.411 119.924,92.157 118.637,93.945 119.081 C 94.912 119.321,95.264 119.315,94.727 119.068 C 93.117 118.329,93.619 115.841,95.709 114.198 C 96.786 113.350,97.485 112.181,97.262 111.600 C 96.661 110.034,99.987 108.104,100.885 109.498 C 101.291 110.129,101.359 109.500,101.055 107.919 C 100.580 105.444,100.660 105.318,102.424 105.763 C 103.454 106.023,103.857 106.034,103.320 105.787 C 102.164 105.256,101.993 101.563,103.125 101.563 C 103.555 101.563,103.906 100.859,103.906 100.000 C 103.906 99.141,104.258 98.438,104.688 98.438 C 105.117 98.438,105.469 97.383,105.469 96.094 C 105.469 94.805,105.820 93.750,106.250 93.750 C 106.680 93.750,107.031 92.168,107.031 90.234 C 107.031 87.703,107.345 86.719,108.151 86.719 C 109.031 86.719,109.324 85.070,109.518 79.029 C 109.744 72.022,109.644 71.370,108.398 71.698 C 107.312 71.983,107.031 71.557,107.031 69.622 C 107.031 68.283,106.680 67.188,106.250 67.188 C 105.820 67.188,105.469 66.666,105.469 66.029 C 105.469 64.320,98.394 57.031,96.736 57.031 C 95.953 57.031,95.313 56.680,95.313 56.250 C 95.313 55.820,94.609 55.469,93.750 55.469 C 92.891 55.469,92.188 55.117,92.188 54.688 C 92.188 54.258,90.957 53.906,89.453 53.906 C 87.949 53.906,86.719 53.555,86.719 53.125 C 86.719 52.691,84.635 52.344,82.031 52.344 C 79.427 52.344,77.344 52.691,77.344 53.125 C 77.344 53.555,75.607 53.906,73.484 53.906 C 71.361 53.906,69.406 54.258,69.141 54.688 C 68.875 55.117,68.327 55.469,67.923 55.469 C 66.934 55.469,66.978 43.972,67.969 43.359 C 68.398 43.094,68.750 41.491,68.750 39.798 C 68.750 38.104,69.102 36.719,69.531 36.719 C 69.961 36.719,70.313 36.166,70.313 35.491 C 70.313 33.765,72.479 31.796,73.815 32.309 C 74.705 32.650,74.787 32.353,74.217 30.854 C 73.633 29.317,73.834 28.708,75.308 27.548 C 76.302 26.766,77.282 24.994,77.485 23.610 C 77.688 22.226,77.827 21.146,77.794 21.211 C 77.761 21.275,76.788 21.472,75.630 21.649 M321.875 47.708 C 316.085 48.170,310.303 49.454,307.585 50.881 C 306.816 51.285,305.886 51.430,305.519 51.203 C 305.152 50.976,304.669 51.266,304.446 51.847 C 303.891 53.293,299.654 54.033,297.221 53.108 C 295.903 52.607,295.387 52.613,295.703 53.125 C 296.009 53.620,295.405 53.606,294.039 53.086 C 291.233 52.019,284.262 52.651,281.923 54.184 C 280.908 54.849,279.902 55.362,279.688 55.324 C 279.473 55.286,277.558 56.358,275.433 57.706 C 273.308 59.054,271.857 60.156,272.208 60.156 C 272.560 60.156,272.383 60.716,271.816 61.399 C 270.680 62.768,270.736 67.769,271.903 69.175 C 272.310 69.665,272.411 70.297,272.129 70.580 C 271.846 70.862,272.221 71.094,272.963 71.094 C 273.704 71.094,274.130 71.387,273.909 71.745 C 273.687 72.103,273.930 72.413,274.448 72.433 C 274.967 72.453,276.006 72.725,276.758 73.037 C 277.603 73.388,278.125 73.257,278.125 72.694 C 278.125 72.193,278.531 72.034,279.027 72.340 C 279.583 72.684,279.717 72.555,279.377 72.004 C 279.073 71.513,279.414 69.870,280.134 68.353 C 286.342 55.269,305.714 65.213,301.646 79.397 C 301.153 81.117,301.210 81.803,301.841 81.737 C 303.050 81.611,311.462 84.209,314.844 85.752 C 316.348 86.439,317.856 86.932,318.196 86.849 C 318.535 86.766,319.525 87.079,320.395 87.544 C 321.265 88.010,322.569 88.532,323.293 88.704 C 327.555 89.719,330.350 90.557,332.422 91.440 C 333.711 91.990,335.044 92.378,335.383 92.303 C 335.723 92.228,336.778 92.589,337.727 93.106 C 338.676 93.622,339.980 94.116,340.625 94.202 C 341.270 94.289,343.467 94.891,345.508 95.541 C 347.583 96.202,349.219 96.391,349.219 95.971 C 349.219 95.558,349.625 95.471,350.121 95.778 C 350.657 96.109,350.811 95.993,350.501 95.492 C 349.787 94.336,351.490 90.659,353.881 88.198 C 356.355 85.650,363.422 83.032,362.115 85.147 C 361.852 85.572,362.123 85.733,362.715 85.506 C 364.435 84.846,368.082 86.594,368.526 88.291 C 368.749 89.145,369.404 89.844,369.982 89.844 C 371.483 89.844,372.873 95.172,372.545 99.673 L 372.266 103.516 375.121 103.516 C 376.691 103.516,377.813 103.252,377.614 102.930 C 377.414 102.607,377.800 102.344,378.470 102.344 C 379.139 102.344,379.649 102.080,379.603 101.758 C 379.441 100.638,380.649 97.676,381.144 97.981 C 382.202 98.634,381.552 93.234,380.295 90.919 C 379.565 89.577,379.189 88.259,379.458 87.990 C 379.728 87.720,379.547 87.500,379.057 87.500 C 377.907 87.500,375.670 83.204,376.398 82.396 C 376.703 82.057,376.552 82.010,376.062 82.290 C 375.189 82.789,372.133 77.641,372.512 76.309 C 372.612 75.955,372.399 75.848,372.038 76.071 C 371.676 76.295,370.736 75.354,369.947 73.981 C 368.013 70.611,353.860 56.589,351.702 55.904 C 350.739 55.598,350.208 54.983,350.500 54.511 C 350.787 54.045,350.681 53.876,350.263 54.135 C 349.845 54.393,347.769 53.755,345.650 52.717 C 343.531 51.679,340.657 50.604,339.265 50.329 C 337.872 50.054,336.872 49.604,337.042 49.328 C 337.212 49.053,336.593 48.796,335.668 48.756 C 334.742 48.717,332.578 48.359,330.859 47.962 C 329.141 47.565,325.098 47.451,321.875 47.708 M336.353 52.732 C 337.656 53.018,339.486 53.839,340.420 54.556 L 342.117 55.859 340.678 61.175 C 338.896 67.759,339.776 67.343,332.422 65.071 C 324.252 62.547,321.168 61.680,318.563 61.176 C 317.385 60.949,316.569 60.526,316.747 60.236 C 316.926 59.947,316.395 59.643,315.568 59.561 C 311.113 59.121,311.271 59.330,312.576 55.585 C 313.359 53.339,314.225 52.814,316.984 52.914 C 317.516 52.933,317.743 52.611,317.488 52.199 C 316.987 51.388,332.197 51.818,336.353 52.732 M350.456 60.561 C 351.924 62.073,353.125 63.073,353.125 62.784 C 353.125 62.494,353.828 62.894,354.688 63.672 C 355.547 64.450,356.250 65.521,356.250 66.053 C 356.250 66.585,356.800 67.231,357.471 67.489 C 358.143 67.747,358.474 68.312,358.207 68.744 C 357.939 69.177,358.036 69.531,358.422 69.531 C 359.238 69.531,361.174 73.461,360.628 74.007 C 360.426 74.210,359.797 74.086,359.232 73.732 C 358.666 73.378,357.852 73.064,357.422 73.035 C 355.515 72.906,349.442 70.859,347.755 69.777 C 346.680 69.088,346.146 68.983,346.482 69.528 C 346.929 70.251,346.681 70.264,345.407 69.582 C 344.496 69.094,343.750 68.159,343.750 67.505 C 343.750 66.804,344.121 66.543,344.652 66.871 C 345.183 67.200,345.343 67.087,345.040 66.597 C 344.368 65.510,346.150 57.813,347.074 57.813 C 347.466 57.813,348.988 59.049,350.456 60.561 M286.397 64.174 C 286.568 64.451,285.879 64.885,284.865 65.140 C 282.594 65.710,280.813 71.223,281.510 75.521 C 282.061 78.915,286.289 83.710,288.113 83.010 C 288.814 82.741,289.116 82.876,288.834 83.332 C 288.324 84.157,293.753 83.519,296.242 82.461 C 298.330 81.574,300.337 77.942,300.090 75.498 C 299.965 74.268,300.187 73.461,300.583 73.706 C 300.978 73.950,301.302 73.654,301.302 73.047 C 301.302 72.440,301.009 72.125,300.651 72.346 C 300.293 72.567,300.000 71.956,300.000 70.987 C 300.000 69.033,296.406 64.844,294.730 64.844 C 294.140 64.844,293.821 64.580,294.020 64.258 C 294.219 63.936,292.516 63.672,290.234 63.672 C 287.953 63.672,286.226 63.898,286.397 64.174 M354.813 89.061 C 354.240 90.356,353.525 91.263,353.225 91.077 C 352.622 90.705,352.325 92.244,352.141 96.680 C 351.977 100.660,352.381 101.682,354.872 103.591 C 356.048 104.492,356.854 105.386,356.662 105.577 C 356.471 105.769,358.206 106.272,360.518 106.696 C 362.830 107.119,364.553 107.192,364.346 106.858 C 364.013 106.318,366.510 105.879,368.222 106.177 C 368.576 106.238,368.657 105.950,368.401 105.536 C 368.145 105.122,368.559 104.421,369.320 103.978 C 370.080 103.535,370.430 103.162,370.097 103.149 C 369.764 103.136,370.027 102.088,370.683 100.820 C 372.445 97.413,372.134 95.391,369.121 90.661 C 367.628 88.318,366.406 86.791,366.406 87.268 C 366.406 87.893,365.666 87.908,363.755 87.321 C 361.905 86.754,360.385 86.759,358.723 87.338 C 357.289 87.838,356.246 87.877,356.099 87.437 C 355.965 87.036,355.387 87.766,354.813 89.061 M37.500 93.796 C 37.500 94.630,37.852 95.313,38.281 95.313 C 38.711 95.313,39.063 96.016,39.063 96.875 C 39.063 97.734,39.414 98.438,39.844 98.438 C 40.273 98.438,40.625 98.994,40.625 99.673 C 40.625 100.353,42.910 103.150,45.703 105.888 C 51.220 111.298,51.227 111.308,49.827 112.806 C 48.780 113.927,46.875 112.721,46.875 110.936 C 46.875 110.444,46.260 110.162,45.508 110.309 C 43.966 110.610,40.625 107.087,40.625 105.161 C 40.625 104.471,40.248 103.906,39.788 103.906 C 38.561 103.906,36.719 101.857,36.719 100.493 C 36.719 99.843,36.334 99.073,35.864 98.783 C 35.394 98.492,35.163 97.449,35.351 96.464 C 35.593 95.199,35.386 94.792,34.644 95.077 C 33.226 95.621,33.322 94.866,34.905 93.018 C 36.408 91.263,37.500 91.590,37.500 93.796 M42.188 105.915 C 42.188 106.745,44.602 108.783,45.052 108.333 C 45.298 108.088,44.954 107.343,44.289 106.678 C 43.049 105.437,42.188 105.125,42.188 105.915 M189.453 112.620 C 186.445 112.972,183.193 113.342,182.227 113.441 C 181.260 113.541,180.469 113.875,180.469 114.184 C 180.469 114.494,179.854 114.747,179.102 114.748 C 177.135 114.750,169.729 116.903,165.625 118.665 C 163.691 119.495,161.042 120.569,159.737 121.050 C 147.578 125.540,126.207 145.038,119.319 157.926 C 118.319 159.797,116.929 162.207,116.230 163.281 C 113.196 167.948,107.954 184.340,106.900 192.456 C 105.949 199.779,105.589 215.625,106.373 215.625 C 106.664 215.625,106.901 217.189,106.901 219.100 C 106.901 221.012,107.259 223.737,107.696 225.155 C 108.133 226.574,109.062 230.000,109.760 232.768 C 113.851 249.004,127.197 268.655,141.963 280.186 C 148.739 285.477,166.921 295.312,169.925 295.313 C 170.826 295.313,171.896 295.624,172.305 296.006 C 173.484 297.107,183.490 299.349,187.224 299.349 C 189.094 299.349,190.627 299.583,190.629 299.870 C 190.649 302.348,224.647 298.793,227.695 295.994 C 228.104 295.619,229.193 295.313,230.116 295.313 C 233.084 295.312,251.335 285.419,258.075 280.156 C 269.592 271.163,277.400 261.271,284.722 246.397 C 288.525 238.673,289.790 235.043,292.183 225.000 C 294.833 213.875,294.610 195.443,291.701 185.163 C 289.017 175.679,288.376 173.661,286.763 169.605 C 279.279 150.790,256.646 127.131,240.347 121.085 C 238.996 120.584,236.970 119.685,235.846 119.088 C 233.284 117.728,224.929 115.379,215.392 113.336 C 210.250 112.235,196.084 111.844,189.453 112.620 M211.963 127.007 C 220.086 129.464,235.938 140.710,235.938 144.016 C 235.938 144.317,236.802 145.932,237.859 147.606 C 241.722 153.725,242.792 158.653,242.681 169.810 L 242.578 180.078 239.322 186.719 C 237.532 190.371,234.242 195.391,232.013 197.875 L 227.958 202.391 231.753 205.924 C 233.839 207.867,235.659 209.420,235.796 209.375 C 236.184 209.247,240.814 215.585,243.501 219.922 C 246.906 225.416,250.006 238.114,249.271 243.555 C 248.967 245.811,248.926 247.656,249.181 247.656 C 249.436 247.656,249.637 251.172,249.627 255.469 C 249.617 259.765,249.357 263.281,249.048 263.281 C 248.739 263.281,248.664 263.743,248.880 264.307 C 250.340 268.113,249.355 268.193,199.960 268.279 L 153.812 268.359 152.193 266.637 C 150.608 264.949,149.281 248.438,150.731 248.438 C 151.005 248.438,151.023 246.277,150.770 243.636 C 150.450 240.290,150.733 237.154,151.705 233.285 C 152.471 230.232,153.104 227.228,153.112 226.609 C 153.131 224.962,159.278 215.057,162.211 211.948 C 163.599 210.476,164.731 209.082,164.726 208.849 C 164.722 208.617,166.444 207.129,168.554 205.544 L 172.391 202.661 168.126 198.010 C 163.986 193.495,159.028 184.787,159.845 183.466 C 160.067 183.106,159.911 182.813,159.498 182.813 C 157.529 182.813,155.720 162.509,157.528 160.702 C 157.801 160.429,158.139 158.917,158.281 157.344 C 158.422 155.770,159.487 152.682,160.647 150.483 C 161.808 148.284,163.222 145.606,163.789 144.532 C 166.772 138.889,182.442 127.370,187.189 127.332 C 188.004 127.325,189.199 126.979,189.844 126.563 C 191.778 125.313,207.398 125.627,211.963 127.007 M194.493 131.290 C 189.418 132.046,181.250 134.947,181.250 135.994 C 181.250 136.392,180.743 136.719,180.123 136.719 C 178.856 136.719,169.531 145.076,169.531 146.211 C 169.531 146.612,168.829 147.694,167.970 148.616 C 155.911 161.560,162.536 188.941,180.649 201.014 L 183.563 202.956 179.086 205.129 C 163.539 212.675,155.657 228.521,155.795 251.953 L 155.859 262.891 200.000 262.891 L 244.141 262.891 244.010 249.934 C 243.782 227.253,236.343 212.811,220.932 205.127 L 216.473 202.903 219.970 200.587 C 223.758 198.078,232.031 189.963,232.031 188.756 C 232.031 188.348,232.513 187.459,233.102 186.780 C 239.493 179.420,239.048 157.236,232.350 149.275 C 231.315 148.046,230.469 146.726,230.469 146.342 C 230.469 145.346,223.619 138.959,219.910 136.499 C 213.297 132.110,203.062 130.013,194.493 131.290 M213.672 166.198 C 214.531 166.689,217.263 167.976,219.742 169.057 L 224.249 171.021 223.749 174.378 C 221.313 190.728,198.706 198.918,185.287 188.311 C 177.335 182.025,173.626 172.248,178.281 169.841 C 187.533 165.057,207.998 162.950,213.672 166.198 M12.011 194.116 C 11.810 194.640,11.750 197.672,11.877 200.854 L 12.109 206.641 49.931 206.641 L 87.753 206.641 87.806 200.000 L 87.860 193.359 50.118 193.262 C 21.094 193.187,12.291 193.384,12.011 194.116 M312.189 193.689 C 312.058 193.937,312.015 196.953,312.093 200.391 L 312.236 206.641 350.063 206.641 L 387.891 206.641 387.891 200.000 L 387.891 193.359 350.159 193.298 C 329.406 193.264,312.320 193.440,312.189 193.689 M194.647 206.271 C 199.404 207.134,203.907 206.814,210.570 205.142 C 214.285 204.210,211.062 213.838,206.786 216.445 C 201.584 219.617,193.413 218.057,190.045 213.249 C 188.343 210.818,187.338 204.458,188.741 204.997 C 189.294 205.209,191.951 205.782,194.647 206.271 M317.188 290.420 C 311.647 294.717,308.132 301.882,307.354 310.464 L 306.816 316.406 301.169 316.406 L 295.523 316.406 294.224 325.195 C 292.551 336.511,291.036 347.250,289.457 358.984 C 288.763 364.141,287.863 370.509,287.457 373.137 C 287.051 375.765,286.719 379.192,286.719 380.754 L 286.719 383.594 324.219 383.594 L 361.719 383.594 361.736 379.883 C 361.746 377.842,361.227 371.777,360.583 366.406 C 359.938 361.035,358.887 351.719,358.247 345.703 C 354.705 312.421,356.099 316.406,347.994 316.406 L 341.406 316.406 341.378 313.086 C 341.231 295.540,327.352 282.535,317.188 290.420 M329.709 293.164 C 334.069 296.117,338.281 305.849,338.281 312.973 L 338.281 316.406 324.219 316.406 L 310.156 316.406 310.166 313.086 C 310.207 298.087,320.893 287.195,329.709 293.164 M30.469 305.879 C 29.824 306.004,26.795 306.539,23.736 307.066 L 18.175 308.024 18.221 341.497 L 18.267 374.971 21.438 374.481 C 23.182 374.212,25.313 373.752,26.172 373.458 C 27.713 372.932,43.450 373.102,46.484 373.678 C 52.519 374.823,63.328 378.476,66.840 380.556 L 69.226 381.970 69.331 348.377 L 69.436 314.783 63.532 312.019 C 54.102 307.604,37.463 304.514,30.469 305.879 M100.000 306.383 C 97.637 306.691,94.473 307.294,92.969 307.724 C 91.465 308.154,88.932 308.836,87.340 309.241 C 85.749 309.645,82.217 311.019,79.492 312.294 L 74.537 314.613 74.457 347.931 C 74.413 366.257,74.605 381.249,74.884 381.248 C 75.162 381.247,78.627 379.850,82.582 378.144 C 93.374 373.488,109.561 371.663,119.531 373.978 C 121.895 374.527,124.209 374.981,124.674 374.988 C 125.268 374.996,125.532 364.995,125.561 341.460 L 125.601 307.919 122.371 307.360 C 116.511 306.345,115.286 306.215,109.766 306.018 C 106.758 305.911,102.363 306.075,100.000 306.383 M193.962 318.915 C 193.426 319.581,193.187 331.431,193.255 353.906 L 193.359 387.891 200.000 387.891 L 206.641 387.891 206.641 353.125 L 206.641 318.359 200.707 318.133 C 196.571 317.976,194.528 318.213,193.962 318.915 " stroke="none" fill="currentColor" fill-rule="evenodd"></path></g></svg>