<svg id="svg" xmlns="http://www.w3.org/2000/svg" xmlns:xlink="http://www.w3.org/1999/xlink" width="400" height="400" viewBox="0, 0, 400,400"><g id="svgg"><path id="path0" d="M167.138 34.283 C 155.301 37.879,148.514 47.127,148.055 60.283 L 147.733 69.531 135.373 57.254 C 113.970 35.993,93.882 34.339,75.673 52.339 C 51.758 75.979,67.466 118.336,100.340 118.856 C 106.544 118.954,106.747 119.085,103.125 120.658 C 96.052 123.729,80.686 130.764,67.188 137.112 C 59.883 140.547,50.636 144.782,46.639 146.523 C 36.421 150.972,36.176 153.424,44.234 170.567 C 48.006 178.591,53.084 189.549,55.519 194.917 C 61.853 208.885,65.429 211.927,71.699 208.685 C 74.356 207.311,76.991 206.377,77.554 206.609 C 78.118 206.841,78.531 241.836,78.474 284.375 C 78.381 352.706,78.655 362.037,80.833 364.453 C 84.871 368.934,305.355 368.654,307.758 364.165 C 308.816 362.188,309.375 331.727,309.375 276.075 C 309.375 184.702,309.766 188.958,301.172 186.904 C 297.662 186.066,296.875 185.015,296.875 181.170 C 296.875 168.834,286.180 157.353,274.246 156.878 C 270.610 156.734,265.748 155.379,263.441 153.867 C 245.820 142.321,225.000 154.315,225.000 176.012 C 225.000 185.770,224.928 185.939,220.703 186.052 C 215.288 186.197,124.770 186.148,122.656 185.999 C 120.772 185.867,133.541 179.549,157.813 168.605 C 167.695 164.149,184.570 156.318,195.313 151.202 C 206.055 146.086,217.656 140.633,221.094 139.083 C 311.685 98.247,311.284 98.510,304.108 84.680 C 302.015 80.645,298.882 74.180,297.148 70.313 C 295.413 66.445,291.948 58.711,289.448 53.125 C 282.059 36.616,278.885 36.823,240.625 56.301 C 225.425 64.039,204.304 73.575,203.700 72.971 C 203.324 72.595,203.677 69.346,204.485 65.751 C 209.019 45.573,188.071 27.923,167.138 34.283 M186.058 51.442 C 194.365 59.750,191.411 67.939,175.179 81.603 L 166.406 88.988 165.176 83.166 C 160.874 62.807,161.888 54.405,169.183 49.957 C 176.160 45.703,180.719 46.104,186.058 51.442 M116.458 59.407 C 119.143 61.067,125.153 66.823,129.811 72.198 C 140.897 84.989,141.609 85.837,146.245 91.744 L 150.188 96.768 146.578 97.485 C 144.593 97.879,137.806 99.372,131.495 100.802 C 106.437 106.481,89.174 103.834,82.788 93.334 C 68.886 70.475,93.780 45.391,116.458 59.407 M282.241 73.047 C 286.174 81.426,289.663 88.730,289.993 89.278 C 290.583 90.258,288.215 91.472,257.031 106.169 C 248.438 110.219,235.244 116.465,227.711 120.048 C 211.544 127.739,210.795 127.823,208.027 122.253 C 202.538 111.207,195.568 93.304,197.843 96.094 C 200.376 99.201,200.386 99.200,199.616 95.918 C 198.932 93.000,201.585 91.309,222.468 81.358 C 250.819 67.849,272.208 58.102,273.872 57.935 C 274.541 57.868,278.307 64.668,282.241 73.047 M189.566 117.410 C 193.627 126.127,196.757 133.439,196.522 133.659 C 196.286 133.880,191.523 136.265,185.938 138.961 C 180.352 141.657,173.137 145.269,169.905 146.988 L 164.028 150.113 162.546 146.214 C 161.731 144.070,158.223 136.521,154.752 129.438 C 151.280 122.355,148.989 116.011,149.660 115.340 C 151.193 113.807,178.325 101.787,180.544 101.658 C 181.445 101.605,185.505 108.694,189.566 117.410 M314.741 115.340 C 296.947 126.536,310.716 172.442,330.250 167.049 C 354.164 160.445,367.037 143.143,359.307 127.991 C 356.195 121.893,346.888 116.249,342.633 117.881 C 341.280 118.400,338.876 117.651,337.290 116.216 C 332.833 112.182,320.520 111.704,314.741 115.340 M146.912 147.563 C 148.570 151.809,149.754 155.454,149.545 155.663 C 149.336 155.873,141.442 159.678,132.004 164.119 C 122.566 168.560,106.375 176.247,96.024 181.202 C 68.699 194.282,72.056 194.751,63.559 176.664 C 59.539 168.108,56.255 160.542,56.262 159.850 C 56.273 158.702,66.334 153.612,91.406 142.069 C 96.563 139.695,107.762 134.517,116.294 130.563 C 128.069 125.104,132.110 123.851,133.067 125.358 C 133.949 126.749,134.336 126.407,134.357 124.219 C 134.389 120.817,141.983 134.936,146.912 147.563 M330.371 130.515 C 333.855 133.744,335.611 134.285,339.958 133.469 C 350.611 131.471,348.546 142.922,337.271 148.370 C 328.730 152.496,327.736 152.409,324.699 147.266 C 316.773 133.844,320.879 121.718,330.371 130.515 M257.698 168.876 C 261.745 173.307,262.649 173.607,269.077 172.643 C 277.724 171.346,281.667 174.401,280.944 181.837 L 280.469 186.719 261.076 186.337 C 238.854 185.899,239.844 186.331,239.844 177.075 C 239.844 164.646,249.700 160.119,257.698 168.876 M160.938 276.172 L 160.938 352.344 127.345 352.344 L 93.751 352.344 93.750 276.984 L 93.750 201.625 126.953 201.170 C 145.215 200.920,160.332 200.555,160.547 200.358 C 160.762 200.161,160.938 234.277,160.938 276.172 M294.030 269.043 C 294.005 306.265,293.931 340.234,293.867 344.531 L 293.751 352.344 260.547 352.344 L 227.344 352.344 227.561 283.594 C 227.680 245.781,227.856 212.603,227.952 209.865 C 228.105 205.463,228.714 204.812,233.203 204.255 C 238.151 203.641,238.121 203.610,232.031 203.031 C 228.594 202.705,240.898 202.065,259.375 201.610 C 277.852 201.154,293.218 200.913,293.523 201.075 C 293.827 201.236,294.056 231.822,294.030 269.043 M212.489 276.953 L 212.477 352.344 194.129 352.475 L 175.781 352.607 175.998 283.725 C 176.117 245.841,176.292 212.559,176.388 209.766 L 176.563 204.688 185.547 204.418 L 194.531 204.148 184.375 203.125 C 175.704 202.252,177.018 202.062,193.359 201.832 L 212.500 201.563 212.489 276.953 " stroke="none" fill="currentColor" fill-rule="evenodd"></path></g></svg>