<?xml version="1.0" standalone="no"?>
<!DOCTYPE svg PUBLIC "-//W3C//DTD SVG 20010904//EN"
 "http://www.w3.org/TR/2001/REC-SVG-20010904/DTD/svg10.dtd">
<svg version="1.0" xmlns="http://www.w3.org/2000/svg"
 width="1600.000000pt" height="1600.000000pt" viewBox="0 0 1600.000000 1600.000000"
 preserveAspectRatio="xMidYMid meet">

<g transform="translate(0.000000,1600.000000) scale(0.100000,-0.100000)"
fill="currentColor" stroke="none">
<path d="M7395 15325 c-93 -17 -168 -47 -235 -93 -40 -28 -935 -1019 -3213
-3558 -1737 -1935 -3178 -3544 -3202 -3575 -144 -185 -339 -583 -455 -929 -23
-69 -64 -208 -91 -310 -27 -102 -65 -239 -84 -304 -115 -386 -145 -897 -80
-1332 123 -815 597 -1547 1310 -2023 250 -166 -84 -60 3948 -1257 2009 -596
3683 -1089 3721 -1094 153 -22 323 26 452 128 28 22 299 339 630 738 319 384
1662 2002 2984 3594 1322 1592 2418 2916 2437 2941 47 66 79 145 99 240 24
118 14 189 -50 382 -130 388 -126 717 12 1097 45 123 46 127 46 250 1 155 -20
233 -95 344 -114 171 -291 267 -495 268 -200 2 -386 -95 -497 -258 -88 -130
-209 -504 -254 -784 -14 -90 -18 -171 -18 -370 1 -268 12 -366 65 -574 11 -44
20 -85 20 -93 0 -8 -636 -780 -1413 -1716 -778 -936 -2004 -2413 -2726 -3282
-721 -869 -1317 -1584 -1324 -1589 -8 -5 -220 53 -572 157 -542 160 -3491
1032 -5368 1587 -504 149 -948 285 -984 301 -262 117 -491 374 -613 686 -95
242 -132 464 -133 788 -1 345 37 557 135 755 43 87 66 119 133 186 119 121
223 164 441 186 77 7 134 7 185 0 41 -5 1494 -419 3229 -918 l3155 -909 130 0
c110 0 140 4 196 23 84 29 174 83 236 142 75 71 6493 7478 6537 7544 50 74 93
198 101 290 23 265 -149 535 -407 637 -28 11 -220 58 -427 104 -7540 1686
-7218 1615 -7309 1614 -48 0 -118 -7 -157 -14z m1450 -2739 c759 -186 1646
-402 1970 -481 1377 -335 1311 -317 1388 -385 21 -18 45 -46 53 -63 21 -40 21
-108 -1 -157 -10 -22 -140 -185 -289 -362 -300 -357 -330 -385 -473 -432 -114
-37 -202 -49 -322 -44 -96 5 -202 29 -1176 267 -588 145 -1620 397 -2292 562
-922 225 -1237 306 -1281 328 -60 30 -126 94 -142 137 -16 42 -12 122 9 162
25 48 529 650 568 678 55 40 150 83 229 103 112 28 125 29 259 26 120 -2 120
-2 1500 -339z"/>
</g>
</svg>
