<svg id="svg" xmlns="http://www.w3.org/2000/svg" xmlns:xlink="http://www.w3.org/1999/xlink" width="400" height="400" viewBox="0, 0, 400,400"><g id="svgg"><path id="path0" d="M275.556 32.854 C 257.891 38.560,247.118 53.996,243.196 79.219 C 241.326 91.248,240.549 93.047,236.539 94.617 C 213.694 103.565,206.106 109.893,202.597 122.926 C 198.831 136.911,206.849 152.816,219.111 155.686 C 223.930 156.813,224.000 156.706,224.010 148.193 C 224.023 136.502,226.755 127.138,233.403 116.000 C 239.218 106.258,241.778 104.405,241.778 109.938 C 241.778 116.052,252.544 134.788,259.851 141.389 C 290.122 168.737,338.161 159.128,354.629 122.431 C 357.204 116.694,359.645 112.000,360.054 112.000 C 363.584 112.000,371.511 136.853,371.536 148.000 C 371.558 157.409,372.496 157.892,384.364 154.596 C 410.447 147.351,392.402 94.222,363.858 94.222 C 362.204 94.222,360.614 90.472,359.182 83.195 C 351.288 43.069,313.798 20.501,275.556 32.854 M81.327 50.589 C 72.076 54.142,55.401 65.461,52.183 70.372 C 49.441 74.556,50.197 84.451,55.310 111.328 C 63.981 156.911,129.381 165.573,150.481 123.934 C 159.035 107.053,160.460 67.615,152.811 59.472 C 145.095 51.259,95.600 45.108,81.327 50.589 M324.249 94.656 L 345.387 94.200 344.311 103.282 C 340.078 139.022,297.056 154.092,270.511 129.134 C 259.037 118.347,252.652 99.695,259.228 96.176 C 261.189 95.126,264.604 91.257,266.816 87.578 C 269.029 83.899,271.166 80.490,271.565 80.003 C 273.223 77.978,277.333 86.451,277.333 91.895 C 277.333 102.320,284.900 97.596,296.222 80.103 L 301.333 72.205 302.222 83.658 L 303.111 95.111 324.249 94.656 M99.881 91.052 C 96.238 94.696,97.576 95.810,103.544 94.098 C 109.965 92.257,135.563 91.900,141.778 93.565 C 149.889 95.739,145.044 116.909,133.800 128.430 C 110.325 152.481,71.056 138.270,68.004 104.618 C 66.961 93.115,66.627 93.381,81.177 94.165 C 84.269 94.331,89.869 92.887,93.621 90.956 C 100.670 87.328,103.561 87.372,99.881 91.052 M237.848 195.153 C 221.921 214.362,207.505 231.711,205.814 233.706 C 203.538 236.390,202.363 236.768,201.294 235.158 C 200.499 233.962,186.774 216.962,170.794 197.381 L 141.739 161.778 106.869 161.931 L 72.000 162.085 37.333 200.384 C -3.490 245.486,0.271 239.242,8.503 248.248 L 15.229 255.606 40.948 233.604 L 66.667 211.601 67.143 254.245 L 67.619 296.889 72.920 296.889 L 78.222 296.889 78.222 330.667 C 78.222 363.259,78.097 364.444,74.667 364.444 C 72.691 364.444,71.111 365.630,71.111 367.111 C 71.111 369.273,73.983 369.778,86.288 369.778 L 101.464 369.778 101.247 333.778 L 101.030 297.778 107.404 297.226 L 113.778 296.674 113.778 333.226 L 113.778 369.778 128.000 369.778 C 139.457 369.778,142.222 369.259,142.222 367.111 C 142.222 365.630,140.642 364.444,138.667 364.444 C 135.236 364.444,135.111 363.259,135.111 330.667 L 135.111 296.889 141.333 296.889 L 147.556 296.889 147.556 255.111 C 147.556 232.133,147.944 213.333,148.418 213.333 C 148.893 213.333,158.536 222.865,169.849 234.515 C 190.075 255.343,190.512 255.668,196.098 254.013 C 199.222 253.087,205.193 252.518,209.366 252.747 L 216.955 253.164 239.389 227.471 C 264.998 198.141,264.048 198.908,265.542 206.375 C 268.151 219.420,266.984 222.507,245.440 259.556 L 224.247 296.000 249.013 296.493 L 273.778 296.987 273.778 329.827 C 273.778 361.481,273.649 362.667,270.222 362.667 C 267.852 362.667,266.667 363.852,266.667 366.222 C 266.667 369.481,267.852 369.778,280.889 369.778 L 295.111 369.778 295.111 333.333 L 295.111 296.889 302.222 296.889 L 309.333 296.889 309.333 333.333 L 309.333 369.778 323.556 369.778 C 336.593 369.778,337.778 369.481,337.778 366.222 C 337.778 363.852,336.593 362.667,334.222 362.667 C 330.795 362.667,330.667 361.481,330.667 329.778 L 330.667 296.889 350.363 296.889 L 370.059 296.889 350.909 260.000 L 331.759 223.111 332.222 210.667 C 332.477 203.822,333.263 197.631,333.968 196.909 C 334.930 195.922,361.687 229.584,369.993 242.232 C 371.215 244.092,390.680 240.357,392.149 237.981 C 392.862 236.827,358.429 188.795,340.458 165.876 L 336.005 160.196 301.406 160.212 L 266.807 160.227 237.848 195.153 " stroke="none" fill="currentColor" fill-rule="evenodd"></path></g></svg>