<svg id="svg" xmlns="http://www.w3.org/2000/svg" xmlns:xlink="http://www.w3.org/1999/xlink" width="400" height="400" viewBox="0, 0, 400,400"><g id="svgg"><path id="path0" d="M98.000 60.000 C 98.000 64.667,97.111 66.000,94.000 66.000 C 91.778 66.000,90.000 67.333,90.000 69.000 C 90.000 70.667,91.778 72.000,94.000 72.000 C 105.430 72.000,99.553 92.151,80.000 120.000 C 60.436 147.865,60.365 148.002,65.500 147.996 C 68.630 147.992,68.933 149.976,68.368 166.761 L 67.737 185.531 43.368 192.648 C 29.966 196.563,16.525 200.366,13.500 201.100 C 7.931 202.450,5.359 210.045,10.500 209.957 C 11.875 209.934,32.656 204.156,56.680 197.117 L 100.359 184.320 144.657 197.191 C 169.021 204.270,190.090 209.626,191.478 209.094 C 198.928 206.234,191.985 202.431,165.488 194.855 L 137.000 186.711 136.428 167.355 C 135.886 149.031,136.072 148.000,139.928 148.000 C 145.253 148.000,145.085 146.974,138.342 138.288 C 107.305 98.309,96.453 72.000,111.000 72.000 C 114.667 72.000,116.000 70.933,116.000 68.000 C 116.000 65.067,114.667 64.000,111.000 64.000 C 107.000 64.000,106.000 63.000,106.000 59.000 C 106.000 55.333,104.933 54.000,102.000 54.000 C 98.889 54.000,98.000 55.333,98.000 60.000 M322.386 148.923 C 301.171 158.687,300.693 159.521,313.164 165.000 L 322.270 169.000 314.491 181.000 C 292.003 215.686,249.843 239.565,201.500 244.996 C 181.513 247.241,187.784 250.713,209.500 249.425 C 260.468 246.400,303.541 223.520,332.204 184.246 L 337.132 177.493 347.566 182.780 C 353.305 185.688,358.000 187.136,358.000 185.997 C 358.000 181.836,343.758 140.005,342.400 140.178 C 341.630 140.276,332.624 144.211,322.386 148.923 M56.000 200.902 L 19.000 211.327 18.473 276.663 L 17.945 342.000 47.973 342.000 L 78.000 342.000 78.000 310.153 C 78.000 273.733,80.138 268.271,96.073 263.980 C 118.428 257.961,126.000 269.672,126.000 310.270 L 126.000 342.000 154.000 342.000 L 182.000 342.000 181.978 276.500 L 181.957 211.000 142.478 200.425 C 95.792 187.919,102.204 187.884,56.000 200.902 M350.445 201.113 C 344.684 205.149,344.357 217.534,349.835 224.278 L 353.669 229.000 344.357 231.009 C 332.409 233.587,330.648 237.245,328.861 263.196 C 327.647 280.821,327.884 283.528,330.736 284.622 C 338.411 287.567,341.199 283.437,342.631 267.000 C 343.104 261.569,343.393 262.853,343.530 271.000 C 343.641 277.600,342.578 294.700,341.167 309.000 C 338.402 337.020,339.256 342.000,346.825 342.000 C 354.300 342.000,355.529 338.458,357.065 312.500 C 358.893 281.598,361.191 281.214,363.041 311.500 C 364.642 337.690,366.024 342.000,372.825 342.000 C 381.171 342.000,381.673 338.994,378.835 306.000 C 375.736 269.968,375.413 251.631,378.218 270.866 C 382.049 297.148,391.147 291.399,390.508 263.100 C 389.925 237.356,387.977 233.024,376.078 231.013 C 366.994 229.478,366.604 228.857,371.400 223.558 C 383.657 210.014,365.501 190.568,350.445 201.113 M292.000 289.000 L 292.000 342.000 306.000 342.000 L 320.000 342.000 320.000 289.000 L 320.000 236.000 306.000 236.000 L 292.000 236.000 292.000 289.000 M362.000 254.000 C 362.000 259.500,361.100 264.000,360.000 264.000 C 357.816 264.000,357.267 252.239,359.214 247.164 C 361.271 241.802,362.000 243.591,362.000 254.000 M244.000 301.000 L 244.000 342.000 259.000 342.000 L 274.000 342.000 274.000 301.000 L 274.000 260.000 259.000 260.000 L 244.000 260.000 244.000 301.000 M198.000 312.000 L 198.000 342.000 213.000 342.000 L 228.000 342.000 228.000 312.000 L 228.000 282.000 213.000 282.000 L 198.000 282.000 198.000 312.000 " stroke="none" fill="currentColor" fill-rule="evenodd"></path></g></svg>