<svg id="svg" version="1.1" xmlns="http://www.w3.org/2000/svg" xmlns:xlink="http://www.w3.org/1999/xlink" width="400" height="541.7989417989418" viewBox="0, 0, 400,541.7989417989418"><g id="svgg"><path id="path0" d="M212.281 2.615 C 208.850 4.025,203.374 6.775,200.111 8.725 C 180.281 20.581,163.754 22.891,140.861 17.007 C 109.497 8.946,88.253 19.727,81.849 46.953 C 78.613 60.715,70.573 76.189,61.612 85.907 C 59.445 88.257,56.675 91.263,55.456 92.585 C 52.222 96.096,43.896 101.661,35.605 105.855 C 13.266 117.154,7.819 144.954,23.089 169.732 C 36.193 190.994,37.498 204.392,29.232 232.804 C 22.493 255.966,38.029 285.720,59.096 289.997 C 81.344 294.515,87.877 297.513,98.599 308.124 C 104.545 314.009,106.710 317.211,111.554 327.286 C 119.444 343.700,123.297 346.942,142.599 353.409 C 163.671 360.469,173.961 359.601,186.981 349.667 C 206.191 335.009,228.313 331.317,247.090 339.635 C 259.860 345.292,267.870 344.884,280.952 337.911 C 298.711 328.445,304.540 320.677,309.488 299.879 C 314.590 278.430,323.660 266.860,343.820 256.085 C 372.104 240.967,379.884 211.785,362.618 185.576 C 350.334 166.930,347.763 147.599,354.103 121.540 C 361.170 92.489,347.720 71.170,317.460 63.461 C 295.868 57.961,280.423 46.171,271.355 28.270 C 259.440 4.749,233.983 -6.307,212.281 2.615 M206.349 48.655 C 240.607 53.700,264.325 65.289,285.805 87.476 C 342.306 145.837,332.687 240.799,265.745 285.518 C 238.748 303.552,209.029 310.682,176.692 306.883 C 167.815 305.840,166.325 305.519,153.968 301.992 C 82.994 281.732,44.525 200.902,71.937 129.630 C 91.962 77.563,152.993 40.796,206.349 48.655 M179.894 64.166 C 175.535 64.580,164.796 67.050,155.554 69.765 C 111.972 82.568,78.986 129.032,78.872 177.778 C 78.632 280.044,201.440 330.503,274.287 258.070 C 323.502 209.135,316.407 127.408,259.259 84.956 C 251.932 79.513,233.000 69.841,229.673 69.841 C 229.051 69.841,227.716 69.401,226.705 68.862 C 220.390 65.497,193.884 62.838,179.894 64.166 M263.769 129.906 L 274.059 140.235 225.654 188.630 L 177.249 237.025 151.044 210.861 L 124.840 184.697 135.432 174.104 L 146.025 163.512 161.121 178.582 C 169.424 186.870,176.690 193.651,177.268 193.651 C 177.845 193.651,194.980 176.984,215.344 156.614 C 235.708 136.243,252.619 119.577,252.924 119.577 C 253.229 119.577,258.110 124.225,263.769 129.906 M334.921 354.610 C 328.395 359.586,314.320 368.744,307.344 372.551 C 296.633 378.396,286.895 383.069,285.426 383.069 C 284.653 383.069,283.569 383.484,283.016 383.992 C 281.360 385.512,263.668 391.144,252.910 393.575 C 247.381 394.825,240.849 396.299,238.394 396.852 C 235.940 397.405,231.297 398.167,228.077 398.545 C 224.857 398.924,222.222 399.420,222.222 399.648 C 222.222 400.292,227.376 412.484,230.790 419.915 C 232.480 423.593,233.862 426.796,233.862 427.031 C 233.862 427.267,235.250 430.491,236.947 434.194 C 238.643 437.898,243.706 449.457,248.198 459.882 C 252.690 470.307,258.139 482.884,260.308 487.831 C 262.476 492.778,267.349 503.968,271.137 512.698 C 285.472 545.738,284.693 544.488,286.469 537.302 C 287.081 534.828,289.275 527.328,291.346 520.635 C 293.417 513.942,296.298 504.418,297.749 499.471 C 299.199 494.524,303.037 481.672,306.277 470.912 C 309.518 460.151,312.169 450.766,312.169 450.056 C 312.169 449.210,313.905 449.631,317.196 451.273 C 319.960 452.653,325.317 455.201,329.101 456.935 C 338.720 461.347,358.141 470.501,386.546 484.014 C 402.353 491.533,401.730 491.631,397.419 482.304 C 395.999 479.233,393.563 473.624,392.006 469.841 C 390.448 466.058,388.305 461.058,387.243 458.730 C 386.181 456.402,383.107 449.280,380.413 442.902 C 377.719 436.525,374.644 429.382,373.581 427.029 C 372.518 424.676,370.363 419.656,368.792 415.873 C 365.928 408.977,365.444 407.859,360.396 396.529 C 358.898 393.166,357.672 390.203,357.672 389.945 C 357.672 389.687,356.543 386.963,355.162 383.891 C 351.017 374.668,345.420 361.696,343.281 356.353 C 340.920 350.457,340.484 350.367,334.921 354.610 M57.885 360.589 C 57.006 362.768,54.529 368.360,52.382 373.016 C 43.649 391.952,42.328 394.873,42.328 395.249 C 42.328 395.465,40.476 399.599,38.213 404.435 C 35.950 409.271,29.732 422.989,24.396 434.921 C 19.060 446.852,14.048 458.042,13.258 459.788 C 12.469 461.534,10.539 465.820,8.970 469.312 C 7.401 472.804,4.727 478.702,3.026 482.419 C -0.956 491.125,-0.992 491.116,11.844 484.872 C 17.843 481.954,25.966 478.093,29.894 476.291 C 43.736 469.944,50.410 466.821,65.079 459.827 C 73.228 455.942,81.459 452.020,83.371 451.111 C 87.950 448.935,87.182 447.010,102.251 498.413 C 103.702 503.360,106.575 512.884,108.636 519.577 C 110.697 526.270,112.839 533.651,113.395 535.979 C 114.894 542.248,116.104 542.775,118.075 538.018 C 119.022 535.732,120.894 531.481,122.237 528.571 C 123.579 525.661,128.591 514.233,133.375 503.175 C 138.159 492.116,143.380 480.212,144.976 476.720 C 146.573 473.228,149.903 465.608,152.376 459.788 C 154.850 453.968,158.482 445.719,160.447 441.457 C 162.413 437.195,164.021 433.519,164.021 433.287 C 164.021 433.056,165.280 430.115,166.819 426.751 C 171.553 416.405,176.720 404.092,176.720 403.157 C 176.720 402.668,173.981 401.967,170.635 401.599 C 164.602 400.934,162.925 400.631,146.561 397.246 C 136.252 395.113,123.936 391.762,121.443 390.413 C 120.432 389.866,119.076 389.418,118.428 389.418 C 117.124 389.418,113.298 387.807,101.849 382.436 C 97.628 380.456,93.954 378.836,93.685 378.836 C 92.575 378.836,76.193 368.528,69.312 363.501 C 65.238 360.524,61.360 357.759,60.694 357.358 C 59.945 356.906,58.874 358.138,57.885 360.589 " stroke="none" fill="currentColor" fill-rule="evenodd"></path></g></svg>