<svg id="svg" version="1.1" xmlns="http://www.w3.org/2000/svg" xmlns:xlink="http://www.w3.org/1999/xlink" width="400" height="399.25373134328356" viewBox="0, 0, 400,399.25373134328356"><g id="svgg"><path id="path0" d="M181.716 12.049 C 180.075 12.434,176.381 13.267,173.507 13.899 C 167.558 15.209,152.497 21.033,148.336 23.634 C 146.805 24.590,145.384 25.373,145.179 25.373 C 144.419 25.373,136.763 30.562,131.106 34.911 C 93.543 63.790,78.819 116.671,96.306 159.888 C 98.337 164.907,98.339 164.926,96.747 165.000 C 95.251 165.069,95.262 165.106,96.914 165.569 C 98.075 165.895,99.532 167.643,101.179 170.686 C 106.913 181.283,112.427 188.593,121.806 198.028 C 127.051 203.305,131.343 207.416,131.343 207.164 C 131.343 206.912,132.938 207.817,134.888 209.176 C 147.952 218.278,161.144 224.118,177.750 228.152 C 184.736 229.849,210.539 230.050,217.537 228.462 C 242.845 222.720,258.050 214.739,275.173 198.211 C 285.124 188.605,296.821 171.252,299.622 161.940 C 299.930 160.914,300.431 159.739,300.734 159.328 C 301.341 158.507,303.708 150.739,305.568 143.461 C 309.497 128.085,306.933 95.663,300.802 83.209 C 300.397 82.388,299.207 79.616,298.157 77.049 C 285.378 45.820,255.803 21.157,222.388 13.865 C 219.310 13.193,215.359 12.318,213.609 11.919 C 209.618 11.010,185.728 11.107,181.716 12.049 M191.791 45.896 L 191.791 67.164 176.866 67.164 C 168.657 67.164,161.940 66.934,161.940 66.653 C 161.940 64.666,171.206 48.658,176.589 41.344 C 180.046 36.649,190.776 24.627,191.511 24.627 C 191.665 24.627,191.791 34.198,191.791 45.896 M207.439 28.172 C 207.452 28.685,207.882 29.120,208.396 29.138 C 211.542 29.251,233.582 61.868,233.582 66.412 C 233.582 66.892,228.194 67.164,218.657 67.164 L 203.731 67.164 203.731 45.861 L 203.731 24.557 205.574 25.898 C 206.587 26.635,207.426 27.659,207.439 28.172 M172.473 26.679 C 172.080 27.397,170.557 29.287,169.089 30.877 C 167.620 32.468,166.418 33.864,166.418 33.980 C 166.418 34.096,164.203 37.496,161.495 41.536 C 158.788 45.575,154.674 52.811,152.354 57.616 L 148.134 66.351 132.232 66.384 C 119.706 66.411,116.447 66.220,116.883 65.485 C 126.289 49.611,145.645 34.632,166.418 27.152 C 172.395 24.999,173.436 24.918,172.473 26.679 M227.663 27.309 C 231.556 28.451,232.835 28.956,240.299 32.299 C 254.622 38.715,272.358 54.107,279.397 66.231 C 279.824 66.966,276.448 67.164,263.527 67.164 C 247.151 67.164,247.114 67.161,246.622 65.485 C 244.940 59.766,235.065 42.905,228.375 34.328 C 221.055 24.946,221.099 25.383,227.663 27.309 M143.662 80.410 C 142.283 83.827,139.456 98.259,138.693 105.784 L 137.841 114.179 119.184 114.179 L 100.526 114.179 101.028 107.651 C 101.304 104.060,101.846 100.114,102.232 98.882 C 102.618 97.650,103.650 94.123,104.525 91.045 C 105.400 87.966,106.763 84.021,107.554 82.276 L 108.993 79.104 126.591 79.104 C 143.055 79.104,144.156 79.189,143.662 80.410 M191.791 96.642 L 191.791 114.179 170.881 114.179 L 149.972 114.179 150.331 112.500 C 150.528 111.576,151.073 107.631,151.542 103.731 C 152.378 96.764,155.526 81.173,156.373 79.803 C 156.621 79.401,164.242 79.104,174.298 79.104 L 191.791 79.104 191.791 96.642 M239.468 82.276 C 241.573 88.785,245.411 108.261,245.498 112.873 C 245.521 114.086,244.039 114.179,224.627 114.179 L 203.731 114.179 203.731 96.642 L 203.731 79.104 221.087 79.104 L 238.443 79.104 239.468 82.276 M288.777 84.742 C 291.851 92.748,294.113 101.975,294.574 108.396 L 294.989 114.179 276.260 114.179 L 257.530 114.179 257.162 111.754 C 256.959 110.420,256.603 106.589,256.370 103.240 C 255.980 97.638,253.205 83.507,251.883 80.397 C 251.355 79.153,252.340 79.089,269.039 79.277 L 286.755 79.478 288.777 84.742 M191.791 143.284 L 191.791 161.194 174.404 161.194 L 157.016 161.194 156.144 158.769 C 154.401 153.924,151.331 138.576,150.248 129.291 L 149.791 125.373 170.791 125.373 L 191.791 125.373 191.791 143.284 M139.071 133.586 C 139.340 137.693,139.893 142.479,140.299 144.221 C 140.705 145.963,141.810 150.578,142.754 154.478 L 144.471 161.567 126.839 161.355 L 109.206 161.143 106.830 155.385 C 103.924 148.343,101.751 139.480,101.060 131.850 L 100.540 126.119 119.561 126.119 L 138.582 126.119 139.071 133.586 M245.073 128.545 C 244.878 129.879,244.260 134.328,243.699 138.433 C 243.139 142.537,241.954 148.750,241.066 152.239 C 240.178 155.728,239.267 159.338,239.042 160.261 L 238.632 161.940 221.182 161.940 L 203.731 161.940 203.731 144.030 L 203.731 126.119 224.580 126.119 L 245.429 126.119 245.073 128.545 M294.536 131.530 C 293.840 139.717,290.509 152.408,287.534 158.209 C 287.007 159.235,286.575 160.410,286.572 160.821 C 286.570 161.303,280.342 161.492,268.961 161.354 C 252.671 161.157,251.393 161.045,251.879 159.861 C 253.257 156.509,256.043 142.280,256.817 134.642 L 257.681 126.119 276.338 126.119 L 294.995 126.119 294.536 131.530 M70.896 167.120 C 70.896 167.917,70.560 168.776,70.149 169.030 C 69.659 169.333,69.403 198.262,69.403 253.388 L 69.403 337.285 71.259 337.751 C 72.280 338.007,76.058 337.768,79.654 337.220 C 94.083 335.020,143.284 336.264,143.284 338.828 C 143.284 339.135,144.543 339.619,146.082 339.904 C 147.621 340.188,150.728 341.370,152.985 342.530 C 155.243 343.689,158.517 345.224,160.261 345.940 C 162.006 346.656,163.433 347.465,163.433 347.737 C 163.433 348.010,164.732 348.963,166.320 349.855 C 167.908 350.748,171.266 353.701,173.783 356.417 C 178.054 361.027,179.592 363.485,177.425 362.238 C 176.883 361.926,176.753 361.986,177.114 362.380 C 177.456 362.754,178.044 363.102,178.420 363.153 C 178.797 363.204,179.402 363.288,179.765 363.340 C 180.128 363.391,181.488 365.532,182.786 368.097 L 185.147 372.761 180.447 367.630 C 176.443 363.260,169.925 357.294,164.447 352.985 C 162.495 351.450,156.176 348.507,154.831 348.507 C 154.226 348.507,153.731 348.232,153.731 347.896 C 153.731 347.559,150.289 346.513,146.082 345.571 C 141.875 344.628,137.625 343.476,136.637 343.011 C 134.286 341.902,87.074 341.952,85.666 343.064 C 85.136 343.483,82.687 344.042,80.224 344.305 C 74.627 344.903,63.932 347.111,63.433 347.771 C 63.228 348.043,62.301 348.457,61.374 348.691 L 59.688 349.117 59.881 269.346 L 60.075 189.575 53.315 189.827 C 49.563 189.967,45.579 190.548,44.360 191.132 L 42.164 192.184 41.974 278.555 C 41.793 361.317,41.841 364.925,43.129 364.925 C 45.631 364.925,58.566 361.894,61.106 360.712 C 62.494 360.066,66.692 359.005,70.434 358.353 C 74.177 357.702,77.407 356.947,77.612 356.675 C 78.034 356.117,87.686 354.902,101.493 353.667 C 121.319 351.895,154.478 353.808,154.478 356.724 C 154.478 357.039,155.599 357.507,156.969 357.764 C 159.604 358.258,167.598 362.806,172.698 366.712 C 175.828 369.109,184.401 378.078,181.716 376.147 C 180.896 375.556,179.888 374.703,179.478 374.250 C 178.248 372.895,170.700 368.211,168.097 367.189 C 166.763 366.665,165.672 365.886,165.672 365.457 C 165.672 365.028,165.451 364.898,165.181 365.168 C 164.911 365.438,164.323 365.362,163.875 364.999 C 163.426 364.636,160.877 363.774,158.209 363.083 C 155.541 362.391,152.834 361.552,152.193 361.218 C 146.101 358.043,83.157 357.991,80.597 361.160 C 80.392 361.414,75.858 362.403,70.522 363.357 C 65.187 364.312,60.476 365.370,60.055 365.709 C 59.633 366.047,56.779 366.889,53.711 367.579 C 50.644 368.270,47.799 369.037,47.388 369.284 C 46.978 369.532,46.306 369.811,45.896 369.905 C 45.485 369.998,42.547 370.905,39.366 371.920 L 33.582 373.765 33.582 295.630 L 33.582 217.496 32.031 216.168 C 31.005 215.290,30.184 215.079,29.606 215.546 C 29.125 215.934,26.213 216.459,23.134 216.712 C 20.056 216.966,16.958 217.243,16.250 217.328 C 15.039 217.475,14.960 222.602,14.935 303.231 C 14.920 350.392,14.776 389.191,14.616 389.452 C 13.767 390.832,19.426 389.968,23.403 388.110 C 25.923 386.932,30.000 385.391,32.463 384.685 C 34.925 383.979,37.276 383.153,37.687 382.849 C 38.097 382.545,40.951 381.546,44.030 380.628 C 47.108 379.710,49.963 378.686,50.373 378.353 C 50.784 378.019,53.302 377.194,55.970 376.521 C 58.638 375.847,61.890 374.805,63.197 374.204 C 64.503 373.603,69.037 372.579,73.271 371.928 C 77.506 371.278,81.642 370.457,82.463 370.105 C 92.929 365.612,146.516 365.617,156.343 370.112 C 157.164 370.487,160.438 371.538,163.619 372.446 C 166.800 373.355,169.403 374.385,169.403 374.736 C 169.403 375.086,169.991 375.374,170.709 375.376 C 171.932 375.379,175.467 377.246,178.165 379.315 C 178.817 379.815,181.454 382.323,184.025 384.888 C 186.596 387.453,189.049 389.552,189.475 389.552 C 190.616 389.552,190.838 371.753,190.483 308.769 L 190.299 276.119 168.470 276.109 C 140.433 276.096,143.190 277.154,143.447 266.511 L 143.657 257.836 167.537 257.836 L 191.418 257.836 191.195 246.893 L 190.971 235.951 187.090 235.446 C 167.618 232.911,151.027 226.561,133.523 214.943 C 119.183 205.426,107.668 192.447,98.439 175.402 L 93.171 165.672 82.033 165.672 C 71.506 165.672,70.896 165.751,70.896 167.120 M303.374 169.373 C 285.665 204.319,243.019 235.075,212.270 235.075 L 208.282 235.075 208.059 246.455 L 207.836 257.836 231.716 257.836 L 255.597 257.836 255.807 266.566 L 256.017 275.297 253.568 275.743 C 252.221 275.989,241.549 276.090,229.851 275.968 L 208.582 275.746 208.622 323.881 C 208.669 380.722,208.800 389.552,209.598 389.552 C 209.928 389.552,212.806 387.002,215.994 383.886 C 222.256 377.765,229.903 373.522,238.060 371.645 C 240.317 371.125,242.500 370.445,242.910 370.132 C 248.736 365.701,306.669 365.671,316.791 370.093 C 317.612 370.452,321.748 371.278,325.982 371.928 C 330.217 372.579,334.750 373.597,336.057 374.189 C 337.364 374.782,340.784 375.945,343.657 376.774 C 350.640 378.788,360.730 382.284,361.194 382.852 C 361.399 383.103,364.338 384.088,367.724 385.041 C 371.110 385.995,373.881 386.994,373.881 387.263 C 373.881 387.940,381.384 390.207,383.209 390.082 C 384.506 389.992,385.053 218.999,383.759 218.170 C 382.326 217.252,377.999 216.418,374.665 216.418 C 372.345 216.418,370.053 216.023,369.570 215.540 C 368.897 214.867,368.340 214.981,367.182 216.029 C 365.684 217.384,365.672 218.039,365.672 295.580 L 365.672 373.765 359.888 371.920 C 356.707 370.905,353.769 369.975,353.358 369.852 C 352.948 369.729,352.108 369.437,351.493 369.204 C 350.877 368.971,347.854 368.197,344.776 367.485 C 341.698 366.773,339.011 365.949,338.806 365.654 C 338.601 365.359,334.067 364.339,328.731 363.387 C 323.396 362.435,318.862 361.441,318.657 361.177 C 316.174 357.990,247.015 358.102,247.015 361.294 C 247.015 361.649,246.235 361.940,245.282 361.940 C 243.272 361.940,236.628 364.050,235.261 365.123 C 234.748 365.525,234.328 365.621,234.328 365.337 C 234.328 365.052,233.801 365.346,233.156 365.991 C 232.511 366.636,231.576 367.164,231.078 367.164 C 230.581 367.164,228.338 368.309,226.094 369.708 C 221.873 372.341,221.339 372.745,217.123 376.493 C 215.738 377.724,216.751 376.381,219.373 373.507 C 221.996 370.634,224.838 367.799,225.690 367.207 C 226.542 366.616,227.407 365.910,227.612 365.641 C 228.169 364.908,239.796 358.209,240.510 358.209 C 240.849 358.209,242.535 357.568,244.257 356.784 C 250.580 353.907,257.990 352.985,274.782 352.988 C 292.976 352.991,316.947 354.903,321.269 356.697 C 322.090 357.038,325.773 357.872,329.454 358.551 C 333.135 359.231,337.165 360.260,338.409 360.838 C 340.859 361.978,353.519 364.925,355.962 364.925 C 357.457 364.925,357.463 364.579,357.463 278.693 L 357.463 192.461 354.664 191.262 C 353.052 190.571,349.176 189.962,345.522 189.827 L 339.179 189.591 339.372 269.354 L 339.566 349.117 337.880 348.691 C 336.953 348.457,336.026 348.043,335.821 347.771 C 335.322 347.111,324.627 344.903,319.030 344.305 C 316.567 344.042,314.109 343.476,313.568 343.048 C 312.035 341.835,262.533 341.882,262.127 343.097 C 261.956 343.610,261.008 344.030,260.021 344.030 C 257.263 344.030,247.103 346.906,242.703 348.932 C 240.537 349.930,238.441 350.746,238.045 350.746 C 237.649 350.746,234.130 353.432,230.225 356.715 C 226.321 359.998,222.724 362.601,222.232 362.499 C 221.741 362.397,221.323 362.824,221.304 363.447 C 221.265 364.694,214.887 372.598,214.351 372.063 C 211.636 369.348,232.452 348.212,240.994 345.011 C 242.869 344.308,244.571 343.523,244.776 343.265 C 244.981 343.008,247.164 342.022,249.627 341.075 C 252.090 340.128,254.776 339.079,255.597 338.745 C 262.422 335.967,303.031 335.019,319.298 337.258 C 324.162 337.928,327.425 338.066,328.099 337.631 C 329.209 336.915,329.717 173.396,328.626 167.942 L 328.172 165.672 316.710 165.672 L 305.249 165.672 303.374 169.373 M148.514 174.067 C 148.518 174.580,149.347 176.679,150.357 178.731 C 151.366 180.784,152.203 182.705,152.215 183.001 C 152.228 183.297,153.771 186.131,155.644 189.299 C 157.517 192.467,159.112 195.369,159.189 195.748 C 159.266 196.128,159.901 197.156,160.602 198.032 C 165.619 204.315,172.270 213.842,171.758 214.014 C 170.870 214.313,157.850 209.279,152.935 206.737 C 143.556 201.885,131.671 192.933,125.826 186.316 C 121.841 181.805,115.672 173.941,115.672 173.373 C 115.672 173.242,123.060 173.134,132.090 173.134 C 144.723 173.134,148.509 173.349,148.514 174.067 M191.791 194.447 C 191.791 214.289,191.310 218.989,189.923 212.678 C 189.654 211.451,189.151 210.448,188.806 210.448 C 188.461 210.448,187.968 209.489,187.711 208.318 C 186.847 204.388,180.704 195.990,172.875 188.038 C 166.439 181.501,161.940 175.536,161.940 173.537 C 161.940 173.316,168.657 173.134,176.866 173.134 L 191.791 173.134 191.791 194.447 M279.104 173.807 C 279.104 179.613,253.895 202.349,241.261 207.937 C 238.884 208.988,235.597 210.449,233.955 211.183 C 231.408 212.323,223.485 214.925,222.564 214.925 C 222.399 214.925,222.879 214.131,223.632 213.161 C 235.155 198.299,238.863 192.445,245.320 178.918 L 248.080 173.134 263.592 173.134 C 272.310 173.134,279.104 173.429,279.104 173.807 M233.582 174.169 C 233.582 176.738,224.628 190.312,222.725 190.628 C 221.924 190.761,221.369 191.294,221.491 191.812 C 221.614 192.330,220.911 193.628,219.930 194.698 C 217.819 196.999,214.378 202.041,211.728 206.716 C 210.681 208.563,208.453 211.402,206.778 213.025 L 203.731 215.975 203.731 194.928 L 203.731 173.881 218.657 173.881 C 226.866 173.881,233.582 174.011,233.582 174.169 M132.990 187.609 C 143.364 197.679,151.694 203.518,159.733 206.354 C 164.095 207.893,164.191 208.179,156.694 197.350 C 153.014 192.035,149.079 185.424,147.950 182.658 L 145.896 177.630 134.328 177.655 L 122.761 177.680 132.990 187.609 M244.438 185.884 C 242.188 190.433,238.223 197.066,235.626 200.622 C 233.029 204.179,230.655 207.496,230.352 207.993 C 229.128 209.994,245.639 201.805,251.453 197.527 C 258.632 192.244,270.149 180.242,270.149 178.042 C 270.149 177.805,265.284 177.612,259.338 177.612 L 248.527 177.612 244.438 185.884 " stroke="none" fill="currentColor" fill-rule="evenodd"></path></g></svg>