<svg id="svg" xmlns="http://www.w3.org/2000/svg" xmlns:xlink="http://www.w3.org/1999/xlink" width="400" height="400" viewBox="0, 0, 400,400"><g id="svgg"><path id="path0" d="M176.645 4.816 C 59.662 18.108,-15.112 123.267,8.030 241.951 C 25.824 333.210,103.860 396.164,199.182 396.159 C 325.278 396.154,414.654 288.714,392.893 163.295 C 375.266 61.703,281.401 -7.087,176.645 4.816 M216.640 14.751 C 330.357 24.493,405.046 127.212,381.397 241.339 C 360.684 341.296,262.882 403.114,159.214 381.774 C 69.544 363.316,8.637 282.021,14.663 188.834 C 20.909 92.226,89.014 22.642,185.280 14.511 C 191.285 14.004,209.551 14.144,216.640 14.751 M115.840 50.781 C 115.840 63.947,114.985 76.772,112.592 99.520 C 103.421 186.689,116.891 217.822,186.720 270.863 C 196.102 277.989,195.773 277.467,193.693 281.920 C 188.460 293.129,170.409 302.668,122.240 319.682 C 104.985 325.777,93.493 330.141,90.321 331.803 C 88.954 332.519,90.970 332.688,104.363 332.983 C 148.132 333.946,172.243 344.418,183.107 367.181 C 185.411 372.007,184.394 371.983,191.690 367.386 C 212.047 354.561,221.611 343.146,228.748 323.158 L 230.867 317.223 239.114 315.177 C 278.696 305.355,310.370 277.428,316.113 247.285 C 318.755 233.419,320.772 232.138,333.679 236.127 C 341.810 238.640,341.817 238.638,338.387 234.971 C 334.326 230.629,332.985 227.637,331.934 220.573 C 328.200 195.484,303.805 188.383,281.006 205.749 C 269.404 214.586,257.808 216.929,251.118 211.788 C 233.240 198.051,221.090 178.906,207.047 142.341 C 195.482 112.229,177.064 88.358,144.640 61.457 C 135.075 53.520,117.526 40.320,116.541 40.320 C 116.062 40.320,115.840 43.628,115.840 50.781 M256.370 56.629 C 230.274 76.148,213.038 103.054,208.191 131.840 L 207.167 137.920 211.837 149.721 C 222.619 176.967,234.493 195.473,249.009 207.652 C 255.071 212.738,257.877 213.566,263.521 211.936 L 264.962 211.520 262.985 207.360 C 239.813 158.617,238.289 107.844,258.543 59.327 C 261.094 53.216,261.033 53.141,256.370 56.629 " stroke="none" fill="currentColor" fill-rule="evenodd"></path></g></svg>