<?xml version="1.0" standalone="no"?>
<!DOCTYPE svg PUBLIC "-//W3C//DTD SVG 20010904//EN"
 "http://www.w3.org/TR/2001/REC-SVG-20010904/DTD/svg10.dtd">
<svg version="1.0" xmlns="http://www.w3.org/2000/svg"
 width="742.000000pt" height="742.000000pt" viewBox="0 0 742.000000 742.000000"
 preserveAspectRatio="xMidYMid meet">

<g transform="translate(0.000000,742.000000) scale(0.100000,-0.100000)"
fill="currentColor" stroke="none">
<path d="M3820 7225 c0 -8 -7 -15 -15 -15 -8 0 -15 -4 -15 -10 0 -5 -6 -10
-12 -10 -17 0 -14 -603 2 -608 5 -2 10 -10 10 -18 0 -9 5 -12 10 -9 6 4 17 2
24 -4 9 -8 21 -7 44 4 28 14 30 18 24 57 -3 29 -1 44 9 52 11 9 14 59 14 266
0 251 -3 280 -33 280 -6 0 -12 7 -16 15 -3 8 -15 15 -26 15 -11 0 -20 -7 -20
-15z"/>
<path d="M3010 6958 c0 -5 -9 -18 -20 -30 -11 -12 -20 -28 -20 -36 0 -16 19
-55 32 -63 5 -3 10 -16 11 -27 1 -12 5 -22 9 -22 5 0 13 -11 18 -25 5 -14 14
-25 19 -25 6 0 8 -7 5 -15 -4 -8 -1 -15 5 -15 6 0 8 -7 5 -15 -4 -10 0 -15 12
-15 9 0 14 -3 11 -7 -4 -3 3 -17 15 -30 12 -13 18 -23 14 -23 -4 0 2 -13 13
-29 12 -16 21 -36 21 -45 0 -9 7 -16 15 -16 9 0 12 -6 9 -15 -4 -8 -1 -15 6
-15 6 0 8 -5 5 -10 -3 -6 1 -13 9 -16 9 -3 16 -14 16 -24 0 -10 7 -21 16 -24
9 -4 14 -9 10 -13 -10 -10 24 -42 39 -37 7 3 16 0 20 -5 3 -6 11 -8 17 -5 6 4
20 7 32 8 13 1 20 8 20 19 -1 9 4 17 12 17 19 0 14 50 -7 74 -10 10 -15 24
-12 32 3 8 -1 14 -11 14 -10 0 -13 6 -10 15 4 8 1 15 -7 15 -7 0 -10 3 -6 6 3
3 -3 14 -14 25 -11 11 -17 24 -14 28 2 5 -2 11 -10 15 -8 3 -15 11 -15 18 0 7
-9 24 -19 37 -10 14 -17 31 -14 38 3 8 -2 13 -13 13 -9 0 -15 3 -11 6 3 4 -5
22 -18 42 -13 19 -22 39 -19 44 3 4 0 8 -6 8 -6 0 -15 11 -20 25 -5 14 -14 25
-19 25 -6 0 -8 7 -5 15 4 8 1 15 -5 15 -6 0 -8 7 -5 15 4 9 0 15 -9 15 -8 0
-17 6 -19 12 -5 14 -88 20 -88 6z"/>
<path d="M4635 6962 c-42 -4 -77 -23 -71 -39 3 -7 -1 -13 -10 -13 -8 0 -14 -6
-12 -13 2 -6 -7 -26 -19 -43 -12 -17 -20 -34 -16 -37 3 -4 -2 -9 -11 -13 -9
-3 -13 -10 -10 -15 3 -5 0 -9 -6 -9 -6 0 -9 -4 -6 -9 3 -5 -1 -12 -10 -15 -8
-3 -12 -10 -9 -16 3 -5 1 -10 -5 -10 -7 0 -10 -6 -7 -14 3 -8 -1 -17 -9 -20
-9 -3 -13 -10 -9 -16 3 -5 -3 -15 -14 -21 -10 -7 -17 -19 -14 -26 3 -7 0 -13
-7 -13 -6 0 -8 -4 -5 -10 3 -5 1 -10 -4 -10 -6 0 -11 -7 -11 -15 0 -8 -5 -15
-11 -15 -5 0 -7 -4 -4 -10 3 -5 -1 -10 -10 -10 -11 0 -15 -5 -11 -15 3 -8 1
-15 -5 -15 -6 0 -9 -5 -7 -12 3 -7 -3 -20 -11 -30 -17 -20 -24 -78 -10 -78 5
0 6 -7 3 -15 -7 -17 -9 -16 61 -19 37 -1 55 3 68 16 9 10 14 18 11 18 -4 0 -1
7 6 15 7 8 9 15 6 15 -4 0 2 10 13 22 11 11 18 25 15 30 -3 4 2 8 11 8 11 0
15 5 11 15 -3 8 -1 15 5 15 6 0 9 6 6 13 -3 8 3 20 13 27 10 7 16 19 13 27 -3
7 2 13 11 13 9 0 15 3 15 8 -4 24 3 42 17 42 8 0 12 5 9 10 -3 6 -1 10 5 10 7
0 10 7 6 15 -3 9 0 15 10 15 10 0 14 6 11 15 -4 8 -2 17 4 20 5 4 6 11 3 17
-4 6 -2 8 3 5 9 -6 20 7 28 33 8 24 32 67 42 73 20 12 15 39 -10 62 -13 11
-26 25 -28 30 -2 6 -17 9 -34 7z"/>
<path d="M3755 6232 c-3 -9 -13 -12 -26 -9 -19 5 -56 -8 -69 -24 -3 -4 -15 -9
-27 -13 -13 -4 -23 -12 -23 -17 0 -6 -4 -8 -9 -5 -11 7 -122 -104 -115 -115 3
-5 -2 -9 -11 -9 -11 0 -15 -5 -11 -15 3 -8 1 -15 -4 -15 -5 0 -7 -7 -4 -15 4
-10 0 -15 -10 -15 -12 0 -15 -6 -10 -25 3 -14 2 -25 -3 -25 -19 0 -19 -208 0
-237 4 -6 4 -18 1 -27 -4 -10 -1 -16 10 -16 10 0 13 -6 10 -15 -4 -8 -1 -15 5
-15 6 0 8 -7 5 -15 -4 -10 0 -15 11 -15 9 0 14 -4 11 -9 -8 -12 103 -123 115
-115 5 3 9 1 9 -5 0 -11 56 -41 77 -41 7 0 13 -5 13 -10 0 -6 11 -8 25 -4 17
4 27 1 31 -9 7 -20 153 -19 177 1 9 8 21 11 27 7 6 -4 17 -1 25 5 8 6 18 9 24
6 5 -3 12 1 15 10 3 8 10 13 14 10 5 -3 19 4 30 15 12 11 22 17 22 13 0 -4 21
14 48 41 26 27 46 52 44 57 -1 4 4 7 10 6 7 -2 12 3 10 10 -1 6 3 12 9 12 6 0
9 7 5 15 -3 9 0 15 10 15 10 0 14 6 11 15 -4 8 -2 17 3 20 5 3 6 13 3 22 -3 9
0 19 9 24 19 11 20 208 0 231 -7 9 -10 23 -6 32 3 9 1 16 -5 16 -6 0 -8 7 -5
15 4 9 0 15 -10 15 -10 0 -13 6 -10 15 4 8 1 15 -5 15 -6 0 -10 6 -9 13 2 6
-3 11 -10 9 -6 -1 -11 2 -10 6 2 5 -18 30 -44 57 -27 27 -48 45 -48 41 0 -4
-10 2 -22 13 -11 11 -24 18 -28 16 -5 -3 -10 2 -14 10 -3 8 -12 12 -20 9 -8
-3 -17 -1 -20 5 -4 6 -13 8 -21 4 -9 -3 -22 1 -31 8 -23 19 -172 20 -179 1z"/>
<path d="M2705 5872 c-3 -8 -12 -12 -20 -8 -8 3 -20 -3 -27 -12 -7 -9 -20 -17
-28 -17 -8 0 -14 -8 -14 -17 1 -10 -2 -16 -6 -13 -7 4 -22 -19 -24 -38 -1 -4
-6 -11 -11 -15 -16 -11 -16 -162 0 -162 7 0 13 -6 12 -12 -1 -34 4 -48 18 -48
9 0 12 -6 9 -15 -4 -8 -1 -15 5 -15 6 0 8 -7 5 -15 -4 -9 0 -15 10 -15 10 0
13 -6 10 -15 -4 -8 -1 -15 5 -15 6 0 8 -7 5 -15 -4 -9 0 -15 10 -15 10 0 13
-6 10 -15 -4 -8 -1 -15 5 -15 6 0 8 -7 5 -15 -4 -9 0 -15 10 -15 10 0 13 -6
10 -15 -4 -8 -1 -15 5 -15 6 0 8 -7 5 -15 -4 -9 0 -15 10 -15 10 0 13 -6 10
-15 -4 -8 -1 -15 5 -15 6 0 8 -7 5 -15 -4 -9 0 -15 10 -15 10 0 13 -6 10 -15
-4 -8 -1 -15 5 -15 6 0 8 -7 5 -15 -4 -9 0 -15 10 -15 10 0 13 -6 10 -15 -4
-8 -1 -15 5 -15 6 0 8 -7 5 -15 -4 -9 0 -15 10 -15 10 0 13 -6 10 -15 -4 -8
-1 -15 5 -15 6 0 8 -7 5 -15 -4 -9 0 -15 10 -15 10 0 13 -6 10 -15 -4 -8 -1
-15 5 -15 6 0 8 -7 5 -15 -4 -9 0 -15 10 -15 10 0 13 -6 10 -15 -4 -8 -1 -15
5 -15 6 0 8 -7 5 -15 -4 -9 0 -15 10 -15 10 0 13 -6 10 -15 -4 -8 -1 -15 5
-15 6 0 8 -7 5 -15 -4 -10 0 -15 11 -15 9 0 14 -4 10 -9 -3 -5 -1 -12 5 -16 6
-4 8 -11 5 -16 -4 -5 1 -12 9 -15 9 -3 14 -10 11 -14 -3 -5 -1 -11 5 -15 6 -4
8 -11 5 -16 -4 -5 1 -12 9 -15 9 -3 14 -10 11 -14 -3 -5 -1 -11 5 -15 6 -4 8
-11 5 -16 -4 -5 1 -12 9 -15 9 -3 14 -10 11 -14 -3 -5 -1 -11 5 -15 6 -4 8
-11 5 -16 -4 -5 1 -12 9 -15 9 -3 14 -10 11 -14 -3 -5 -1 -11 5 -15 6 -4 8
-10 5 -15 -3 -4 2 -11 11 -14 8 -3 13 -10 9 -15 -3 -5 -1 -12 5 -16 6 -4 8
-11 5 -16 -4 -5 1 -12 9 -15 9 -3 14 -10 11 -14 -3 -5 -1 -11 5 -15 6 -4 8
-10 5 -15 -3 -4 2 -11 11 -14 8 -3 12 -10 9 -16 -3 -5 -2 -10 3 -10 8 0 13
-11 22 -48 1 -4 6 -13 12 -19 6 -7 8 -13 4 -13 -3 0 3 -9 14 -20 11 -11 20
-27 20 -35 0 -8 5 -15 11 -15 6 0 9 -7 5 -15 -3 -8 -1 -15 4 -15 6 0 10 -6 10
-14 0 -8 4 -16 9 -18 5 -1 11 -12 13 -23 1 -11 7 -23 12 -27 10 -6 14 -30 19
-104 1 -23 8 -48 15 -56 6 -8 12 -32 12 -54 0 -75 5 -119 15 -134 10 -16 17
-85 16 -158 -1 -24 4 -53 11 -65 12 -21 16 -56 21 -212 1 -38 8 -80 15 -93 7
-12 12 -48 12 -80 -2 -114 5 -209 18 -224 7 -9 12 -41 12 -74 -1 -109 5 -199
15 -214 9 -14 13 -62 18 -220 1 -36 8 -75 15 -87 6 -12 12 -48 11 -80 -2 -111
6 -200 19 -215 8 -10 12 -41 12 -79 -1 -118 6 -204 19 -228 8 -15 11 -38 6
-66 -4 -29 0 -60 11 -96 15 -46 44 -89 59 -89 3 0 8 0 13 -1 4 -1 17 0 30 1
12 1 22 -3 22 -9 0 -6 46 -8 133 -5 186 6 187 6 187 15 0 5 7 6 15 3 9 -4 15
0 15 10 0 9 6 16 14 16 7 0 14 10 14 23 2 31 6 50 17 67 10 15 17 124 15 217
0 29 5 63 12 75 7 13 14 50 15 83 7 175 9 211 18 225 9 14 12 51 18 220 1 36
7 72 12 80 9 14 14 84 14 212 0 32 6 68 13 80 12 22 18 94 18 217 0 29 6 63
13 75 6 11 13 50 14 86 6 171 10 216 18 230 6 8 11 44 12 80 5 138 5 138 80
139 23 1 45 6 48 11 4 6 18 10 33 9 38 -2 55 3 70 23 7 9 19 15 27 12 9 -4 15
0 15 10 0 9 7 16 15 16 8 0 15 9 15 20 0 11 7 23 15 26 8 4 13 10 10 14 -3 5
-1 11 4 15 6 3 8 12 5 19 -3 7 2 19 11 26 18 15 20 81 3 98 -12 12 -19 66 -20
157 0 22 -6 43 -12 47 -6 4 -12 31 -14 60 -1 29 -4 71 -5 94 -1 22 -8 48 -14
56 -7 8 -13 32 -13 54 0 89 -6 132 -19 147 -9 12 -12 30 -7 56 3 23 2 42 -4
46 -5 3 -8 22 -5 42 2 19 -1 45 -8 57 -12 20 -15 48 -20 152 -1 28 -8 58 -14
66 -7 8 -14 25 -16 38 -2 13 -9 26 -15 28 -7 2 -10 8 -6 13 3 5 0 9 -7 9 -7 0
-10 3 -6 6 8 8 -16 33 -25 27 -5 -2 -8 1 -8 7 0 6 -4 8 -10 5 -5 -3 -10 1 -10
10 0 11 -5 15 -15 12 -8 -4 -17 -2 -21 4 -3 5 -14 7 -23 4 -10 -3 -24 1 -31
10 -11 13 -71 15 -455 15 -363 0 -445 -2 -454 -14 -24 -28 -125 -29 -114 0 3
8 -1 14 -11 14 -10 0 -13 6 -10 15 4 8 1 15 -5 15 -6 0 -8 7 -5 15 4 9 0 15
-10 15 -10 0 -13 6 -10 15 4 8 1 15 -5 15 -6 0 -8 7 -5 15 4 9 0 15 -10 15
-10 0 -13 6 -10 15 4 8 1 15 -5 15 -6 0 -8 7 -5 15 4 9 0 15 -10 15 -10 0 -13
6 -10 15 4 8 1 15 -5 15 -6 0 -8 7 -5 15 4 9 0 15 -10 15 -10 0 -13 6 -10 15
4 8 1 15 -5 15 -6 0 -8 7 -5 15 4 9 0 15 -10 15 -10 0 -13 6 -10 15 4 8 1 15
-6 15 -6 0 -8 5 -5 10 3 6 -1 13 -9 16 -9 3 -14 10 -11 14 3 5 1 11 -5 15 -6
4 -8 11 -5 16 4 5 -1 12 -9 15 -9 3 -14 10 -11 14 3 5 1 11 -5 15 -6 4 -8 11
-5 16 4 5 -1 12 -9 15 -9 3 -14 10 -11 14 3 5 1 11 -5 15 -6 4 -8 10 -5 15 3
5 -3 13 -12 19 -10 6 -14 11 -9 11 5 0 4 6 -2 13 -6 6 -12 17 -14 22 -1 6 -7
9 -11 7 -5 -1 -6 1 -3 6 7 11 -48 62 -67 62 -9 0 -17 6 -19 13 -7 18 -155 18
-163 -1z"/>
<path d="M2251 5128 c-48 -20 -91 -60 -91 -84 0 -7 -5 -14 -11 -14 -5 0 -7 -4
-4 -10 3 -5 3 -16 -2 -22 -11 -18 -11 -120 0 -135 5 -7 6 -17 2 -23 -3 -5 1
-13 9 -16 9 -3 14 -10 11 -14 -3 -5 4 -15 15 -23 11 -7 17 -16 14 -19 -3 -4 4
-9 15 -13 12 -3 21 -13 21 -22 0 -9 6 -13 15 -9 8 3 15 1 15 -5 0 -6 6 -9 14
-6 8 3 22 -1 33 -8 25 -19 78 -19 98 1 8 9 22 13 30 10 8 -3 17 -1 20 5 4 5 9
8 13 6 7 -3 98 85 94 91 -1 1 -2 3 -1 5 0 1 2 11 4 21 2 10 8 22 13 25 15 9
13 111 -1 117 -7 2 -14 14 -14 27 -1 12 -9 27 -17 33 -9 6 -13 14 -9 18 9 9
-47 57 -58 50 -5 -3 -9 2 -9 11 0 11 -5 15 -15 12 -8 -4 -17 -2 -20 2 -10 17
-138 9 -184 -11z"/>
<path d="M5204 5138 c-3 -4 -11 -5 -19 -1 -10 3 -15 -1 -15 -12 0 -9 -4 -13
-10 -10 -5 3 -10 1 -10 -6 0 -7 -3 -10 -6 -6 -9 8 -46 -32 -39 -43 4 -6 2 -10
-4 -10 -6 0 -14 -12 -17 -27 -4 -16 -12 -31 -18 -35 -17 -11 -16 -116 2 -123
8 -3 12 -12 8 -20 -3 -8 -1 -17 5 -20 5 -4 8 -9 6 -13 -2 -4 16 -26 40 -49 24
-23 43 -39 43 -35 0 3 5 1 11 -5 6 -6 18 -9 25 -6 7 3 21 -2 29 -11 21 -20 79
-21 95 -1 7 9 21 13 31 10 11 -4 19 -2 19 4 0 6 7 8 15 5 9 -4 15 0 15 9 0 9
9 19 20 22 11 4 18 10 15 15 -3 4 2 10 10 14 8 3 15 12 15 20 0 8 5 16 12 18
6 2 13 13 15 24 9 42 9 140 0 152 -6 7 -7 15 -3 19 3 3 -3 12 -14 20 -11 8
-17 20 -14 28 4 9 0 15 -10 15 -9 0 -16 7 -16 15 0 8 -9 15 -20 15 -11 0 -23
6 -26 13 -6 16 -5 16 -107 19 -44 2 -81 0 -83 -4z"/>
<path d="M1431 4991 c-8 -5 -23 -8 -33 -6 -11 2 -18 -2 -18 -11 0 -8 -7 -14
-16 -14 -22 0 -73 -50 -67 -67 3 -7 -2 -13 -12 -13 -9 0 -13 -5 -10 -10 3 -6
1 -26 -7 -45 -10 -28 -10 -40 0 -55 7 -11 12 -27 12 -36 0 -8 7 -22 15 -31 8
-8 13 -19 10 -23 -8 -12 33 -52 45 -45 5 3 17 -2 27 -12 25 -25 163 -30 163
-6 0 9 6 13 15 9 8 -3 15 -1 15 5 0 6 4 8 9 5 11 -7 53 38 44 47 -3 4 -1 7 6
7 8 0 11 7 7 15 -3 8 0 15 7 15 9 0 13 21 13 75 0 57 -3 75 -14 75 -7 0 -11 4
-7 9 3 5 1 12 -5 16 -6 4 -8 10 -5 15 7 11 -34 54 -43 46 -3 -3 -14 2 -24 11
-10 9 -26 18 -36 20 -9 1 -30 5 -47 8 -16 3 -36 1 -44 -4z"/>
<path d="M6135 4990 c-4 -6 -15 -10 -25 -7 -11 3 -21 -2 -24 -10 -3 -8 -10
-12 -14 -9 -11 6 -55 -41 -79 -85 -13 -23 -18 -50 -17 -84 1 -27 3 -50 4 -50
1 0 3 -9 5 -19 2 -10 10 -23 17 -27 7 -5 9 -9 4 -9 -10 0 52 -65 63 -65 3 0
13 -5 21 -10 25 -16 151 -15 157 1 3 8 9 11 14 9 10 -7 82 71 85 92 2 9 7 19
11 22 13 9 8 112 -6 120 -6 4 -9 14 -6 22 3 8 -6 22 -20 33 -14 10 -25 25 -25
32 0 8 -3 13 -7 13 -24 -4 -43 3 -43 15 0 8 -10 14 -22 14 -13 1 -37 4 -54 7
-20 5 -34 3 -39 -5z"/>
<path d="M2100 4593 c-37 -7 -91 -63 -84 -85 3 -11 -1 -29 -9 -42 -14 -21 -20
-86 -18 -200 1 -27 -5 -56 -11 -64 -12 -14 -19 -92 -19 -202 1 -31 -4 -57 -11
-61 -7 -4 -11 -25 -11 -46 1 -21 -3 -61 -9 -90 -6 -29 -7 -59 -2 -70 4 -10 8
-22 9 -28 0 -5 14 -23 30 -40 25 -25 38 -30 75 -30 58 1 85 -28 76 -80 -4 -22
-2 -43 6 -57 7 -13 14 -48 15 -78 6 -132 9 -156 21 -177 7 -13 12 -44 12 -70
-1 -98 6 -171 18 -185 6 -8 12 -37 12 -64 -2 -100 6 -174 18 -186 6 -6 12 -24
12 -39 0 -36 10 -60 21 -53 5 3 9 -2 9 -10 0 -13 15 -16 88 -16 80 0 89 2 111
25 13 14 26 25 30 25 8 0 9 17 11 125 1 32 7 68 13 80 12 19 18 88 17 189 0
27 6 56 12 64 13 15 20 88 19 185 -1 27 5 58 12 70 11 21 17 75 16 180 0 36 4
47 16 47 8 0 15 6 15 13 0 7 10 13 23 14 62 1 76 5 104 29 18 15 29 32 26 40
-3 8 2 17 11 20 20 8 20 28 1 58 -9 14 -15 44 -15 72 2 97 -5 181 -17 196 -7
8 -12 39 -12 69 1 104 -7 187 -19 201 -6 8 -11 39 -10 69 1 76 -7 132 -21 137
-6 2 -9 7 -6 12 3 5 -9 19 -27 32 -32 22 -39 23 -283 25 -137 0 -261 -1 -275
-4z"/>
<path d="M4982 4575 c-12 -12 -22 -27 -22 -33 0 -6 -5 -12 -12 -14 -12 -4 -18
-38 -21 -128 -1 -30 -6 -62 -11 -70 -10 -15 -17 -105 -16 -204 0 -38 -4 -62
-12 -67 -13 -8 -20 -84 -18 -200 0 -39 -4 -60 -15 -69 -20 -16 -19 -56 1 -64
9 -3 14 -12 11 -19 -3 -7 1 -21 9 -32 8 -10 14 -15 14 -10 0 5 6 0 14 -11 12
-16 25 -20 65 -19 36 1 51 -3 51 -12 0 -7 7 -13 15 -13 12 0 16 -11 15 -47 0
-106 6 -171 17 -185 7 -8 13 -39 13 -69 0 -105 5 -164 15 -179 5 -8 11 -44 13
-80 1 -36 4 -85 5 -110 1 -25 8 -55 14 -67 7 -12 12 -43 12 -70 -2 -80 11
-142 32 -148 11 -4 19 -13 19 -21 0 -11 19 -14 95 -14 79 0 95 3 95 16 0 8 4
13 9 10 11 -7 21 17 21 53 0 15 5 32 12 39 12 12 19 84 18 185 0 27 6 58 12
70 13 22 20 99 19 191 -1 27 5 56 11 64 12 14 17 62 18 181 1 24 7 56 15 71 9
18 13 43 9 68 -4 32 -2 41 13 47 21 10 47 15 83 18 23 2 93 61 83 71 -2 2 1
13 8 24 10 16 10 28 0 60 -8 24 -11 55 -7 76 5 24 2 45 -8 64 -8 16 -16 49
-16 73 -2 128 -6 176 -17 196 -7 12 -13 43 -13 70 1 92 -6 168 -17 193 -6 14
-9 33 -7 44 2 10 -11 33 -31 55 l-35 36 -277 2 -278 2 -23 -24z"/>
<path d="M1210 4496 c0 -8 -7 -16 -15 -20 -8 -3 -15 -12 -15 -20 0 -8 -5 -16
-11 -18 -6 -2 -13 -24 -14 -48 -2 -25 -10 -90 -19 -145 -9 -55 -21 -127 -26
-160 -19 -117 -31 -314 -20 -335 6 -10 9 -25 8 -32 -2 -7 3 -12 9 -10 7 1 12
-1 12 -5 -4 -23 3 -35 16 -29 8 3 15 2 15 -3 0 -4 19 -7 43 -7 39 1 42 -1 45
-26 2 -16 9 -28 16 -28 9 0 13 -19 14 -62 2 -126 8 -186 20 -200 7 -8 12 -37
12 -64 -1 -88 5 -169 15 -184 5 -8 10 -42 12 -75 6 -136 9 -161 19 -180 6 -11
9 -26 6 -34 -3 -8 0 -11 7 -7 6 4 11 4 11 -1 0 -4 44 -6 97 -3 l97 5 6 30 c4
17 12 40 18 52 6 11 12 38 12 60 -1 99 6 171 17 185 7 8 12 34 12 59 -1 85 6
174 16 189 10 16 18 102 16 183 -1 67 31 111 76 104 17 -3 34 -2 38 1 4 4 12
7 18 7 7 0 12 6 12 13 0 8 7 19 15 25 17 14 21 162 5 187 -6 8 -11 44 -13 80
-5 144 -8 166 -20 187 -6 12 -12 43 -11 70 2 133 -3 181 -18 187 -8 4 -13 13
-9 21 3 9 -3 20 -14 27 -11 7 -20 18 -20 25 0 9 -61 12 -255 12 -208 0 -255
-2 -255 -13z"/>
<path d="M5938 4503 c-10 -2 -18 -8 -18 -13 0 -4 -8 -7 -17 -6 -11 0 -17 -6
-17 -16 1 -10 -4 -18 -10 -18 -12 0 -15 -19 -16 -129 -1 -30 -6 -64 -13 -75
-7 -12 -13 -46 -14 -76 -4 -127 -9 -176 -18 -190 -5 -8 -11 -40 -12 -70 0 -30
-3 -83 -6 -117 -3 -35 -1 -63 4 -63 4 0 6 -7 3 -15 -4 -9 0 -15 9 -15 8 0 18
-7 21 -16 3 -8 10 -12 16 -9 5 3 10 2 10 -4 0 -6 15 -7 35 -4 46 7 68 -11 60
-48 -4 -16 0 -39 9 -57 8 -16 15 -49 15 -73 0 -91 7 -165 19 -185 6 -12 12
-41 12 -65 2 -122 6 -167 18 -181 7 -9 12 -39 12 -69 -2 -102 5 -162 18 -166
6 -3 12 -10 12 -16 0 -17 185 -13 203 4 7 7 11 26 9 44 -2 18 2 43 9 56 13 23
20 89 19 193 0 27 5 55 12 64 11 13 15 44 21 193 1 31 7 63 14 71 7 8 12 34
12 59 0 154 11 181 72 177 29 -1 45 4 63 22 14 12 23 27 20 31 -3 5 1 9 8 9
17 0 18 97 1 126 -7 12 -12 46 -12 75 0 91 -6 162 -19 199 -6 19 -11 53 -11
75 -1 101 -8 172 -20 193 -7 13 -10 30 -7 38 3 8 1 14 -4 14 -5 0 -7 7 -4 15
6 13 -6 20 -29 16 -4 0 -6 5 -5 11 2 10 -50 13 -232 15 -129 1 -243 -1 -252
-4z"/>
<path d="M3127 1269 c-10 -6 -25 -8 -33 -5 -8 3 -17 -1 -20 -9 -4 -8 -10 -12
-15 -9 -5 3 -9 0 -9 -7 0 -7 -3 -10 -6 -6 -8 8 -33 -16 -27 -25 2 -5 -1 -8 -7
-8 -6 0 -8 -4 -5 -10 3 -5 -1 -10 -10 -10 -12 0 -15 -6 -10 -19 3 -11 1 -22
-5 -26 -7 -5 -9 -20 -6 -40 5 -25 3 -34 -9 -39 -11 -4 -14 -13 -10 -25 3 -11
1 -22 -5 -26 -5 -3 -7 -17 -4 -29 4 -16 0 -25 -11 -30 -11 -4 -14 -12 -10 -25
3 -11 2 -22 -4 -25 -5 -3 -7 -14 -4 -24 2 -10 -2 -24 -11 -31 -8 -7 -12 -19
-9 -27 3 -8 0 -20 -6 -28 -6 -7 -9 -21 -5 -30 4 -9 0 -18 -9 -22 -8 -3 -15
-17 -15 -32 -2 -53 -4 -61 -17 -72 -8 -6 -11 -18 -8 -26 3 -8 0 -20 -6 -28 -6
-7 -8 -21 -5 -31 4 -10 1 -21 -7 -26 -13 -8 -16 -19 -22 -75 -1 -11 -9 -29
-17 -39 -13 -15 -12 -19 3 -30 9 -7 17 -23 17 -37 0 -14 9 -33 20 -43 11 -10
20 -24 20 -32 0 -8 4 -12 9 -8 5 3 12 1 16 -5 4 -6 11 -8 16 -5 5 4 9 -1 9 -9
0 -14 96 -16 920 -16 775 0 922 3 926 14 3 8 16 17 29 20 14 4 30 16 36 29 7
12 17 25 22 29 12 7 18 38 18 81 0 47 -3 62 -18 78 -7 9 -11 24 -7 33 4 9 1
16 -6 16 -8 0 -10 9 -6 24 4 15 0 28 -9 36 -9 7 -13 21 -10 31 3 9 1 20 -5 24
-6 4 -8 15 -5 25 3 11 0 20 -10 23 -8 4 -15 17 -15 29 0 51 -4 73 -14 80 -6 4
-12 20 -13 35 -4 48 -9 64 -23 73 -7 4 -11 17 -7 29 3 12 1 24 -4 27 -6 3 -7
14 -4 23 3 10 -1 24 -10 31 -9 7 -13 21 -10 31 4 11 2 19 -4 19 -5 0 -8 12 -5
26 6 33 -4 66 -18 58 -6 -4 -8 1 -3 15 4 12 2 21 -4 21 -6 0 -10 3 -9 8 4 14
-27 52 -44 52 -9 0 -21 6 -25 13 -4 6 -19 14 -33 16 -61 10 -1376 10 -1393 0z"/>
</g>
</svg>
