<?xml version="1.0" standalone="no"?>
<!DOCTYPE svg PUBLIC "-//W3C//DTD SVG 20010904//EN"
 "http://www.w3.org/TR/2001/REC-SVG-20010904/DTD/svg10.dtd">
<svg version="1.0" xmlns="http://www.w3.org/2000/svg"
 width="256.000000pt" height="256.000000pt" viewBox="0 0 256.000000 256.000000"
 preserveAspectRatio="xMidYMid meet">

<g transform="translate(0.000000,256.000000) scale(0.100000,-0.100000)"
fill="currentColor" stroke="none">
<path d="M1120 2459 c-353 -60 -487 -146 -433 -281 19 -49 32 -62 89 -88 31
-14 51 -16 75 -10 36 8 102 34 131 50 25 14 264 47 323 45 105 -4 250 -34 327
-68 56 -25 88 -32 135 -29 32 3 100 67 113 107 15 45 -1 103 -37 137 -34 31
-123 73 -189 89 -27 7 -82 21 -122 31 -81 21 -329 32 -412 17z"/>
<path d="M568 2148 c-139 -109 -250 -245 -329 -403 -46 -94 -57 -125 -95 -265
-8 -30 -17 -118 -20 -194 -6 -133 -6 -139 12 -131 11 4 43 10 71 13 l53 4 1
82 c2 114 6 141 28 228 57 221 214 460 369 563 l41 27 -30 46 c-16 25 -29 52
-29 59 0 21 -15 15 -72 -29z"/>
<path d="M1906 2144 c-10 -25 -25 -48 -32 -51 -23 -9 -16 -19 49 -68 129 -99
258 -278 311 -429 48 -140 56 -177 63 -296 3 -66 7 -120 8 -120 11 0 104 -20
118 -25 15 -7 17 2 17 96 -2 346 -166 675 -448 897 -30 23 -57 42 -61 42 -3 0
-14 -21 -25 -46z"/>
<path d="M1810 1780 c-8 -5 -27 -10 -42 -10 -15 0 -47 -4 -70 -10 -80 -18
-253 -51 -313 -60 -33 -5 -92 -16 -132 -25 l-72 -16 2 -273 2 -274 -60 -1
c-73 -1 -132 -28 -162 -74 -27 -40 -28 -55 -5 -83 28 -34 57 -44 119 -44 66 0
125 24 163 64 l25 28 2 235 c1 130 4 237 5 239 2 1 50 12 108 23 58 12 134 28
170 35 92 20 202 38 206 33 5 -4 8 -159 5 -275 -1 -71 -1 -72 -25 -66 -27 6
-112 -17 -155 -42 -17 -10 -38 -33 -48 -51 -16 -30 -16 -36 -3 -60 20 -36 100
-66 155 -57 54 8 128 49 147 82 14 23 16 75 16 360 1 342 0 347 -38 322z"/>
<path d="M763 1589 l-71 -72 -27 22 c-29 22 -70 28 -80 10 -20 -32 32 -89 82
-89 10 0 46 29 81 64 l62 64 75 -50 c41 -27 75 -53 75 -57 0 -4 -19 -26 -43
-49 -43 -42 -43 -43 -62 -22 -28 31 -95 22 -95 -13 0 -15 64 -67 84 -67 29 0
208 180 195 196 -14 17 -185 134 -196 134 -4 0 -40 -32 -80 -71z"/>
<path d="M185 1129 c-17 -4 -41 -18 -54 -30 -20 -18 -22 -29 -18 -67 3 -24 9
-47 14 -51 6 -3 13 -17 16 -31 11 -41 25 -56 40 -45 125 91 140 112 113 163
-19 36 -54 72 -69 71 -7 0 -26 -5 -42 -10z"/>
<path d="M2298 1113 c-60 -65 -59 -108 6 -152 23 -16 48 -36 55 -45 23 -27 38
-18 61 35 34 81 37 115 10 144 -19 20 -74 45 -101 45 -3 0 -17 -12 -31 -27z"/>
<path d="M399 1075 c-19 -14 -42 -40 -51 -58 -20 -35 -24 -92 -8 -102 6 -3 10
-13 10 -22 0 -8 13 -43 29 -77 16 -33 43 -99 61 -146 18 -47 43 -107 55 -135
12 -27 34 -80 49 -117 14 -37 35 -85 46 -105 11 -21 20 -43 20 -50 0 -29 53
-122 83 -144 26 -19 43 -24 85 -22 30 1 65 9 78 18 58 38 80 121 50 188 -8 18
-28 68 -46 111 -18 44 -36 87 -40 95 -5 9 -20 46 -34 83 -14 37 -35 85 -46
105 -11 21 -20 42 -20 48 0 14 -60 158 -71 169 -5 6 -9 16 -9 24 0 7 -12 38
-26 68 -19 41 -35 59 -64 74 -54 28 -108 26 -151 -5z"/>
<path d="M2038 1093 c-57 -9 -92 -70 -208 -368 -7 -20 -59 -141 -85 -200 -7
-16 -25 -61 -40 -100 -15 -38 -36 -88 -46 -111 -54 -117 21 -232 143 -217 53
6 111 54 123 101 3 15 15 45 25 67 41 90 84 193 155 370 15 39 40 98 56 131
45 99 71 185 65 217 -7 32 -47 86 -80 104 -21 12 -55 14 -108 6z"/>
<path d="M250 904 c-54 -39 -66 -52 -116 -125 -56 -83 -87 -184 -86 -281 1
-173 156 -342 347 -377 62 -12 193 -15 218 -5 13 4 13 9 2 32 -19 39 -58 129
-84 192 -13 30 -30 71 -39 90 -8 19 -25 62 -37 95 -12 33 -31 80 -42 105 -74
165 -104 239 -109 268 -8 38 -8 38 -54 6z"/>
<path d="M2260 906 c0 -14 -4 -27 -9 -30 -5 -3 -12 -18 -16 -33 -3 -16 -15
-46 -25 -68 -36 -76 -110 -256 -110 -268 0 -7 -6 -21 -13 -32 -8 -11 -24 -47
-36 -80 -21 -54 -73 -175 -107 -248 -11 -25 -11 -27 10 -33 31 -7 191 1 241
13 94 23 232 123 266 194 46 94 51 113 51 189 -1 80 -29 189 -58 221 -8 8 -14
19 -14 23 0 19 -76 109 -118 141 -53 41 -62 43 -62 11z"/>
</g>
</svg>
