<?xml version="1.0" standalone="no"?>
<!DOCTYPE svg PUBLIC "-//W3C//DTD SVG 20010904//EN"
 "http://www.w3.org/TR/2001/REC-SVG-20010904/DTD/svg10.dtd">
<svg version="1.0" xmlns="http://www.w3.org/2000/svg"
 width="512.000000pt" height="512.000000pt" viewBox="0 0 512.000000 512.000000"
 preserveAspectRatio="xMidYMid meet">

<g transform="translate(0.000000,512.000000) scale(0.100000,-0.100000)"
fill="currentColor" stroke="none">
<path d="M2465 4726 c-95 -30 -168 -99 -219 -206 -27 -57 -31 -75 -31 -155 0
-79 3 -97 29 -150 39 -80 126 -162 225 -214 l79 -41 305 0 304 0 -18 88 c-73
357 -243 618 -441 677 -61 18 -177 19 -233 1z m186 -168 c114 -34 232 -216
300 -463 11 -42 18 -79 15 -82 -8 -8 -204 48 -304 87 -148 57 -262 150 -276
226 -12 62 17 157 61 196 49 44 130 59 204 36z"/>
<path d="M3675 4727 c-106 -35 -179 -91 -250 -191 -94 -134 -176 -342 -209
-538 l-7 -38 307 0 306 0 71 37 c86 46 184 134 219 200 96 176 19 415 -163
509 -45 23 -69 28 -144 31 -56 2 -105 -2 -130 -10z m222 -189 c51 -33 76 -86
81 -168 3 -60 1 -68 -27 -107 -37 -51 -97 -93 -206 -144 -88 -42 -331 -116
-343 -105 -9 10 26 140 63 231 67 163 144 267 228 306 60 28 151 22 204 -13z"/>
<path d="M1822 3874 c-22 -15 -22 -18 -22 -260 0 -150 4 -253 10 -265 11 -19
36 -19 1368 -19 1043 0 1361 3 1370 12 9 9 12 83 12 270 0 244 -1 258 -19 268
-13 7 -455 10 -1358 10 -1195 0 -1341 -2 -1361 -16z"/>
<path d="M2052 3238 c-9 -9 -12 -75 -12 -234 l0 -221 93 -17 c188 -35 416
-128 671 -276 88 -50 125 -66 195 -80 l86 -17 3 406 c1 223 0 416 -3 429 l-5
22 -508 0 c-382 0 -511 -3 -520 -12z"/>
<path d="M3287 3243 c-4 -3 -7 -199 -7 -434 l0 -428 33 -5 c17 -3 55 -8 82
-11 68 -8 314 -60 400 -85 60 -17 100 -20 286 -20 171 0 219 3 228 14 8 9 10
147 9 492 l-3 479 -511 3 c-281 1 -514 -1 -517 -5z"/>
<path d="M338 2759 c-29 -27 -41 -76 -83 -339 -44 -281 -69 -544 -85 -900 -12
-286 -13 -492 0 -524 14 -37 55 -44 300 -51 202 -7 216 -6 231 11 14 16 17 59
22 284 8 337 44 716 122 1270 30 209 30 205 6 229 -15 15 -41 19 -167 25 -82
3 -188 9 -235 12 -80 6 -87 5 -111 -17z"/>
<path d="M1635 2649 c-218 -28 -590 -142 -614 -188 -5 -9 -30 -283 -57 -609
-48 -589 -48 -592 -29 -612 14 -13 54 -25 140 -39 107 -19 132 -27 245 -84 69
-35 292 -158 495 -274 522 -297 720 -400 855 -448 96 -34 291 -14 770 76 146
28 319 59 385 70 301 48 269 31 696 364 203 159 351 301 385 370 31 64 35 145
10 193 -17 32 -16 34 8 62 53 63 42 143 -28 208 -82 75 -198 82 -331 19 -105
-50 -156 -88 -262 -192 -174 -172 -295 -220 -655 -261 -178 -20 -374 -15 -488
11 -47 10 -146 51 -262 106 -103 49 -196 89 -207 89 -21 0 -280 76 -289 85 -3
3 46 5 109 5 63 0 159 7 214 15 200 29 352 14 915 -90 253 -47 287 -42 369 51
69 78 111 228 91 320 -22 99 -69 151 -185 205 -154 72 -408 128 -723 159 -111
11 -226 25 -255 31 -54 11 -129 49 -326 163 -179 103 -367 170 -546 195 -89
13 -330 12 -430 0z"/>
</g>
</svg>
