<svg id="svg" version="1.1" xmlns="http://www.w3.org/2000/svg" xmlns:xlink="http://www.w3.org/1999/xlink" width="400" height="359.90675990675993" viewBox="0, 0, 400,359.90675990675993"><g id="svgg"><path id="path0" d="M117.016 7.870 C 13.398 16.839,18.054 16.051,8.906 26.177 C -1.401 37.585,-1.645 42.147,4.537 107.854 C 9.796 163.747,9.792 163.728,18.272 171.545 C 26.637 179.256,27.584 179.449,58.617 179.773 L 85.998 180.058 127.013 212.231 C 149.572 229.926,168.131 244.273,168.256 244.113 C 168.381 243.953,164.161 230.186,158.878 213.520 C 153.595 196.853,149.035 182.273,148.745 181.119 L 148.216 179.021 165.250 179.043 L 182.284 179.066 186.740 187.224 C 194.616 201.647,208.628 216.166,222.499 224.278 C 228.066 227.534,228.281 227.794,227.363 230.159 C 220.390 248.120,206.061 289.897,206.061 292.268 C 206.061 297.977,207.834 297.003,249.458 268.429 L 290.193 240.465 298.243 239.485 C 404.627 226.536,438.017 98.664,346.920 53.068 C 322.751 40.972,288.374 37.436,261.295 44.264 C 249.049 47.351,249.599 47.552,250.922 40.484 C 253.945 24.334,247.585 9.777,234.536 2.979 C 226.478 -1.219,217.867 -0.860,117.016 7.870 M225.217 26.531 C 228.065 29.378,228.094 31.304,225.546 47.683 L 223.567 60.400 217.820 64.619 C 190.254 84.860,173.450 118.632,175.627 149.417 L 176.203 157.576 148.242 157.576 C 124.187 157.576,120.280 157.768,120.280 158.955 C 120.280 159.713,122.183 166.271,124.508 173.529 C 126.834 180.787,128.571 186.891,128.368 187.094 C 127.854 187.609,104.383 169.704,96.658 162.905 L 90.287 157.296 66.325 157.810 C 30.224 158.585,33.771 163.646,26.961 101.632 C 21.645 53.214,21.648 53.792,26.702 45.998 C 31.542 38.533,32.312 38.347,70.706 35.385 C 171.634 27.597,203.020 25.136,205.128 24.844 C 214.447 23.555,222.956 24.270,225.217 26.531 M108.625 40.143 C 76.840 43.464,54.423 74.366,61.063 105.707 C 68.424 140.451,107.500 159.454,138.943 143.582 L 144.236 140.910 149.205 145.941 C 155.291 152.105,158.035 152.891,163.243 149.964 C 171.193 145.496,171.522 140.702,164.392 133.228 L 159.087 127.666 162.541 121.273 C 183.871 81.782,153.109 35.494,108.625 40.143 M122.336 68.582 C 134.712 72.799,142.645 88.845,139.005 102.298 C 138.003 106.000,137.804 106.175,135.573 105.326 C 128.543 102.654,122.071 111.105,126.407 117.295 C 127.824 119.317,127.754 119.437,124.309 120.902 C 107.067 128.235,89.977 115.393,89.977 95.105 C 89.977 75.649,105.569 62.869,122.336 68.582 M307.288 69.055 C 316.809 70.757,338.627 79.960,346.036 85.399 C 369.789 102.836,379.949 142.838,366.707 166.785 C 356.110 185.950,341.001 201.150,326.807 206.927 C 312.354 212.810,309.691 213.476,294.639 214.974 C 289.867 215.449,287.957 216.543,267.133 230.731 C 254.825 239.117,244.626 245.853,244.468 245.701 C 244.310 245.548,246.228 240.028,248.731 233.434 C 255.246 216.269,255.008 214.808,244.894 209.903 C 232.034 203.665,213.638 188.296,209.535 180.361 L 208.086 177.560 214.003 174.492 C 229.776 166.314,231.784 161.609,239.011 115.894 C 244.578 80.678,244.957 78.885,247.134 77.528 C 248.390 76.745,250.256 75.381,251.282 74.498 C 252.322 73.602,257.478 72.046,262.937 70.979 C 268.322 69.928,273.566 68.891,274.592 68.674 C 278.549 67.841,302.027 68.114,307.288 69.055 M279.053 82.284 C 277.499 83.978,238.639 177.158,237.054 182.990 C 235.690 188.009,244.356 196.127,251.148 196.193 C 256.234 196.243,257.917 193.863,263.912 178.150 L 268.998 164.819 287.646 165.469 C 297.902 165.826,306.572 166.399,306.912 166.742 C 307.251 167.085,309.697 173.030,312.347 179.953 C 318.134 195.076,319.141 196.321,325.424 196.130 C 331.248 195.953,335.822 193.375,336.884 189.669 C 338.144 185.278,298.723 87.104,294.054 83.005 C 289.830 79.296,282.134 78.926,279.053 82.284 M218.490 95.338 C 218.290 96.492,216.510 108.206,214.535 121.370 C 210.503 148.255,209.295 151.768,202.840 155.389 C 197.996 158.106,197.669 157.743,197.669 149.656 C 197.669 134.457,207.211 106.475,215.925 96.119 C 218.819 92.680,218.961 92.637,218.490 95.338 M293.191 130.364 C 298.431 143.933,298.975 142.789,287.436 142.458 L 278.127 142.191 282.792 129.790 C 285.358 122.969,287.750 117.724,288.107 118.135 C 288.464 118.545,290.752 124.048,293.191 130.364 M183.683 306.457 C 74.398 309.089,12.639 329.758,64.883 346.216 C 116.723 362.547,265.678 364.909,336.535 350.524 C 350.004 347.790,363.304 343.266,367.696 339.924 C 388.439 324.147,335.271 310.187,241.467 306.781 C 217.536 305.912,208.410 305.861,183.683 306.457 M231.702 331.223 C 234.701 331.981,236.364 332.900,236.364 333.800 C 236.364 339.195,184.748 339.426,182.980 334.038 C 181.597 329.826,217.870 327.730,231.702 331.223 " stroke="none" fill="currentColor" fill-rule="evenodd"></path></g></svg>