<svg id="svg" xmlns="http://www.w3.org/2000/svg" xmlns:xlink="http://www.w3.org/1999/xlink" width="400" height="400" viewBox="0, 0, 400,400"><g id="svgg"><path id="path0" d="M257.100 21.384 C 251.692 24.539,251.479 31.166,256.428 42.297 C 276.710 87.915,265.289 97.252,189.140 97.310 C 153.968 97.336,146.594 98.602,134.343 106.716 C 97.653 131.019,109.070 189.957,151.790 196.788 L 157.259 197.662 157.630 283.831 C 157.972 363.598,158.175 370.257,160.352 373.461 C 165.584 381.161,178.480 382.511,185.646 376.110 L 190.000 372.220 190.368 302.777 L 190.736 233.333 196.701 233.333 L 202.667 233.333 202.667 300.043 C 202.667 372.134,202.758 373.132,209.771 377.727 C 214.176 380.613,225.043 380.721,229.044 377.919 C 236.278 372.852,236.000 378.202,236.000 244.092 L 236.000 120.051 239.667 119.306 C 280.563 111.004,296.535 86.615,285.180 49.807 C 277.325 24.345,268.074 14.981,257.100 21.384 M184.667 34.140 C 157.006 49.195,165.996 89.333,197.029 89.333 C 224.765 89.333,236.213 52.700,213.480 36.688 C 206.470 31.750,191.491 30.426,184.667 34.140 M156.710 173.068 C 155.321 174.457,145.077 168.727,141.340 164.471 C 129.903 151.445,134.873 131.222,151.322 123.854 L 156.667 121.460 157.029 146.923 C 157.229 160.927,157.085 172.693,156.710 173.068 M221.333 169.333 L 221.333 201.333 197.333 201.333 C 174.821 201.333,166.398 199.948,178.798 198.285 C 194.923 196.122,194.859 174.667,178.727 174.667 L 173.333 174.667 173.333 156.000 L 173.333 137.333 197.333 137.333 L 221.333 137.333 221.333 169.333 M192.000 152.667 C 192.000 157.222,191.873 157.333,186.667 157.333 C 181.460 157.333,181.333 157.444,181.333 162.000 C 181.333 166.556,181.460 166.667,186.667 166.667 L 192.000 166.667 192.000 179.333 L 192.000 192.000 196.667 192.000 L 201.333 192.000 201.333 179.333 L 201.333 166.667 206.667 166.667 C 211.873 166.667,212.000 166.556,212.000 162.000 C 212.000 157.444,211.873 157.333,206.667 157.333 C 201.460 157.333,201.333 157.222,201.333 152.667 C 201.333 148.222,201.111 148.000,196.667 148.000 C 192.222 148.000,192.000 148.222,192.000 152.667 " stroke="none" fill="currentColor" fill-rule="evenodd"></path></g></svg>