<?xml version="1.0" standalone="no"?>
<!DOCTYPE svg PUBLIC "-//W3C//DTD SVG 20010904//EN"
 "http://www.w3.org/TR/2001/REC-SVG-20010904/DTD/svg10.dtd">
<svg version="1.0" xmlns="http://www.w3.org/2000/svg"
 width="203.000000pt" height="203.000000pt" viewBox="0 0 203.000000 203.000000"
 preserveAspectRatio="xMidYMid meet">

<g transform="translate(0.000000,203.000000) scale(0.100000,-0.100000)"
fill="currentColor" stroke="none">
<path d="M994 2002 c-39 -4 -55 -21 -84 -89 -27 -63 -22 -92 20 -116 57 -34
37 -72 -67 -121 -39 -19 -78 -45 -87 -58 -18 -27 -46 -139 -46 -185 0 -18 -4
-33 -10 -33 -6 0 -10 30 -10 70 0 82 -16 128 -55 158 -27 22 -27 23 -10 42 11
12 31 20 52 20 29 0 33 3 34 28 1 15 1 32 0 39 -1 6 3 14 9 18 6 4 5 14 -4 28
-7 12 -14 42 -15 67 -1 34 -7 49 -23 62 -33 24 -85 27 -127 6 -19 -10 -44 -18
-56 -18 -52 -1 -74 -54 -76 -189 -1 -56 -5 -104 -9 -106 -4 -3 -11 -17 -15
-32 -3 -16 -19 -44 -34 -63 -16 -20 -39 -56 -51 -80 -13 -25 -45 -77 -71 -117
-27 -40 -49 -76 -49 -82 0 -25 93 -87 172 -114 15 -5 15 -10 1 -63 -12 -47
-13 -76 -4 -158 23 -221 23 -232 6 -287 -25 -87 -29 -183 -11 -280 18 -98 20
-152 6 -179 -5 -10 -7 -32 -4 -50 l7 -31 61 6 c122 12 130 21 66 70 -46 35
-60 73 -60 160 0 123 19 241 45 291 14 26 25 55 25 65 0 22 8 23 45 9 35 -13
47 -48 55 -170 6 -92 12 -118 50 -207 38 -91 41 -106 31 -134 -17 -50 -14 -57
32 -69 73 -19 72 -18 49 -41 -40 -37 -30 -44 84 -54 40 -4 74 -3 77 2 2 4 0
36 -6 71 -7 48 -6 92 7 195 9 72 16 160 16 195 0 58 2 63 25 72 23 9 25 15 26
72 1 118 21 125 34 12 4 -32 11 -72 16 -89 7 -25 -3 -443 -13 -510 -3 -19 2
-20 82 -17 49 1 87 7 91 14 5 8 38 9 109 4 l101 -6 -2 52 c-1 29 6 109 16 178
10 71 15 151 12 185 -8 86 35 371 54 360 5 -4 9 -26 9 -49 0 -24 7 -81 15
-127 11 -67 20 -330 14 -429 0 -8 3 -43 7 -77 6 -57 9 -63 30 -63 24 0 64 42
64 67 0 8 -9 17 -20 20 -11 3 -17 9 -14 14 3 5 14 71 25 147 18 122 19 149 8
251 -13 128 -9 202 22 346 23 111 21 189 -8 328 -21 97 -8 210 26 234 24 17
22 53 -9 163 -10 36 -26 97 -35 135 -26 117 -34 133 -82 170 -59 45 -112 47
-169 9 -21 -15 -42 -32 -46 -38 -12 -18 -8 -60 7 -80 8 -11 15 -28 15 -38 0
-10 9 -37 20 -58 16 -30 26 -40 45 -40 14 0 25 -3 25 -7 -1 -14 -44 -40 -77
-47 -35 -8 -62 -43 -83 -108 -6 -21 -15 -38 -19 -38 -4 0 -13 24 -20 53 -8 36
-21 62 -39 79 -33 30 -108 78 -121 78 -17 0 -32 38 -25 65 3 14 18 31 33 38
38 18 39 68 4 131 -30 54 -65 74 -119 68z m-464 -104 c0 -19 -18 -43 -25 -36
-9 9 4 48 16 48 5 0 9 -6 9 -12z m1046 -195 c-12 -13 -26 12 -26 46 0 56 14
59 23 6 4 -26 6 -50 3 -52z m-1026 27 c0 -11 -4 -20 -10 -20 -5 0 -10 9 -10
20 0 11 5 20 10 20 6 0 10 -9 10 -20z m813 -477 c-1 -43 -8 -114 -14 -157 -9
-57 -10 -137 -4 -280 5 -111 7 -226 5 -256 -6 -92 -5 -159 3 -292 l7 -127 -39
-21 c-22 -11 -49 -21 -61 -23 -11 -2 -26 -9 -32 -15 -20 -20 -39 -14 -73 22
l-32 34 28 129 c19 82 29 157 29 210 l0 83 33 14 33 13 -4 121 -4 120 34 35
c23 23 37 48 41 73 6 36 -17 307 -29 347 -3 9 -1 17 5 17 6 0 11 7 11 15 0 10
10 15 33 15 l33 0 -3 -77z m-152 -35 c6 -29 22 -84 35 -122 21 -65 21 -72 7
-108 -8 -21 -18 -38 -22 -38 -7 0 -32 72 -51 145 -11 45 -14 158 -3 168 14 15
22 5 34 -45z m-401 2 c39 -1 41 -12 24 -116 -9 -54 -20 -106 -25 -114 -9 -17
-10 -12 -34 120 -8 47 -18 94 -21 104 -5 16 -3 18 17 13 13 -4 31 -7 39 -7z
m-75 -217 c27 -87 27 -88 10 -137 -18 -48 -18 -49 1 -63 10 -8 29 -16 42 -20
29 -7 35 -35 30 -138 -4 -73 -2 -86 12 -90 14 -4 17 -22 17 -113 0 -59 5 -149
10 -199 5 -51 6 -93 3 -93 -11 0 -68 65 -83 96 -24 47 -48 190 -47 284 1 47
-6 150 -14 230 -14 133 -21 330 -12 330 2 0 16 -39 31 -87z m519 -98 c-4 -8
-10 -15 -15 -15 -5 0 -9 7 -9 15 0 8 7 15 15 15 9 0 12 -6 9 -15z"/>
</g>
</svg>
