<?xml version="1.0" standalone="no"?>
<!DOCTYPE svg PUBLIC "-//W3C//DTD SVG 20010904//EN"
 "http://www.w3.org/TR/2001/REC-SVG-20010904/DTD/svg10.dtd">
<svg version="1.0" xmlns="http://www.w3.org/2000/svg"
 width="512.000000pt" height="512.000000pt" viewBox="0 0 512.000000 512.000000"
 preserveAspectRatio="xMidYMid meet">

<g transform="translate(0.000000,512.000000) scale(0.100000,-0.100000)"
fill="currentColor" stroke="none">
<path d="M705 4308 c-182 -34 -340 -197 -374 -382 -6 -33 -11 -174 -11 -313
l0 -253 211 0 211 0 29 -29 29 -29 0 -982 0 -982 -29 -29 -29 -29 -211 0 -211
0 0 -253 c0 -139 5 -280 11 -313 35 -190 193 -348 383 -383 84 -15 3608 -15
3692 0 190 35 348 193 383 383 6 33 11 174 11 313 l0 253 -211 0 -211 0 -29
29 -29 29 0 982 0 982 29 29 29 29 211 0 211 0 0 253 c0 139 -5 280 -11 313
-35 190 -193 348 -383 383 -77 14 -3627 13 -3701 -1z m415 -468 l0 -160 -160
0 -160 0 0 160 0 160 160 0 160 0 0 -160z m800 0 l0 -160 -160 0 -160 0 0 160
0 160 160 0 160 0 0 -160z m800 0 l0 -160 -160 0 -160 0 0 160 0 160 160 0
160 0 0 -160z m800 0 l0 -160 -160 0 -160 0 0 160 0 160 160 0 160 0 0 -160z
m800 0 l0 -160 -160 0 -160 0 0 160 0 160 160 0 160 0 0 -160z m-509 -509 l29
-29 0 -982 0 -982 -29 -29 -29 -29 -1222 0 -1222 0 -29 29 -29 29 0 982 0 982
29 29 29 29 1222 0 1222 0 29 -29z m-2691 -2531 l0 -160 -160 0 -160 0 0 160
0 160 160 0 160 0 0 -160z m800 0 l0 -160 -160 0 -160 0 0 160 0 160 160 0
160 0 0 -160z m800 0 l0 -160 -160 0 -160 0 0 160 0 160 160 0 160 0 0 -160z
m800 0 l0 -160 -160 0 -160 0 0 160 0 160 160 0 160 0 0 -160z m800 0 l0 -160
-160 0 -160 0 0 160 0 160 160 0 160 0 0 -160z"/>
<path d="M1970 3027 c-50 -25 -50 -17 -50 -714 l0 -652 23 -26 c51 -59 32 -66
742 294 575 292 651 333 664 360 13 28 13 35 -1 64 -14 29 -78 63 -665 360
-357 180 -658 327 -669 327 -10 0 -30 -6 -44 -13z"/>
</g>
</svg>
